<svg width="80" height="54" viewBox="0 0 80 54" fill="none" xmlns="http://www.w3.org/2000/svg">
<path d="M64.5 20.4667C62.2333 8.96671 52.1333 0.333374 40 0.333374C30.3667 0.333374 22 5.80004 17.8333 13.8C7.8 14.8667 0 23.3667 0 33.6667C0 44.7 8.96667 53.6667 20 53.6667H63.3333C72.5333 53.6667 80 46.2 80 37C80 28.2 73.1667 21.0667 64.5 20.4667ZM63.3333 47H20C12.6333 47 6.66667 41.0334 6.66667 33.6667C6.66667 26.8334 11.7667 21.1334 18.5333 20.4334L22.1 20.0667L23.7667 16.9C26.9333 10.8 33.1333 7.00004 40 7.00004C48.7333 7.00004 56.2667 13.2 57.9667 21.7667L58.9667 26.7667L64.0667 27.1334C69.2667 27.4667 73.3333 31.8334 73.3333 37C73.3333 42.5 68.8333 47 63.3333 47V47ZM26.6667 30.3334H35.1667V40.3334H44.8333V30.3334H53.3333L40 17L26.6667 30.3334Z" fill="#1188EE"/>
</svg>
