<svg width="178" height="533" viewBox="0 0 178 533" fill="none" xmlns="http://www.w3.org/2000/svg">
<path fill-rule="evenodd" clip-rule="evenodd" d="M135.911 353.314C135.788 353.278 135.659 353.268 135.533 353.283C135.406 353.299 135.283 353.34 135.173 353.405C135.173 353.405 130.832 355.924 128.685 357.452C127.406 358.362 125.89 359.254 124.725 360.669C123.836 361.749 123.031 363.042 122.705 364.529C122.399 365.929 122.649 367.291 122.9 368.481C123.287 370.312 124.646 373.138 124.646 373.138C124.698 373.249 124.772 373.349 124.863 373.433C124.953 373.516 125.06 373.581 125.175 373.623C125.291 373.665 125.414 373.684 125.537 373.679C125.66 373.673 125.781 373.644 125.893 373.592C126.004 373.54 126.105 373.466 126.188 373.376C126.271 373.285 126.336 373.179 126.378 373.063C126.42 372.947 126.439 372.824 126.434 372.701C126.429 372.578 126.399 372.457 126.347 372.345C126.347 372.345 125.004 369.367 124.735 368.094C124.495 366.959 124.333 365.852 124.534 364.931C124.767 363.866 125.401 362.799 126.173 361.862C127.066 360.778 128.413 359.945 129.772 358.978C131.462 357.776 134.312 356.116 135.241 355.57C135.715 356.497 137.014 358.991 137.594 360.643C138.159 362.251 138.718 363.806 138.757 365.289C138.794 366.71 138.534 368.181 137.965 369.446C137.606 370.244 136.989 370.996 136.275 371.628C135.969 371.899 135.228 372.356 134.606 372.693C133.984 373.03 133.471 373.271 133.471 373.271C133.359 373.324 133.259 373.398 133.176 373.489C133.093 373.58 133.029 373.687 132.987 373.803C132.945 373.919 132.927 374.042 132.933 374.165C132.939 374.288 132.969 374.409 133.021 374.521C133.074 374.632 133.148 374.732 133.239 374.815C133.33 374.898 133.437 374.962 133.553 375.004C133.669 375.046 133.792 375.064 133.915 375.059C134.038 375.053 134.159 375.023 134.271 374.97C134.271 374.97 134.827 374.704 135.499 374.34C136.17 373.976 136.946 373.538 137.517 373.032C138.378 372.27 139.172 371.337 139.677 370.218C140.379 368.656 140.672 366.923 140.628 365.245C140.579 363.343 139.92 361.614 139.363 360.027C138.559 357.736 136.474 353.784 136.474 353.784C136.416 353.673 136.337 353.574 136.24 353.494C136.143 353.414 136.03 353.354 135.91 353.318L135.911 353.314Z" fill="#E8EFF4"/>
<path fill-rule="evenodd" clip-rule="evenodd" d="M140.33 346.339C138.108 345.293 135.631 345.933 133.664 346.442C131.827 346.917 129.962 347.756 128.516 349.132C126.895 350.672 125.883 352.722 125.223 354.725C124.832 355.913 124.682 357.499 124.594 358.851C124.506 360.204 124.502 361.3 124.502 361.3L126.376 361.309C126.376 361.309 126.381 360.263 126.465 358.972C126.549 357.682 126.736 356.125 127.004 355.311C127.604 353.494 128.513 351.723 129.807 350.492C130.94 349.414 132.525 348.673 134.135 348.257C136.062 347.759 138.114 347.369 139.531 348.036C140.808 348.637 141.84 350.219 142.395 351.784C142.972 353.414 142.929 355.394 142.476 357.166C142.174 358.349 141.038 359.486 140.214 361.073C139.707 362.048 138.874 363.905 138.874 363.905L140.586 364.674C140.586 364.674 141.439 362.783 141.879 361.936L141.875 361.935C142.503 360.727 143.815 359.501 144.292 357.633C144.818 355.574 144.905 353.253 144.163 351.157C143.507 349.306 142.331 347.281 140.33 346.339Z" fill="#E8EFF4"/>
<path fill-rule="evenodd" clip-rule="evenodd" d="M123.26 368.407C123.26 368.407 120.682 374.052 119.93 377.326C119.513 379.137 118.696 381.352 119.415 383.587L119.411 383.586C120.092 385.702 121.69 387.619 123.745 388.559C125.686 389.447 127.957 389.275 129.836 388.603C131.976 387.838 133.782 386.232 134.977 384.38C136.23 382.441 136.258 380.188 136.647 378.393C137.069 376.456 137.58 372.742 137.58 372.742L135.722 372.484C135.722 372.484 135.198 376.247 134.817 377.995C134.374 380.033 134.276 382.008 133.401 383.363C132.409 384.9 130.867 386.242 129.209 386.835C127.707 387.373 125.851 387.46 124.527 386.854C123.042 386.176 121.711 384.602 121.199 383.013C120.736 381.573 121.309 379.697 121.758 377.746C122.399 374.955 124.971 369.179 124.971 369.179L123.26 368.407Z" fill="#E8EFF4"/>
<path fill-rule="evenodd" clip-rule="evenodd" d="M136.319 351.268C136.078 351.205 135.823 351.24 135.608 351.366C135.394 351.492 135.238 351.698 135.175 351.938L134.601 354.014C134.568 354.132 134.558 354.256 134.573 354.378C134.588 354.501 134.627 354.619 134.688 354.726C134.748 354.833 134.829 354.928 134.926 355.004C135.023 355.079 135.134 355.135 135.253 355.168C135.371 355.201 135.495 355.211 135.618 355.196C135.74 355.181 135.858 355.142 135.965 355.082C136.072 355.021 136.167 354.94 136.242 354.843C136.318 354.746 136.374 354.635 136.407 354.516L136.983 352.437C137.018 352.317 137.028 352.191 137.014 352.066C136.999 351.942 136.96 351.822 136.898 351.713C136.836 351.604 136.753 351.508 136.653 351.432C136.554 351.355 136.44 351.299 136.319 351.268Z" fill="#E8EFF4"/>
<path fill-rule="evenodd" clip-rule="evenodd" d="M158.505 359.116C158.381 359.087 158.251 359.083 158.125 359.106C157.999 359.129 157.879 359.178 157.772 359.249C157.772 359.249 154.041 361.708 152.233 363.328C150.98 364.45 149.57 365.648 148.61 367.29C147.763 368.74 147.185 370.4 147.048 372.107C146.951 373.331 147.197 374.531 147.585 375.613C147.842 376.332 148.31 377.089 148.723 377.732C149.136 378.374 149.496 378.875 149.496 378.875C149.568 378.975 149.66 379.06 149.765 379.124C149.87 379.189 149.987 379.232 150.108 379.251C150.23 379.27 150.355 379.265 150.474 379.237C150.594 379.208 150.707 379.156 150.807 379.084C150.907 379.011 150.992 378.92 151.056 378.814C151.121 378.709 151.164 378.593 151.183 378.471C151.202 378.349 151.197 378.225 151.169 378.105C151.14 377.985 151.088 377.872 151.015 377.772C151.015 377.772 150.682 377.313 150.299 376.719C149.916 376.124 149.488 375.366 149.35 374.981C149.029 374.083 148.85 373.127 148.92 372.254C149.031 370.872 149.512 369.458 150.229 368.231C150.978 366.95 152.216 365.857 153.486 364.72C154.79 363.552 157.13 361.992 157.993 361.408C158.544 362.334 160.241 365.161 161.143 367.03C161.868 368.531 162.647 369.91 162.907 371.29C163.132 372.483 163.173 373.723 162.865 374.769C162.597 375.673 161.921 376.565 161.164 377.444C160.315 378.43 157.704 380.393 157.704 380.393C157.604 380.466 157.52 380.558 157.456 380.663C157.392 380.768 157.35 380.885 157.331 381.007C157.312 381.128 157.318 381.253 157.347 381.372C157.376 381.492 157.429 381.605 157.501 381.704C157.574 381.804 157.666 381.887 157.771 381.951C157.876 382.015 157.993 382.058 158.115 382.077C158.237 382.096 158.361 382.09 158.481 382.061C158.6 382.032 158.713 381.979 158.812 381.906C158.812 381.906 161.365 380.085 162.586 378.667C163.379 377.746 164.254 376.673 164.661 375.298C165.092 373.838 165.01 372.318 164.751 370.943C164.411 369.142 163.513 367.629 162.83 366.215C161.685 363.843 159.095 359.543 159.095 359.543C159.031 359.436 158.946 359.342 158.844 359.268C158.743 359.194 158.628 359.141 158.506 359.112L158.505 359.116Z" fill="#E8EFF4"/>
<path fill-rule="evenodd" clip-rule="evenodd" d="M157.98 350.871C155.772 350.732 153.766 351.94 152.3 353.246C150.639 354.725 149.597 356.802 149.066 358.859C148.584 360.726 149.143 362.433 149.111 363.793L149.108 363.792C149.085 364.746 148.921 366.814 148.921 366.814L150.792 366.966C150.792 366.966 150.956 364.937 150.982 363.839C151.024 362.051 150.577 360.507 150.882 359.325C151.339 357.554 152.255 355.798 153.546 354.648C154.787 353.543 156.453 352.654 157.862 352.743C159.425 352.841 161.035 354.171 162.483 355.536C163.694 356.677 164.726 358.09 165.199 359.58C165.741 361.282 165.684 363.272 165.334 365.153C165.176 365.995 164.59 367.45 164.042 368.621C163.494 369.792 162.995 370.712 162.995 370.712L164.641 371.607C164.641 371.607 165.165 370.644 165.74 369.416C166.314 368.189 166.948 366.727 167.177 365.498C167.563 363.425 167.664 361.14 166.987 359.01C166.382 357.107 165.151 355.474 163.771 354.173C162.292 352.779 160.43 351.025 157.98 350.871Z" fill="#E8EFF4"/>
<path fill-rule="evenodd" clip-rule="evenodd" d="M162.306 378.433L160.434 378.285C160.434 378.285 159.906 384.586 159.122 387.34C158.576 389.266 158.173 391.187 157.074 392.225C155.86 393.371 153.935 394.108 152.307 393.988C150.855 393.88 149.272 392.91 148.214 391.715C147.047 390.397 146.342 388.477 146.213 386.653C146.099 385.044 146.965 383.265 147.558 381.267C148.067 379.551 149.421 376.002 149.421 376.002L147.668 375.332C147.668 375.332 146.325 378.838 145.762 380.737C145.239 382.498 144.178 384.486 144.341 386.789C144.496 388.987 145.305 391.264 146.812 392.966C148.134 394.46 150.042 395.704 152.17 395.862C154.424 396.028 156.748 395.118 158.364 393.592L158.36 393.591C160.068 391.978 160.418 389.644 160.926 387.856C161.844 384.625 162.305 378.437 162.305 378.437L162.306 378.433Z" fill="#E8EFF4"/>
<path fill-rule="evenodd" clip-rule="evenodd" d="M159.091 357.115C158.849 357.062 158.595 357.107 158.386 357.24C158.176 357.373 158.029 357.584 157.974 357.826L157.477 359.926C157.42 360.168 157.461 360.423 157.592 360.634C157.723 360.846 157.933 360.996 158.175 361.053C158.417 361.11 158.672 361.069 158.883 360.938C159.095 360.807 159.245 360.598 159.302 360.356L159.799 358.26C159.83 358.138 159.836 358.012 159.817 357.887C159.798 357.763 159.754 357.644 159.688 357.537C159.622 357.431 159.535 357.338 159.432 357.265C159.33 357.193 159.214 357.142 159.091 357.115Z" fill="#E8EFF4"/>
<path fill-rule="evenodd" clip-rule="evenodd" d="M125.307 373.746C125.204 373.724 125.096 373.738 125.002 373.785L121.091 375.689C120.98 375.743 120.894 375.84 120.854 375.957C120.813 376.075 120.821 376.204 120.875 376.316C120.93 376.427 121.027 376.513 121.144 376.554C121.262 376.594 121.391 376.586 121.502 376.532L125.413 374.628C125.501 374.586 125.574 374.517 125.622 374.431C125.669 374.345 125.688 374.246 125.676 374.149C125.664 374.052 125.622 373.961 125.556 373.888C125.49 373.816 125.403 373.766 125.307 373.746Z" fill="#E8EFF4"/>
<path fill-rule="evenodd" clip-rule="evenodd" d="M125.582 375.355C125.463 375.329 125.338 375.349 125.234 375.413L120.171 378.476C120.118 378.507 120.071 378.549 120.033 378.599C119.996 378.649 119.968 378.705 119.953 378.766C119.938 378.826 119.934 378.889 119.944 378.95C119.953 379.012 119.974 379.071 120.006 379.124C120.039 379.178 120.081 379.224 120.132 379.261C120.182 379.297 120.239 379.323 120.3 379.338C120.36 379.352 120.423 379.354 120.485 379.344C120.546 379.333 120.605 379.311 120.657 379.278L125.72 376.215C125.801 376.166 125.865 376.095 125.905 376.01C125.944 375.925 125.957 375.83 125.942 375.738C125.928 375.645 125.885 375.559 125.821 375.491C125.757 375.423 125.673 375.376 125.582 375.355Z" fill="#E8EFF4"/>
<path fill-rule="evenodd" clip-rule="evenodd" d="M125.708 377.441C125.589 377.421 125.467 377.448 125.367 377.516L119.996 381.101C119.893 381.17 119.821 381.278 119.797 381.4C119.773 381.522 119.798 381.649 119.867 381.752C119.936 381.856 120.044 381.927 120.166 381.951C120.288 381.976 120.415 381.951 120.518 381.881L125.885 378.295C125.964 378.244 126.026 378.17 126.062 378.083C126.098 377.996 126.107 377.9 126.088 377.807C126.069 377.715 126.022 377.631 125.955 377.565C125.887 377.5 125.801 377.456 125.708 377.441Z" fill="#E8EFF4"/>
<path fill-rule="evenodd" clip-rule="evenodd" d="M125.852 379.53C125.731 379.512 125.608 379.542 125.509 379.613L120.422 383.097C120.369 383.131 120.323 383.175 120.288 383.227C120.253 383.279 120.228 383.337 120.216 383.399C120.203 383.46 120.204 383.524 120.216 383.585C120.229 383.647 120.254 383.705 120.289 383.757C120.325 383.809 120.371 383.853 120.423 383.886C120.476 383.92 120.536 383.943 120.598 383.953C120.659 383.964 120.723 383.962 120.784 383.947C120.845 383.932 120.903 383.906 120.953 383.869L126.037 380.383C126.116 380.331 126.177 380.257 126.212 380.169C126.247 380.082 126.255 379.986 126.235 379.894C126.215 379.802 126.168 379.718 126.1 379.653C126.031 379.588 125.945 379.545 125.852 379.53Z" fill="#E8EFF4"/>
<path fill-rule="evenodd" clip-rule="evenodd" d="M126.256 381.003C126.189 380.99 126.12 380.992 126.053 381.009C125.987 381.026 125.925 381.057 125.872 381.101L121.348 384.73C121.3 384.768 121.26 384.816 121.23 384.87C121.201 384.924 121.182 384.983 121.175 385.044C121.168 385.106 121.174 385.168 121.191 385.227C121.208 385.286 121.237 385.341 121.275 385.39C121.314 385.438 121.362 385.478 121.416 385.507C121.47 385.537 121.529 385.556 121.59 385.563C121.651 385.57 121.713 385.564 121.773 385.547C121.832 385.53 121.887 385.501 121.935 385.463L126.459 381.834C126.53 381.778 126.584 381.703 126.614 381.618C126.643 381.533 126.648 381.441 126.626 381.353C126.605 381.265 126.559 381.185 126.493 381.123C126.427 381.061 126.345 381.019 126.256 381.003Z" fill="#E8EFF4"/>
<path fill-rule="evenodd" clip-rule="evenodd" d="M126.662 383.073C126.595 383.062 126.526 383.065 126.46 383.082C126.394 383.1 126.333 383.132 126.281 383.176L122.601 386.167C122.553 386.205 122.513 386.253 122.483 386.308C122.453 386.362 122.435 386.422 122.428 386.483C122.422 386.545 122.427 386.607 122.445 386.666C122.462 386.726 122.492 386.781 122.531 386.829C122.57 386.877 122.618 386.917 122.673 386.946C122.727 386.975 122.787 386.994 122.849 387C122.91 387.006 122.973 386.999 123.032 386.981C123.091 386.963 123.146 386.933 123.194 386.894L126.869 383.902C126.94 383.846 126.993 383.77 127.022 383.685C127.051 383.6 127.055 383.508 127.033 383.421C127.011 383.333 126.964 383.254 126.899 383.193C126.833 383.131 126.751 383.09 126.662 383.073Z" fill="#E8EFF4"/>
<path fill-rule="evenodd" clip-rule="evenodd" d="M127.014 385.046C126.931 385.031 126.846 385.037 126.766 385.066C126.687 385.095 126.617 385.145 126.564 385.21L124.964 387.11C124.884 387.205 124.845 387.328 124.856 387.452C124.867 387.576 124.926 387.691 125.021 387.771C125.117 387.851 125.24 387.89 125.364 387.879C125.488 387.869 125.602 387.809 125.682 387.714L127.282 385.815C127.336 385.752 127.373 385.677 127.388 385.596C127.404 385.515 127.398 385.431 127.371 385.353C127.344 385.275 127.296 385.205 127.234 385.152C127.171 385.098 127.095 385.062 127.014 385.046Z" fill="#E8EFF4"/>
<path fill-rule="evenodd" clip-rule="evenodd" d="M132.917 349.305C132.798 349.279 132.674 349.299 132.57 349.363L126.807 352.723C126.753 352.753 126.705 352.794 126.667 352.843C126.628 352.892 126.6 352.949 126.584 353.009C126.568 353.069 126.563 353.131 126.572 353.193C126.58 353.255 126.6 353.314 126.631 353.368C126.663 353.422 126.705 353.469 126.754 353.506C126.804 353.544 126.861 353.571 126.921 353.586C126.981 353.601 127.044 353.605 127.106 353.595C127.167 353.586 127.226 353.565 127.28 353.532L133.039 350.172C133.122 350.126 133.189 350.056 133.231 349.971C133.274 349.886 133.289 349.79 133.276 349.697C133.263 349.603 133.222 349.515 133.158 349.445C133.094 349.375 133.01 349.327 132.917 349.305Z" fill="#E8EFF4"/>
<path fill-rule="evenodd" clip-rule="evenodd" d="M132.302 351.567C132.237 351.548 132.169 351.543 132.101 351.553C132.034 351.564 131.97 351.588 131.913 351.626L125.834 355.509C125.782 355.542 125.737 355.585 125.702 355.636C125.667 355.686 125.642 355.743 125.628 355.803C125.615 355.863 125.614 355.926 125.624 355.986C125.635 356.047 125.658 356.105 125.691 356.157C125.724 356.209 125.767 356.254 125.817 356.289C125.868 356.324 125.925 356.349 125.985 356.363C126.045 356.376 126.107 356.377 126.168 356.367C126.228 356.356 126.286 356.333 126.338 356.3L132.417 352.417C132.494 352.369 132.556 352.3 132.595 352.218C132.634 352.136 132.649 352.045 132.636 351.955C132.624 351.865 132.586 351.78 132.527 351.711C132.468 351.642 132.39 351.592 132.302 351.567Z" fill="#E8EFF4"/>
<path fill-rule="evenodd" clip-rule="evenodd" d="M131.632 354.117C131.514 354.088 131.389 354.106 131.283 354.167L126.135 357.019C126.076 357.046 126.024 357.085 125.981 357.133C125.939 357.181 125.906 357.237 125.886 357.299C125.866 357.36 125.859 357.424 125.865 357.488C125.871 357.552 125.89 357.615 125.921 357.671C125.952 357.727 125.994 357.777 126.045 357.816C126.096 357.855 126.155 357.883 126.217 357.899C126.28 357.915 126.344 357.918 126.408 357.907C126.471 357.897 126.532 357.873 126.586 357.838L131.735 354.986C131.818 354.942 131.887 354.873 131.931 354.79C131.975 354.706 131.993 354.611 131.982 354.517C131.971 354.422 131.932 354.334 131.869 354.262C131.807 354.191 131.724 354.141 131.632 354.117Z" fill="#E8EFF4"/>
<path fill-rule="evenodd" clip-rule="evenodd" d="M150.165 380.129C150.061 380.107 149.954 380.121 149.859 380.168L145.949 382.072C145.837 382.126 145.752 382.223 145.711 382.34C145.671 382.458 145.679 382.587 145.733 382.699C145.788 382.81 145.884 382.896 146.002 382.937C146.119 382.977 146.248 382.969 146.36 382.915L150.271 381.011C150.359 380.969 150.432 380.9 150.479 380.814C150.526 380.728 150.546 380.629 150.534 380.532C150.522 380.435 150.48 380.344 150.414 380.271C150.348 380.199 150.26 380.149 150.165 380.129Z" fill="#E8EFF4"/>
<path fill-rule="evenodd" clip-rule="evenodd" d="M150.439 381.738C150.32 381.711 150.196 381.732 150.092 381.796L145.029 384.859C144.975 384.89 144.928 384.932 144.891 384.982C144.853 385.031 144.826 385.088 144.811 385.149C144.795 385.209 144.792 385.272 144.801 385.333C144.81 385.395 144.832 385.454 144.864 385.507C144.896 385.561 144.939 385.607 144.989 385.643C145.04 385.68 145.097 385.706 145.157 385.72C145.218 385.735 145.281 385.737 145.342 385.727C145.404 385.716 145.462 385.694 145.515 385.661L150.578 382.597C150.658 382.549 150.723 382.478 150.762 382.393C150.802 382.308 150.815 382.213 150.8 382.121C150.785 382.028 150.743 381.942 150.679 381.874C150.614 381.806 150.531 381.759 150.439 381.738Z" fill="#E8EFF4"/>
<path fill-rule="evenodd" clip-rule="evenodd" d="M150.566 383.823C150.447 383.804 150.325 383.831 150.225 383.899L144.854 387.484C144.803 387.518 144.759 387.562 144.725 387.613C144.69 387.665 144.667 387.722 144.655 387.783C144.63 387.905 144.655 388.031 144.725 388.135C144.794 388.238 144.901 388.31 145.023 388.335C145.146 388.359 145.272 388.334 145.376 388.264L150.743 384.678C150.822 384.627 150.883 384.552 150.92 384.465C150.956 384.378 150.965 384.283 150.946 384.19C150.926 384.098 150.88 384.014 150.812 383.948C150.744 383.883 150.658 383.839 150.566 383.823Z" fill="#E8EFF4"/>
<path fill-rule="evenodd" clip-rule="evenodd" d="M150.709 385.913C150.589 385.895 150.466 385.925 150.367 385.996L145.279 389.48C145.226 389.514 145.181 389.558 145.146 389.61C145.11 389.662 145.086 389.72 145.073 389.782C145.061 389.843 145.061 389.907 145.074 389.968C145.086 390.03 145.111 390.088 145.147 390.14C145.183 390.192 145.228 390.236 145.281 390.269C145.334 390.303 145.393 390.326 145.455 390.336C145.517 390.347 145.581 390.344 145.642 390.33C145.703 390.315 145.76 390.289 145.811 390.251L150.895 386.766C150.973 386.714 151.034 386.639 151.07 386.552C151.105 386.465 151.113 386.369 151.093 386.277C151.073 386.185 151.026 386.101 150.957 386.036C150.889 385.971 150.802 385.928 150.709 385.913Z" fill="#E8EFF4"/>
<path fill-rule="evenodd" clip-rule="evenodd" d="M151.114 387.386C151.047 387.373 150.977 387.375 150.911 387.392C150.845 387.409 150.783 387.44 150.73 387.484L146.206 391.113C146.158 391.151 146.118 391.199 146.088 391.253C146.058 391.307 146.04 391.366 146.033 391.427C146.026 391.489 146.031 391.55 146.049 391.61C146.066 391.669 146.094 391.724 146.133 391.772C146.171 391.821 146.219 391.861 146.273 391.89C146.327 391.92 146.387 391.939 146.448 391.946C146.509 391.952 146.571 391.947 146.63 391.93C146.69 391.913 146.745 391.884 146.793 391.845L151.317 388.217C151.388 388.161 151.442 388.086 151.471 388.001C151.501 387.916 151.505 387.824 151.484 387.736C151.463 387.648 151.416 387.568 151.351 387.506C151.285 387.444 151.203 387.402 151.114 387.386Z" fill="#E8EFF4"/>
<path fill-rule="evenodd" clip-rule="evenodd" d="M151.52 389.456C151.453 389.444 151.384 389.448 151.318 389.465C151.252 389.483 151.191 389.515 151.138 389.559L147.459 392.55C147.411 392.588 147.37 392.636 147.341 392.691C147.311 392.745 147.292 392.804 147.286 392.866C147.279 392.928 147.285 392.99 147.302 393.049C147.32 393.109 147.349 393.164 147.388 393.212C147.428 393.26 147.476 393.3 147.53 393.329C147.585 393.358 147.645 393.376 147.706 393.382C147.768 393.388 147.83 393.382 147.889 393.364C147.949 393.346 148.004 393.316 148.051 393.276L151.727 390.284C151.798 390.228 151.85 390.153 151.879 390.068C151.908 389.983 151.912 389.891 151.89 389.804C151.869 389.716 151.822 389.637 151.756 389.575C151.691 389.514 151.609 389.472 151.52 389.456Z" fill="#E8EFF4"/>
<path fill-rule="evenodd" clip-rule="evenodd" d="M151.872 391.429C151.789 391.414 151.703 391.42 151.624 391.449C151.545 391.478 151.475 391.528 151.421 391.593L149.822 393.493C149.782 393.54 149.752 393.595 149.734 393.653C149.715 393.712 149.708 393.774 149.713 393.835C149.724 393.959 149.784 394.074 149.879 394.154C149.974 394.234 150.097 394.273 150.221 394.262C150.345 394.252 150.46 394.192 150.54 394.097L152.139 392.198C152.194 392.135 152.23 392.06 152.246 391.979C152.262 391.898 152.256 391.814 152.228 391.736C152.201 391.658 152.154 391.588 152.091 391.535C152.029 391.481 151.953 391.444 151.872 391.429Z" fill="#E8EFF4"/>
<path fill-rule="evenodd" clip-rule="evenodd" d="M82.3588 17.7459C80.005 16.3032 77.5331 15.051 74.9717 14.0472C71.8782 12.8336 68.4366 11.7594 64.9234 12.0204C62.1188 12.2289 59.4823 13.4059 57.2073 14.8157C54.8564 16.2724 52.7092 18.2203 51.1635 20.5682C48.9744 23.8909 47.2458 27.8145 46.9861 31.9065C46.5801 38.305 47.6922 45.368 51.3858 50.7912C54.1471 54.8456 58.723 57.5443 63.2598 58.9893C68.6746 60.7141 74.8675 60.9663 80.3337 59.2234C85.0769 57.7109 89.1164 54.3064 92.1935 50.5724C94.6819 47.5528 96.6757 43.8205 97.2185 39.8412C97.6579 36.6196 96.9691 33.2508 95.6212 30.3655C94.1356 27.1863 91.5358 24.7361 89.0281 22.5992C86.9446 20.8238 84.7124 19.1891 82.3588 17.7459ZM81.3122 19.4503C83.5721 20.8369 85.7229 22.411 87.7307 24.1218C90.1773 26.2068 92.539 28.4938 93.809 31.2115C95.0128 33.7886 95.6119 36.8186 95.2365 39.5707C94.7606 43.0594 92.9546 46.5059 90.6495 49.3032C87.7421 52.8312 83.9464 55.9739 79.724 57.3204C74.7319 58.9122 68.9109 58.692 63.866 57.0852C59.6509 55.7426 55.4461 53.204 53.0369 49.6667C49.6973 44.7633 48.5955 38.1048 48.9806 32.0343C49.2096 28.427 50.7808 24.7877 52.8358 21.6685C54.1913 19.6095 56.1272 17.8382 58.2615 16.5157C60.3674 15.2106 62.7372 14.1903 65.0723 14.0165C68.0772 13.7934 71.2497 14.7352 74.2408 15.9086C76.6837 16.8671 79.0518 18.0645 81.3122 19.4503Z" fill="#E8EFF4"/>
<path fill-rule="evenodd" clip-rule="evenodd" d="M58.3444 14.9996C58.1681 14.9076 57.9683 14.8702 57.7706 14.8923C57.5729 14.9144 57.3864 14.9947 57.2347 15.1234C57.083 15.252 56.9731 15.4231 56.919 15.6145C56.865 15.8059 56.8692 16.0091 56.9312 16.1981C56.9312 16.1981 57.3056 17.3967 57.8675 18.8336C58.4296 20.2703 59.1424 21.9355 60.018 23.0691C63.728 27.871 68.9207 31.3 73.9986 34.2748C84.7406 40.5685 95.6895 41.0205 95.6895 41.0205C95.8226 41.0294 95.9562 41.0116 96.0823 40.9681C96.2085 40.9246 96.3246 40.8564 96.424 40.7674C96.5234 40.6783 96.6039 40.5703 96.6609 40.4496C96.7178 40.3289 96.75 40.1981 96.7557 40.0648C96.7613 39.9315 96.7402 39.7983 96.6936 39.6732C96.647 39.5482 96.5758 39.4338 96.4843 39.3367C96.3928 39.2396 96.2828 39.1618 96.1607 39.1079C96.0387 39.054 95.9071 39.0249 95.7737 39.0226C95.7737 39.0226 85.2755 38.5632 75.0083 32.5483C69.9991 29.6131 65.0389 26.2945 61.6013 21.8448C61.014 21.0849 60.267 19.4729 59.7322 18.1054C59.1973 16.738 58.8403 15.6012 58.8403 15.6012C58.8021 15.4728 58.7385 15.3534 58.6533 15.2501C58.5681 15.1468 58.4631 15.0616 58.3444 14.9996Z" fill="#E8EFF4"/>
<path fill-rule="evenodd" clip-rule="evenodd" d="M94.1996 44.7446C93.9718 44.6203 93.7046 44.5895 93.4545 44.6585C93.4545 44.6585 92.8325 44.8201 92.0515 44.9801C91.2704 45.1403 90.3044 45.2885 89.8285 45.2801C87.0218 45.2307 84.1711 44.548 81.4628 43.5677C79.1485 42.7304 74.3876 39.7507 74.3876 39.7507C74.2768 39.6801 74.1532 39.632 74.0237 39.6093C73.8943 39.5865 73.7616 39.5896 73.6333 39.6181C73.505 39.6467 73.3836 39.7002 73.276 39.7757C73.1684 39.8512 73.0768 39.947 73.0063 40.0579C72.9358 40.1688 72.8878 40.2926 72.8651 40.422C72.8424 40.5515 72.8455 40.684 72.8741 40.8123C72.9027 40.9406 72.9563 41.0619 73.0318 41.1695C73.1073 41.277 73.2033 41.3686 73.3142 41.4391C73.3142 41.4391 77.9197 44.4147 80.7828 45.4505C83.6335 46.4823 86.6887 47.2253 89.7932 47.2798C90.6336 47.2945 91.6138 47.1162 92.4516 46.9444C93.2894 46.7726 93.9565 46.597 93.9565 46.597C94.1524 46.549 94.3292 46.443 94.4637 46.2927C94.5982 46.1424 94.684 45.9551 94.7101 45.7551C94.7362 45.5551 94.7012 45.3519 94.6097 45.1722C94.5183 44.9925 94.3746 44.8445 94.1976 44.7479L94.1996 44.7446Z" fill="#E8EFF4"/>
<path fill-rule="evenodd" clip-rule="evenodd" d="M89.0634 51.7499C88.926 51.6733 88.7724 51.6302 88.6152 51.6241C88.6152 51.6241 82.7586 51.2459 80.231 50.5743C78.5369 50.1242 74.8215 48.3178 74.8215 48.3178C74.5837 48.1997 74.3088 48.1808 74.0572 48.2655C73.8055 48.3501 73.5977 48.5314 73.4796 48.7692C73.3615 49.007 73.3428 49.282 73.4274 49.5337C73.5121 49.7853 73.6933 49.993 73.9311 50.1111C73.9311 50.1111 77.5048 51.9185 79.7173 52.5065C82.7634 53.3156 88.4995 53.6213 88.4995 53.6213C88.7268 53.6387 88.9531 53.5781 89.1411 53.4492C89.3291 53.3203 89.4676 53.1308 89.5333 52.9125C89.5991 52.6943 89.5883 52.4601 89.5027 52.2488C89.4172 52.0375 89.2625 51.861 89.0634 51.7499Z" fill="#E8EFF4"/>
<path fill-rule="evenodd" clip-rule="evenodd" d="M80.62 21.7036C79.0323 20.7774 76.9945 19.6029 74.9856 18.5979C72.9758 17.5917 71.0335 16.7455 69.4276 16.4756C66.3676 15.9618 64.0725 17.0735 64.0725 17.0735C63.9535 17.1317 63.8473 17.2131 63.76 17.3128C63.6728 17.4124 63.6062 17.5283 63.5641 17.6539C63.5221 17.7795 63.5054 17.912 63.5151 18.0441C63.5247 18.1762 63.5604 18.3052 63.6202 18.4233C63.6202 18.4233 66.0029 23.2106 69.1071 26.0833C72.1514 28.9011 77.8718 32.3623 81.8113 33.7533C85.8301 35.1729 91.3147 35.0625 91.3147 35.0625C91.473 35.0602 91.6284 35.0206 91.7683 34.9466C91.9082 34.8725 92.0286 34.7662 92.1194 34.6366C92.2103 34.5069 92.269 34.3577 92.2909 34.2009C92.3128 34.0441 92.2972 33.8843 92.2453 33.7347C92.2453 33.7347 91.027 30.0265 88.9795 27.7035C86.9898 25.4462 83.7877 23.5596 80.6238 21.705L80.62 21.7036ZM79.6103 23.4301C82.7622 25.2778 85.8399 27.1791 87.4778 29.0274C88.6424 30.3486 89.1507 31.8774 89.6018 32.9875C87.8685 32.9274 84.9771 32.7508 82.479 31.8683C78.976 30.6309 73.173 27.1207 70.4667 24.6167C68.4399 22.7409 66.8976 20.1305 66.1232 18.7513C66.7556 18.5321 67.3352 18.1528 69.0945 18.4483C70.245 18.6416 72.1498 19.4181 74.0881 20.3879C76.0262 21.3582 78.038 22.5085 79.6103 23.4301Z" fill="#E8EFF4"/>
<path fill-rule="evenodd" clip-rule="evenodd" d="M76.8215 9.47764L74.8794 9.00345L70.6702 26.1487L72.6123 26.6229L76.8215 9.47764Z" fill="#E8EFF4"/>
<path fill-rule="evenodd" clip-rule="evenodd" d="M102.203 19.0945C102.095 19.0341 101.976 18.9942 101.854 18.9769L92.7947 17.5644C92.6266 17.5384 92.4546 17.5558 92.295 17.6148C92.1354 17.6739 91.9935 17.7728 91.8828 17.902L80.1728 31.5081C80.0872 31.6078 80.022 31.7234 79.981 31.8483C79.9401 31.9732 79.9241 32.105 79.934 32.2361C79.9541 32.5008 80.0786 32.7465 80.28 32.9195C80.3797 33.0051 80.4953 33.0703 80.6202 33.1112C80.7451 33.1522 80.8768 33.1682 81.0079 33.1582C81.2725 33.1381 81.5184 33.0136 81.6913 32.8122L93.0369 19.6254L101.545 20.9543C101.778 20.9952 102.018 20.9521 102.223 20.8328C102.427 20.7134 102.582 20.5255 102.661 20.3024C102.74 20.0794 102.737 19.8356 102.653 19.6144C102.569 19.3932 102.409 19.2091 102.203 19.0945Z" fill="#E8EFF4"/>
<path fill-rule="evenodd" clip-rule="evenodd" d="M78.1721 2.9802C78.0482 2.91229 77.9114 2.87143 77.7707 2.86019C77.6299 2.84895 77.4883 2.86765 77.3553 2.91505L67.8527 6.26222C67.6538 6.33292 67.4824 6.46463 67.363 6.63871C67.2436 6.81279 67.1823 7.02023 67.1879 7.23125C67.1936 7.44228 67.2658 7.64614 67.3944 7.81358C67.5229 7.98102 67.7012 8.10341 67.9036 8.16337L83.6989 12.8033C83.9024 12.8629 84.1195 12.8565 84.319 12.7847C84.5185 12.7128 84.69 12.5794 84.8088 12.4037C84.9275 12.228 84.9873 12.0191 84.9796 11.8072C84.9719 11.5953 84.897 11.3913 84.7658 11.2248L78.4732 3.23768C78.3909 3.13273 78.2886 3.04496 78.1721 2.9802ZM77.3477 5.03591L81.2564 9.99985L71.4426 7.11656L77.3477 5.03591Z" fill="#E8EFF4"/>
<path fill-rule="evenodd" clip-rule="evenodd" d="M78.8515 0.360049C78.7138 0.284873 78.5603 0.24312 78.4034 0.23827C78.2466 0.233421 78.0907 0.26557 77.9486 0.332093C77.8065 0.398615 77.6819 0.497689 77.5852 0.62124C77.4884 0.744792 77.422 0.889408 77.3915 1.04335L76.8578 3.51868C76.8276 3.64797 76.8233 3.78197 76.8454 3.9129C76.8674 4.04384 76.9153 4.16913 76.9863 4.28136C77.0573 4.39358 77.1499 4.49054 77.2587 4.5666C77.3676 4.64266 77.4904 4.69629 77.6202 4.72435C77.75 4.75241 77.8841 4.75437 78.0146 4.73007C78.1451 4.70576 78.2695 4.65569 78.3805 4.5828C78.4915 4.50991 78.5869 4.41565 78.6611 4.30551C78.7352 4.19538 78.7868 4.07152 78.8126 3.94127L79.3463 1.46594C79.3961 1.25287 79.3748 1.02924 79.2854 0.829485C79.1961 0.629728 79.0436 0.464872 78.8515 0.360049Z" fill="#E8EFF4"/>
<path fill-rule="evenodd" clip-rule="evenodd" d="M57.3649 23.8218C57.2799 23.7792 57.1845 23.7619 57.0899 23.7717L49.9501 24.34C49.8845 24.3453 49.8206 24.3633 49.762 24.3933C49.7034 24.4233 49.6513 24.4645 49.6086 24.5147C49.5659 24.5648 49.5336 24.6229 49.5133 24.6855C49.4931 24.7482 49.4853 24.8143 49.4906 24.8799C49.4959 24.9455 49.5141 25.0094 49.5441 25.0681C49.5741 25.1267 49.6153 25.1788 49.6655 25.2214C49.7156 25.2641 49.7736 25.2965 49.8363 25.3168C49.8989 25.337 49.965 25.3447 50.0306 25.3394L57.1691 24.7657C57.2781 24.7584 57.3818 24.7156 57.4642 24.6438C57.5467 24.5721 57.6033 24.4752 57.6255 24.3682C57.6477 24.2612 57.6341 24.15 57.587 24.0513C57.5399 23.9527 57.4621 23.8718 57.3649 23.8218Z" fill="#E8EFF4"/>
<path fill-rule="evenodd" clip-rule="evenodd" d="M57.8795 26.7058C57.7925 26.6669 57.696 26.6538 57.6017 26.6679L49.2359 27.7413C49.1681 27.7462 49.102 27.7648 49.0417 27.7961C48.9813 27.8274 48.9279 27.8708 48.8849 27.9234C48.8418 27.976 48.81 28.0367 48.7913 28.1021C48.7725 28.1675 48.7673 28.236 48.7759 28.3034C48.7846 28.3709 48.8068 28.436 48.8414 28.4945C48.876 28.553 48.9222 28.6039 48.9771 28.6439C49.0321 28.684 49.0945 28.7125 49.1608 28.7276C49.2271 28.7427 49.2959 28.7441 49.3627 28.7317L57.7284 27.6586C57.8371 27.6462 57.9388 27.5986 58.0178 27.523C58.0968 27.4473 58.1489 27.3478 58.166 27.2398C58.1831 27.1318 58.1643 27.0211 58.1125 26.9247C58.0607 26.8284 57.9791 26.751 57.8795 26.7058Z" fill="#E8EFF4"/>
<path fill-rule="evenodd" clip-rule="evenodd" d="M59.227 29.6736C59.1273 29.6207 59.0127 29.6031 58.9018 29.6236L48.4604 31.4126C48.3947 31.4226 48.3316 31.4458 48.2749 31.4806C48.2182 31.5153 48.1689 31.561 48.1301 31.615C48.0913 31.669 48.0637 31.73 48.0488 31.7948C48.0339 31.8596 48.032 31.9269 48.0434 31.9924C48.0548 32.0579 48.0791 32.1206 48.1149 32.1766C48.1508 32.2326 48.1975 32.2807 48.2523 32.3185C48.307 32.3562 48.3687 32.3827 48.4338 32.3963C48.4989 32.4099 48.566 32.4104 48.6313 32.3978L59.0722 30.6097C59.1759 30.5932 59.2717 30.5445 59.3461 30.4705C59.4206 30.3965 59.4698 30.301 59.4869 30.1974C59.5041 30.0939 59.4882 29.9875 59.4415 29.8935C59.3949 29.7995 59.3198 29.7225 59.227 29.6736Z" fill="#E8EFF4"/>
<path fill-rule="evenodd" clip-rule="evenodd" d="M59.5648 33.0661C59.4642 33.014 59.3489 32.9975 59.2377 33.0195L48.3878 34.9738C48.3215 34.9835 48.2579 35.0063 48.2007 35.0411C48.1434 35.0759 48.0936 35.122 48.0545 35.1764C48.0153 35.2308 47.9876 35.2923 47.9727 35.3577C47.9579 35.423 47.9563 35.4906 47.9681 35.5566C47.9799 35.6226 48.0048 35.6857 48.0414 35.7418C48.078 35.7979 48.1256 35.846 48.1812 35.8834C48.2368 35.9208 48.2993 35.9468 48.365 35.9595C48.4308 35.9723 48.4986 35.9716 48.5641 35.9577L59.414 34.0034C59.518 33.9869 59.6143 33.9378 59.6889 33.8634C59.7635 33.789 59.8127 33.693 59.8294 33.589C59.8462 33.485 59.8297 33.3784 59.7823 33.2843C59.7349 33.1903 59.6584 33.1145 59.5648 33.0661Z" fill="#E8EFF4"/>
<path fill-rule="evenodd" clip-rule="evenodd" d="M60.2013 36.3324C60.1024 36.277 59.9877 36.2568 59.8759 36.2752L48.209 38.0507C48.0777 38.0705 47.9596 38.1417 47.8807 38.2486C47.8019 38.3555 47.7688 38.4892 47.7886 38.6205C47.8085 38.7519 47.8795 38.8702 47.9864 38.9491C48.0933 39.0279 48.2273 39.0609 48.3587 39.0411L60.0254 37.2658C60.1295 37.2517 60.2264 37.2052 60.3026 37.1329C60.3788 37.0605 60.4303 36.9659 60.4497 36.8627C60.4691 36.7595 60.4556 36.6527 60.4109 36.5576C60.3663 36.4625 60.2931 36.3834 60.2013 36.3324Z" fill="#E8EFF4"/>
<path fill-rule="evenodd" clip-rule="evenodd" d="M60.4237 40.0702C60.3388 40.0256 60.243 40.0062 60.1475 40.0146L48.7025 40.8939C48.637 40.8989 48.5732 40.9167 48.5146 40.9465C48.4561 40.9762 48.4039 41.0173 48.3611 41.0672C48.3184 41.1171 48.2859 41.1749 48.2655 41.2373C48.2452 41.2998 48.2373 41.3656 48.2423 41.4311C48.2474 41.4966 48.2653 41.5605 48.295 41.6191C48.3248 41.6776 48.3659 41.7296 48.4158 41.7723C48.4657 41.8151 48.5234 41.8477 48.5858 41.8681C48.6483 41.8885 48.7142 41.8963 48.7797 41.8913L60.2246 41.0119C60.3332 41.0046 60.4365 40.962 60.5188 40.8906C60.601 40.8192 60.6576 40.723 60.6802 40.6165C60.7027 40.5099 60.6898 40.3989 60.6435 40.3004C60.5972 40.2018 60.5201 40.1209 60.4237 40.0702Z" fill="#E8EFF4"/>
<path fill-rule="evenodd" clip-rule="evenodd" d="M61.8206 42.9629C61.724 42.9039 61.6103 42.8794 61.498 42.8935L50.586 44.0918C50.4541 44.1064 50.3335 44.1727 50.2507 44.2764C50.1678 44.38 50.1295 44.5123 50.1441 44.6442C50.1588 44.7761 50.2252 44.8968 50.3289 44.9797C50.4325 45.0626 50.5648 45.1009 50.6967 45.0862L61.6085 43.8883C61.713 43.8782 61.8116 43.8355 61.8904 43.7662C61.9692 43.6969 62.0243 43.6044 62.0477 43.5021C62.0711 43.3998 62.0618 43.2927 62.021 43.196C61.9802 43.0993 61.9102 43.0175 61.8206 42.9629Z" fill="#E8EFF4"/>
<path fill-rule="evenodd" clip-rule="evenodd" d="M63.1513 45.9207C63.0547 45.8617 62.941 45.8372 62.8287 45.8513L51.1262 46.9862C51.0601 46.9915 50.9956 47.0099 50.9367 47.0404C50.8777 47.0708 50.8255 47.1126 50.7829 47.1635C50.7403 47.2143 50.7082 47.2732 50.6886 47.3366C50.669 47.4 50.6621 47.4668 50.6685 47.5329C50.675 47.5989 50.6945 47.6629 50.726 47.7214C50.7574 47.7798 50.8001 47.8316 50.8517 47.8734C50.9033 47.9151 50.9628 47.946 51.0265 47.9646C51.0902 47.9831 51.157 47.9888 51.2229 47.9813L62.9273 46.8433C63.0319 46.8346 63.1313 46.7931 63.2111 46.7248C63.2909 46.6565 63.3471 46.5649 63.3719 46.4628C63.3967 46.3608 63.3887 46.2535 63.3491 46.1562C63.3095 46.0589 63.2403 45.9764 63.1513 45.9207Z" fill="#E8EFF4"/>
<path fill-rule="evenodd" clip-rule="evenodd" d="M64.3456 49.1065C64.2362 49.0348 64.1032 49.0087 63.9748 49.0339L53.9286 50.8546C53.8623 50.8643 53.7987 50.8871 53.7414 50.9219C53.6841 50.9567 53.6344 51.0028 53.5952 51.0572C53.556 51.1116 53.5283 51.1731 53.5134 51.2384C53.4986 51.3038 53.497 51.3714 53.5089 51.4374C53.5207 51.5034 53.5455 51.5665 53.5821 51.6226C53.6187 51.6787 53.6663 51.7268 53.7219 51.7642C53.7775 51.8016 53.84 51.8276 53.9058 51.8403C53.9716 51.8531 54.0393 51.8524 54.1048 51.8385L64.1543 50.02C64.2542 50.0039 64.347 49.9578 64.4202 49.888C64.4935 49.8181 64.5437 49.7279 64.5644 49.6289C64.5852 49.5298 64.5755 49.4267 64.5365 49.3334C64.4975 49.24 64.4306 49.1614 64.3456 49.1065Z" fill="#E8EFF4"/>
<path fill-rule="evenodd" clip-rule="evenodd" d="M65.8864 52.8089C65.7714 52.7484 65.6374 52.7351 65.5127 52.7717L57.6187 54.9511C57.5554 54.9686 57.4961 54.9982 57.4443 55.0386C57.3925 55.0789 57.3491 55.129 57.3167 55.1861C57.2842 55.2432 57.2633 55.3061 57.2552 55.3712C57.2471 55.4364 57.2518 55.5026 57.2692 55.566C57.2866 55.6293 57.3164 55.6885 57.3567 55.7403C57.397 55.7921 57.4473 55.8354 57.5043 55.8679C57.5614 55.9003 57.6243 55.9212 57.6895 55.9294C57.7547 55.9375 57.8207 55.9329 57.884 55.9154L65.778 53.736C65.876 53.711 65.9641 53.6569 66.0307 53.5808C66.0973 53.5046 66.1392 53.4101 66.151 53.3096C66.1627 53.2092 66.1437 53.1076 66.0965 53.0182C66.0493 52.9288 65.976 52.8559 65.8864 52.8089Z" fill="#E8EFF4"/>
<path fill-rule="evenodd" clip-rule="evenodd" d="M44.9954 140.232C42.4905 138.84 39.3978 139.238 36.9036 139.944C34.3612 140.663 31.8107 142.125 30.2116 144.352C28.1806 147.181 26.6627 151.078 27.5834 154.657L27.5803 154.656C28.6628 158.866 32.243 162.734 36.4245 164.003C40.3052 165.181 44.9368 163.928 47.9951 161.382C50.8347 159.018 52.6494 155.028 52.3169 151.311C51.9165 146.831 48.9097 142.407 44.9954 140.232ZM44.1745 141.706C47.5421 143.578 50.2937 147.651 50.6342 151.46C50.9063 154.501 49.2898 158.109 46.9141 160.086C44.308 162.256 40.0926 163.351 36.9142 162.387C33.4143 161.324 30.1301 157.797 29.2155 154.239C28.4875 151.409 29.7538 147.882 31.5801 145.338C32.8798 143.528 35.1179 142.207 37.3613 141.572C39.6468 140.925 42.3347 140.687 44.1735 141.709L44.1745 141.706Z" fill="#E8EFF4"/>
<path fill-rule="evenodd" clip-rule="evenodd" d="M33.2471 150.857C33.1208 150.818 32.987 150.809 32.8564 150.83C32.7259 150.852 32.6023 150.904 32.4957 150.983C32.389 151.061 32.3022 151.163 32.2424 151.281C32.1826 151.399 32.1514 151.53 32.1512 151.662C32.122 153.347 32.8755 154.97 33.8876 156.25C34.8702 157.494 36.2661 158.842 38.1062 159.155C40.8932 159.629 44.0315 158.766 45.9582 156.826C46.1159 156.667 46.204 156.453 46.2032 156.229C46.2024 156.005 46.1128 155.791 45.954 155.633C45.7952 155.475 45.5802 155.387 45.3564 155.388C45.1326 155.389 44.9183 155.478 44.7605 155.637C43.3328 157.075 40.6034 157.869 38.3889 157.492C37.246 157.298 36.0651 156.282 35.213 155.204C34.388 154.16 33.8187 152.829 33.8384 151.692C33.8448 151.507 33.7903 151.326 33.6835 151.175C33.5767 151.024 33.4234 150.913 33.2471 150.857Z" fill="#E8EFF4"/>
<path fill-rule="evenodd" clip-rule="evenodd" d="M45.4112 148.653C45.7151 148.716 45.9985 148.98 46.108 149.271C46.2101 149.541 46.166 149.894 46.0007 150.131C45.8709 150.317 45.623 150.423 45.3975 150.443C45.0007 150.48 44.4747 150.428 44.2534 150.096C44.0472 149.788 44.1297 149.277 44.3629 148.988C44.5932 148.703 45.0522 148.577 45.4112 148.653Z" fill="#E8EFF4"/>
<path fill-rule="evenodd" clip-rule="evenodd" d="M36.9997 147.831C37.2783 147.968 37.6639 147.935 37.929 147.773C38.1758 147.623 38.3582 147.317 38.3739 147.029C38.3856 146.802 38.2553 146.566 38.0902 146.411C37.7999 146.139 37.3534 145.856 36.9747 145.981C36.6224 146.098 36.3733 146.551 36.3795 146.922C36.3854 147.289 36.67 147.67 36.9997 147.831Z" fill="#E8EFF4"/>
<path fill-rule="evenodd" clip-rule="evenodd" d="M47.5548 129.59C47.3403 129.527 47.1097 129.552 46.9134 129.658C46.7172 129.765 46.5714 129.946 46.5081 130.16L44.9595 135.148C44.926 135.254 44.9137 135.366 44.9234 135.477C44.9331 135.587 44.9645 135.695 45.0159 135.794C45.0673 135.892 45.1378 135.979 45.2231 136.051C45.3084 136.122 45.4069 136.176 45.513 136.209C45.6191 136.242 45.7307 136.254 45.8414 136.244C45.9521 136.233 46.0596 136.202 46.158 136.15C46.2563 136.098 46.3434 136.027 46.4143 135.942C46.4852 135.856 46.5385 135.757 46.5712 135.651L48.1197 130.663C48.155 130.555 48.1682 130.442 48.1587 130.329C48.1492 130.217 48.1172 130.107 48.0644 130.007C48.0117 129.907 47.9394 129.818 47.8519 129.747C47.7643 129.675 47.6634 129.621 47.5548 129.59Z" fill="#E8EFF4"/>
<path fill-rule="evenodd" clip-rule="evenodd" d="M34.3933 168.003C34.1785 167.941 33.9479 167.967 33.7521 168.074C33.5562 168.182 33.4111 168.363 33.3486 168.578L31.9544 173.117C31.9213 173.223 31.9096 173.335 31.9197 173.446C31.9299 173.556 31.9618 173.664 32.0137 173.762C32.0655 173.86 32.1362 173.947 32.2218 174.018C32.3074 174.089 32.406 174.143 32.5123 174.175C32.6185 174.208 32.7301 174.219 32.8407 174.209C32.9513 174.198 33.0588 174.166 33.1569 174.114C33.255 174.061 33.3418 173.99 33.4124 173.905C33.483 173.819 33.5359 173.72 33.5682 173.614L34.9624 169.074C34.9972 168.966 35.0101 168.853 35.0001 168.74C34.9902 168.628 34.9577 168.518 34.9046 168.418C34.8515 168.318 34.7789 168.23 34.691 168.159C34.6031 168.088 34.502 168.034 34.3933 168.003Z" fill="#E8EFF4"/>
<path fill-rule="evenodd" clip-rule="evenodd" d="M61.8208 158.376C61.8023 158.369 61.7836 158.362 61.7647 158.356L56.7763 156.808C56.6687 156.768 56.5542 156.751 56.4396 156.757C56.325 156.763 56.2128 156.792 56.1099 156.843C56.007 156.893 55.9156 156.964 55.8411 157.052C55.7667 157.139 55.7108 157.24 55.6769 157.35C55.643 157.46 55.6317 157.575 55.6439 157.689C55.6561 157.803 55.6914 157.914 55.7477 158.014C55.804 158.113 55.8801 158.201 55.9713 158.27C56.0626 158.34 56.167 158.39 56.2783 158.418L61.2667 159.966C61.4771 160.036 61.7067 160.021 61.9058 159.923C62.1048 159.825 62.2573 159.653 62.3303 159.443C62.4032 159.234 62.3908 159.004 62.2956 158.804C62.2005 158.603 62.0303 158.448 61.8218 158.373L61.8208 158.376Z" fill="#E8EFF4"/>
<path fill-rule="evenodd" clip-rule="evenodd" d="M23.4033 145.216C23.3848 145.209 23.3661 145.203 23.3472 145.197L18.8076 143.803C18.6999 143.764 18.5853 143.747 18.4708 143.753C18.3563 143.76 18.2443 143.789 18.1416 143.84C18.039 143.892 17.9479 143.963 17.8738 144.05C17.7997 144.138 17.7442 144.24 17.7107 144.349C17.6773 144.459 17.6665 144.574 17.6791 144.688C17.6918 144.802 17.7274 144.913 17.7841 145.013C17.8407 145.112 17.9171 145.199 18.0085 145.269C18.0999 145.338 18.2045 145.388 18.3159 145.415L22.8555 146.809C23.0661 146.878 23.2956 146.862 23.4941 146.763C23.6927 146.664 23.8444 146.491 23.9166 146.282C23.9887 146.072 23.9754 145.842 23.8795 145.642C23.7837 145.442 23.613 145.288 23.4044 145.213L23.4033 145.216Z" fill="#E8EFF4"/>
<path fill-rule="evenodd" clip-rule="evenodd" d="M60.6866 141.053C60.5722 141.009 60.4495 140.99 60.327 140.998C60.2045 141.006 60.0852 141.04 59.9774 141.099L55.3544 143.534C55.2512 143.583 55.1589 143.652 55.083 143.737C55.0072 143.822 54.9493 143.922 54.9132 144.03C54.877 144.139 54.8631 144.253 54.8724 144.367C54.8817 144.48 54.914 144.591 54.9673 144.692C55.0205 144.793 55.0937 144.882 55.1824 144.954C55.2711 145.026 55.3735 145.079 55.4832 145.11C55.593 145.141 55.708 145.149 55.8212 145.135C55.9344 145.12 56.0434 145.083 56.1417 145.025L60.7636 142.593C60.909 142.519 61.0298 142.405 61.1116 142.264C61.1934 142.123 61.2326 141.961 61.2244 141.798C61.2163 141.635 61.1612 141.478 61.0657 141.346C60.9703 141.214 60.8386 141.112 60.6866 141.053Z" fill="#E8EFF4"/>
<path fill-rule="evenodd" clip-rule="evenodd" d="M24.2167 158.912C24.1019 158.867 23.9789 158.849 23.8562 158.857C23.7335 158.866 23.6141 158.901 23.5064 158.96L19.3118 161.184C19.2138 161.236 19.1271 161.306 19.0564 161.392C18.9858 161.477 18.9327 161.576 18.9001 161.682C18.8675 161.788 18.8561 161.899 18.8666 162.009C18.8771 162.12 18.9092 162.227 18.9611 162.325C19.013 162.423 19.0836 162.51 19.1691 162.58C19.2545 162.651 19.353 162.704 19.459 162.737C19.5649 162.769 19.6763 162.781 19.7866 162.77C19.897 162.76 20.0042 162.728 20.1022 162.676L24.2968 160.452C24.4423 160.378 24.5633 160.263 24.645 160.122C24.7267 159.981 24.7657 159.819 24.7572 159.656C24.7488 159.493 24.6932 159.336 24.5972 159.203C24.5013 159.071 24.3691 158.97 24.2167 158.912Z" fill="#E8EFF4"/>
<path fill-rule="evenodd" clip-rule="evenodd" d="M30.2406 130.741C30.0802 130.691 29.9085 130.69 29.7476 130.738C29.5866 130.786 29.4438 130.881 29.3373 131.011C29.2308 131.141 29.1655 131.3 29.1499 131.468C29.1342 131.635 29.1688 131.803 29.2493 131.951L31.6816 136.572C31.7332 136.671 31.8037 136.757 31.8889 136.828C31.9741 136.899 32.0724 136.953 32.1783 136.986C32.2842 137.018 32.3955 137.03 32.5059 137.02C32.6163 137.01 32.7236 136.978 32.8217 136.926C32.9197 136.875 33.0067 136.804 33.0776 136.719C33.1485 136.634 33.2018 136.535 33.2346 136.43C33.2675 136.324 33.2792 136.212 33.269 136.102C33.2588 135.992 33.2271 135.884 33.1754 135.786L30.7431 131.164C30.692 131.064 30.6211 130.974 30.5348 130.901C30.4485 130.829 30.3484 130.774 30.2406 130.741Z" fill="#E8EFF4"/>
<path fill-rule="evenodd" clip-rule="evenodd" d="M48.0968 167.206C47.9364 167.157 47.765 167.157 47.6045 167.206C47.4439 167.254 47.3015 167.35 47.1955 167.48C47.0894 167.61 47.0245 167.768 47.009 167.935C46.9935 168.102 47.0282 168.27 47.1086 168.417L49.3344 172.616C49.3833 172.719 49.4526 172.811 49.5381 172.887C49.6236 172.962 49.7234 173.02 49.8317 173.056C49.9399 173.091 50.0544 173.105 50.168 173.095C50.2817 173.086 50.3922 173.053 50.4929 172.999C50.5936 172.946 50.6824 172.873 50.754 172.784C50.8255 172.695 50.8783 172.593 50.9092 172.483C50.94 172.373 50.9483 172.258 50.9335 172.145C50.9187 172.032 50.8812 171.923 50.8231 171.825L48.5993 167.63C48.5482 167.529 48.4774 167.44 48.391 167.367C48.3047 167.294 48.2047 167.24 48.0968 167.206Z" fill="#E8EFF4"/>
<path fill-rule="evenodd" clip-rule="evenodd" d="M35.4307 143.446C35.3536 143.423 35.2715 143.422 35.1941 143.444L30.4636 144.703C30.4099 144.717 30.3596 144.742 30.3155 144.776C30.2714 144.809 30.2343 144.852 30.2064 144.9C30.1786 144.948 30.1605 145.001 30.1531 145.056C30.1457 145.111 30.1493 145.167 30.1636 145.22C30.1779 145.274 30.2026 145.324 30.2363 145.368C30.27 145.413 30.3121 145.45 30.3601 145.477C30.4082 145.505 30.4612 145.523 30.5163 145.531C30.5713 145.538 30.6273 145.535 30.6809 145.52L35.4094 144.257C35.4985 144.235 35.5777 144.184 35.6351 144.112C35.6925 144.04 35.7248 143.951 35.7272 143.86C35.7296 143.768 35.7019 143.678 35.6484 143.603C35.5949 143.528 35.5185 143.473 35.4307 143.446Z" fill="#E8EFF4"/>
<path fill-rule="evenodd" clip-rule="evenodd" d="M33.9666 145.696C33.8766 145.664 33.7785 145.663 33.6882 145.694L29.0126 147.209C28.9059 147.244 28.8174 147.319 28.7664 147.419C28.7154 147.519 28.7061 147.634 28.7406 147.741C28.7751 147.848 28.8506 147.936 28.9504 147.987C29.0501 148.038 29.1661 148.048 29.2727 148.013L33.9484 146.498C34.0337 146.473 34.1088 146.421 34.1628 146.35C34.2168 146.279 34.2469 146.193 34.2489 146.104C34.2509 146.015 34.2247 145.927 34.1739 145.854C34.1232 145.781 34.0507 145.725 33.9666 145.696Z" fill="#E8EFF4"/>
<path fill-rule="evenodd" clip-rule="evenodd" d="M32.6437 148.113C32.5539 148.083 32.4565 148.084 32.3673 148.116L28.9447 149.281C28.8385 149.317 28.7511 149.393 28.7015 149.494C28.6519 149.594 28.6442 149.711 28.6803 149.817C28.7163 149.923 28.793 150.01 28.8936 150.06C28.9941 150.11 29.1103 150.117 29.2165 150.081L32.6391 148.917C32.7243 148.89 32.7988 148.837 32.8518 148.765C32.9049 148.693 32.9338 148.606 32.9343 148.516C32.9348 148.427 32.9069 148.34 32.8546 148.267C32.8024 148.195 32.7287 148.14 32.6437 148.113Z" fill="#E8EFF4"/>
<path fill-rule="evenodd" clip-rule="evenodd" d="M31.875 150.023C31.7852 149.993 31.6879 149.994 31.5987 150.026L28.1761 151.191C28.0699 151.227 27.9823 151.304 27.9327 151.404C27.8831 151.505 27.8755 151.621 27.9115 151.727C27.9475 151.834 28.0242 151.921 28.1248 151.971C28.2253 152.02 28.3416 152.028 28.4478 151.992L31.8704 150.827C31.9557 150.8 32.0302 150.747 32.0833 150.675C32.1364 150.603 32.1653 150.516 32.1658 150.427C32.1664 150.338 32.1384 150.25 32.0862 150.178C32.0339 150.105 31.96 150.051 31.875 150.023Z" fill="#E8EFF4"/>
<path fill-rule="evenodd" clip-rule="evenodd" d="M31.4055 152.036C31.3156 152.006 31.2182 152.008 31.1291 152.04L27.7065 153.205C27.6003 153.241 27.5128 153.317 27.4632 153.418C27.4136 153.518 27.406 153.635 27.442 153.741C27.478 153.847 27.5548 153.934 27.6553 153.984C27.7559 154.034 27.872 154.041 27.9782 154.005L31.4008 152.84C31.486 152.814 31.5605 152.761 31.6136 152.689C31.6667 152.617 31.6956 152.53 31.6961 152.44C31.6966 152.351 31.6686 152.264 31.6164 152.191C31.5641 152.119 31.4904 152.064 31.4055 152.036Z" fill="#E8EFF4"/>
<path fill-rule="evenodd" clip-rule="evenodd" d="M31.4622 153.635C31.3723 153.605 31.275 153.606 31.1858 153.638L28.0948 154.68C28.0383 154.694 27.9854 154.72 27.9393 154.755C27.8933 154.791 27.8552 154.836 27.8273 154.887C27.7994 154.938 27.7824 154.995 27.7774 155.053C27.7724 155.111 27.7794 155.169 27.7981 155.224C27.8168 155.279 27.8467 155.33 27.8859 155.373C27.9251 155.416 27.9728 155.451 28.026 155.474C28.0792 155.498 28.1368 155.511 28.195 155.511C28.2532 155.511 28.3109 155.5 28.3644 155.477L31.4554 154.435C31.5392 154.407 31.6124 154.354 31.6645 154.283C31.7166 154.212 31.745 154.126 31.7457 154.037C31.7464 153.949 31.7195 153.863 31.6686 153.791C31.6177 153.719 31.5456 153.664 31.4622 153.635Z" fill="#E8EFF4"/>
<path fill-rule="evenodd" clip-rule="evenodd" d="M31.9999 155.061C31.9092 155.03 31.8106 155.03 31.7204 155.063L28.6294 156.105C28.5766 156.122 28.5279 156.15 28.4859 156.186C28.4439 156.223 28.4095 156.267 28.3847 156.317C28.3599 156.366 28.3451 156.42 28.3413 156.476C28.3374 156.531 28.3444 156.587 28.3621 156.64C28.3798 156.692 28.4077 156.741 28.4443 156.783C28.4808 156.824 28.5252 156.859 28.575 156.883C28.6247 156.908 28.6789 156.922 28.7343 156.926C28.7897 156.93 28.8453 156.923 28.8979 156.905L31.9889 155.863C32.0736 155.836 32.1477 155.783 32.2007 155.712C32.2537 155.641 32.2828 155.555 32.284 155.466C32.2852 155.377 32.2584 155.29 32.2073 155.218C32.1563 155.145 32.0838 155.09 31.9999 155.061Z" fill="#E8EFF4"/>
<path fill-rule="evenodd" clip-rule="evenodd" d="M32.6723 156.358C32.5934 156.34 32.5108 156.344 32.4344 156.371L29.3403 157.412C29.2341 157.448 29.1465 157.525 29.0969 157.625C29.0472 157.726 29.0396 157.842 29.0756 157.948C29.1116 158.055 29.1884 158.142 29.2889 158.192C29.3895 158.242 29.5057 158.249 29.6119 158.213L32.7029 157.171C32.7907 157.143 32.8668 157.087 32.9197 157.011C32.9726 156.936 32.9993 156.845 32.9958 156.753C32.9923 156.661 32.9588 156.573 32.9004 156.502C32.8419 156.43 32.7619 156.38 32.6723 156.358Z" fill="#E8EFF4"/>
<path fill-rule="evenodd" clip-rule="evenodd" d="M33.7534 157.755C33.6627 157.724 33.5641 157.725 33.4739 157.757L30.3829 158.799C30.3264 158.813 30.2734 158.839 30.2274 158.875C30.1814 158.91 30.1432 158.955 30.1154 159.006C30.0875 159.057 30.0705 159.114 30.0655 159.172C30.0605 159.23 30.0675 159.288 30.0862 159.343C30.1049 159.399 30.1347 159.449 30.174 159.492C30.2132 159.535 30.2609 159.57 30.3141 159.594C30.3673 159.617 30.4248 159.63 30.4831 159.63C30.5413 159.63 30.599 159.619 30.6525 159.596L33.7466 158.555C33.8304 158.527 33.9035 158.474 33.9556 158.403C34.0076 158.332 34.036 158.246 34.0367 158.158C34.0374 158.069 34.0104 157.983 33.9596 157.911C33.9087 157.839 33.8367 157.784 33.7534 157.755Z" fill="#E8EFF4"/>
<path fill-rule="evenodd" clip-rule="evenodd" d="M157.657 195.333C155.582 194.249 153.158 193.765 150.835 193.922C148.083 194.108 145.231 194.995 142.977 196.701C140.715 198.413 138.914 200.9 138.094 203.641C137.113 206.918 137.007 210.758 138.446 213.985C139.992 217.457 143.019 220.583 146.675 221.859C150.386 223.154 154.737 222.539 158.161 220.804C161.064 219.334 163.247 216.578 164.504 213.692C165.918 210.424 166.779 206.351 165.441 202.804C164.108 199.272 160.733 196.943 157.655 195.336L157.657 195.333ZM156.785 196.995C159.689 198.512 162.635 200.68 163.685 203.462C164.754 206.295 164.078 209.954 162.785 212.944C161.674 215.494 159.702 217.923 157.316 219.132C154.315 220.651 150.379 221.164 147.29 220.086C144.247 219.024 141.499 216.235 140.158 213.225C138.964 210.546 139.015 207.095 139.888 204.178C140.578 201.869 142.166 199.661 144.107 198.192C145.997 196.762 148.525 195.956 150.959 195.792C152.931 195.659 155.044 196.086 156.785 196.995Z" fill="#E8EFF4"/>
<path fill-rule="evenodd" clip-rule="evenodd" d="M163.373 184.901C157.14 181.709 149.144 181.631 142.616 183.958C136.601 186.102 131.616 191.095 128.509 196.542C125.94 201.046 124.914 206.579 125.502 211.707C126.086 216.792 128.513 221.697 131.746 225.578C134.452 228.826 138.151 231.418 142.166 232.783C148.273 234.859 155.646 236.344 161.862 233.71C168.123 231.058 172.476 224.778 175.038 218.732C177.274 213.421 178.151 207.038 176.454 201.42C174.427 194.704 169.699 188.144 163.372 184.904L163.373 184.901ZM162.52 186.567C168.261 189.507 172.769 195.697 174.659 201.958C176.188 207.022 175.405 213.028 173.312 218.001C170.868 223.767 166.688 229.629 161.132 231.983C155.653 234.304 148.687 233.021 142.766 231.008C139.107 229.765 135.669 227.357 133.188 224.378C130.158 220.742 127.898 216.125 127.367 211.493C126.825 206.766 127.794 201.583 130.139 197.471C133.06 192.349 137.797 187.667 143.246 185.725C149.298 183.568 156.864 183.671 162.52 186.567Z" fill="#E8EFF4"/>
<path fill-rule="evenodd" clip-rule="evenodd" d="M150.453 183.062L148.592 183.297L150.089 195.283L151.95 195.049L150.453 183.062Z" fill="#E8EFF4"/>
<path fill-rule="evenodd" clip-rule="evenodd" d="M171.186 192.528L161.433 198.933L162.46 200.5L172.213 194.095L171.186 192.528Z" fill="#E8EFF4"/>
<path fill-rule="evenodd" clip-rule="evenodd" d="M175.761 203.736L164.929 205.218L165.185 207.076L176.018 205.595L175.761 203.736Z" fill="#E8EFF4"/>
<path fill-rule="evenodd" clip-rule="evenodd" d="M161.112 217.475L159.596 218.578L167.14 228.946L168.656 227.843L161.112 217.475Z" fill="#E8EFF4"/>
<path fill-rule="evenodd" clip-rule="evenodd" d="M154.813 221.303L152.941 221.19L152.207 233.624L154.079 233.736L154.813 221.303Z" fill="#E8EFF4"/>
<path fill-rule="evenodd" clip-rule="evenodd" d="M140.175 215.761L130.822 222.72L131.94 224.223L141.293 217.264L140.175 215.761Z" fill="#E8EFF4"/>
<path fill-rule="evenodd" clip-rule="evenodd" d="M138.586 208.456L126.692 209.738L126.889 211.603L138.783 210.322L138.586 208.456Z" fill="#E8EFF4"/>
<path fill-rule="evenodd" clip-rule="evenodd" d="M137.133 187.769L135.663 188.932L142.529 197.608L143.999 196.445L137.133 187.769Z" fill="#E8EFF4"/>
<path fill-rule="evenodd" clip-rule="evenodd" d="M137.168 191.398C137.072 191.352 136.963 191.341 136.86 191.366L132.144 192.406C132.022 192.433 131.916 192.508 131.85 192.613C131.783 192.718 131.761 192.845 131.788 192.967C131.815 193.088 131.89 193.194 131.995 193.261C132.1 193.327 132.227 193.35 132.349 193.322L137.065 192.282C137.161 192.262 137.249 192.212 137.316 192.14C137.383 192.067 137.425 191.975 137.436 191.877C137.448 191.779 137.428 191.68 137.38 191.594C137.332 191.508 137.258 191.439 137.168 191.398Z" fill="#E8EFF4"/>
<path fill-rule="evenodd" clip-rule="evenodd" d="M137.174 192.993C137.063 192.943 136.936 192.939 136.821 192.981L130.136 195.346C130.078 195.366 130.025 195.398 129.979 195.439C129.933 195.481 129.895 195.531 129.869 195.586C129.842 195.642 129.827 195.702 129.823 195.764C129.82 195.826 129.829 195.888 129.85 195.946C129.87 196.004 129.902 196.058 129.943 196.104C129.985 196.15 130.035 196.187 130.09 196.213C130.146 196.24 130.207 196.255 130.268 196.259C130.33 196.262 130.392 196.253 130.45 196.232L137.135 193.868C137.225 193.838 137.304 193.782 137.361 193.706C137.419 193.63 137.452 193.539 137.456 193.444C137.461 193.349 137.436 193.255 137.386 193.175C137.336 193.094 137.262 193.031 137.174 192.993Z" fill="#E8EFF4"/>
<path fill-rule="evenodd" clip-rule="evenodd" d="M137.034 195.164C136.935 195.13 136.827 195.129 136.727 195.164L128.204 197.952C128.143 197.969 128.087 197.999 128.038 198.038C127.989 198.077 127.948 198.127 127.918 198.182C127.888 198.238 127.87 198.299 127.864 198.361C127.859 198.424 127.866 198.487 127.885 198.547C127.905 198.607 127.936 198.663 127.977 198.71C128.018 198.758 128.069 198.797 128.125 198.824C128.182 198.852 128.243 198.868 128.306 198.872C128.369 198.875 128.432 198.865 128.491 198.844L137.018 196.057C137.114 196.029 137.197 195.97 137.258 195.891C137.318 195.812 137.351 195.716 137.353 195.616C137.355 195.517 137.325 195.419 137.268 195.338C137.21 195.256 137.128 195.196 137.034 195.164Z" fill="#E8EFF4"/>
<path fill-rule="evenodd" clip-rule="evenodd" d="M136.495 197.419C136.384 197.368 136.258 197.362 136.143 197.403L127.704 200.292C127.587 200.332 127.49 200.418 127.435 200.53C127.381 200.641 127.373 200.77 127.413 200.888C127.454 201.006 127.539 201.102 127.651 201.157C127.763 201.212 127.892 201.219 128.01 201.179L136.449 198.291C136.538 198.261 136.617 198.205 136.674 198.13C136.731 198.055 136.765 197.965 136.77 197.87C136.775 197.776 136.751 197.683 136.702 197.602C136.653 197.521 136.581 197.458 136.495 197.419Z" fill="#E8EFF4"/>
<path fill-rule="evenodd" clip-rule="evenodd" d="M136.208 199.782C136.11 199.747 136.003 199.745 135.903 199.778L126.91 202.621C126.851 202.638 126.795 202.667 126.747 202.707C126.698 202.746 126.658 202.795 126.629 202.85C126.6 202.905 126.582 202.965 126.576 203.027C126.57 203.09 126.577 203.152 126.596 203.212C126.615 203.271 126.645 203.326 126.686 203.374C126.726 203.421 126.775 203.46 126.831 203.488C126.887 203.517 126.947 203.533 127.009 203.538C127.072 203.542 127.134 203.534 127.193 203.514L136.186 200.672C136.281 200.643 136.364 200.586 136.424 200.507C136.484 200.429 136.517 200.334 136.52 200.235C136.522 200.136 136.494 200.039 136.438 199.958C136.382 199.876 136.301 199.815 136.208 199.782Z" fill="#E8EFF4"/>
<path fill-rule="evenodd" clip-rule="evenodd" d="M135.925 202.529C135.825 202.492 135.717 202.49 135.616 202.523L126.547 205.397C126.428 205.435 126.329 205.518 126.272 205.629C126.215 205.74 126.204 205.868 126.242 205.987C126.28 206.106 126.364 206.205 126.474 206.262C126.585 206.319 126.714 206.33 126.833 206.292L135.902 203.419C135.997 203.39 136.08 203.332 136.14 203.254C136.2 203.176 136.234 203.08 136.236 202.981C136.239 202.883 136.21 202.786 136.154 202.704C136.098 202.623 136.018 202.562 135.925 202.529Z" fill="#E8EFF4"/>
<path fill-rule="evenodd" clip-rule="evenodd" d="M135.263 205.433C135.164 205.396 135.056 205.393 134.956 205.425L126.394 208.006C126.335 208.024 126.279 208.053 126.232 208.092C126.184 208.131 126.144 208.178 126.115 208.233C126.085 208.287 126.067 208.346 126.061 208.408C126.055 208.469 126.06 208.531 126.078 208.59C126.096 208.649 126.125 208.704 126.163 208.752C126.202 208.8 126.25 208.839 126.305 208.869C126.359 208.898 126.418 208.916 126.48 208.923C126.541 208.929 126.603 208.923 126.662 208.906L135.224 206.325C135.32 206.298 135.404 206.243 135.466 206.165C135.528 206.088 135.564 205.992 135.568 205.893C135.572 205.794 135.545 205.696 135.49 205.614C135.436 205.531 135.356 205.467 135.263 205.433Z" fill="#E8EFF4"/>
<path fill-rule="evenodd" clip-rule="evenodd" d="M55.4089 259.897C55.2628 259.85 55.1074 259.839 54.9563 259.866C54.8052 259.893 54.663 259.957 54.5422 260.051C54.5422 260.051 47.2407 265.728 44.2074 269.593C41.0702 273.592 38.3997 278.12 36.8051 283.001C35.5887 286.724 34.8911 292.3 34.4693 297.004C34.0475 301.709 33.9195 305.523 33.9195 305.523C33.9127 305.733 33.9765 305.939 34.1008 306.108C34.2251 306.277 34.4026 306.4 34.6048 306.456L42.236 308.591C42.4153 308.641 42.6054 308.636 42.7822 308.578C42.9589 308.519 43.1142 308.409 43.2284 308.262L48.0352 302.048C48.0509 302.028 48.0658 302.008 48.0798 301.986C48.0798 301.986 52.8422 294.761 54.4428 290.448C56.1074 285.965 57.0882 281.19 57.3788 276.422C57.7123 270.949 56.0475 260.64 56.0475 260.64C56.0199 260.469 55.9457 260.31 55.833 260.178C55.7203 260.047 55.5735 259.95 55.4089 259.897ZM54.4133 262.594C54.746 264.865 55.7662 272.079 55.5085 276.308C55.2289 280.895 54.2817 285.494 52.6845 289.795C51.2799 293.58 46.5316 300.923 46.5177 300.944L42.131 306.614L35.8383 304.855C35.8597 304.28 35.9561 301.418 36.3368 297.172C36.7537 292.523 37.4815 286.969 38.5885 283.581C40.0973 278.963 42.649 274.611 45.6804 270.748C47.9164 267.898 52.6926 263.987 54.4133 262.594Z" fill="#E8EFF4"/>
<path fill-rule="evenodd" clip-rule="evenodd" d="M53.8205 261.325L37.9427 306.673L39.7092 307.302L55.5871 261.954L53.8205 261.325Z" fill="#E8EFF4"/>
<path fill-rule="evenodd" clip-rule="evenodd" d="M81.0173 272.314C80.8535 272.258 80.6772 272.248 80.5081 272.285C80.5081 272.285 73.2868 273.884 69.6603 275.337C65.9558 276.821 62.2404 278.57 58.9779 281.021C56.9253 282.563 54.0613 286.07 54.0613 286.07C53.9827 286.165 53.9234 286.274 53.8869 286.392C53.8505 286.509 53.8375 286.633 53.8489 286.756C53.8602 286.878 53.8956 286.997 53.953 287.106C54.0104 287.215 54.0886 287.312 54.1833 287.391C54.2781 287.469 54.3873 287.529 54.5049 287.565C54.6225 287.601 54.7462 287.614 54.8688 287.603C54.9914 287.592 55.1106 287.556 55.2195 287.499C55.3284 287.442 55.425 287.363 55.5037 287.269C55.5037 287.269 58.5164 283.713 60.1034 282.521C63.1606 280.224 66.725 278.532 70.3583 277.076C73.0533 275.997 77.3059 275.044 79.1063 274.622C78.36 276.597 75.1965 285.068 72.7365 289.9C71.7379 291.861 70.7529 293.792 69.4266 295.356C66.3493 298.985 62.5089 302.018 58.5098 304.744C56.0194 306.441 50.8266 308.841 50.1205 309.17L45.5476 304.568C45.4628 304.473 45.3594 304.396 45.2439 304.342C45.1283 304.288 45.003 304.259 44.8756 304.255C44.7482 304.251 44.6214 304.273 44.5029 304.32C44.3844 304.367 44.2766 304.438 44.1863 304.528C44.096 304.618 44.0249 304.725 43.9775 304.843C43.9301 304.962 43.9073 305.089 43.9105 305.216C43.9137 305.343 43.9429 305.469 43.9963 305.584C44.0496 305.7 44.126 305.804 44.2207 305.889L49.2832 310.981C49.4181 311.116 49.5913 311.208 49.7796 311.242C49.9678 311.276 50.1621 311.252 50.3363 311.173C50.3363 311.173 56.5618 308.343 59.5675 306.294C63.64 303.518 67.6166 300.387 70.8573 296.566C72.3756 294.776 73.4102 292.709 74.407 290.751C77.2772 285.114 81.5933 273.531 81.5933 273.531C81.6374 273.414 81.6575 273.288 81.6523 273.163C81.6471 273.037 81.6166 272.914 81.5629 272.801C81.5092 272.687 81.4332 272.586 81.3395 272.502C81.2457 272.418 81.1362 272.354 81.0173 272.314Z" fill="#E8EFF4"/>
<path fill-rule="evenodd" clip-rule="evenodd" d="M68.1166 285.345C68.1006 285.339 68.0844 285.333 68.0681 285.328L58.1113 282.299L57.5672 284.091L67.0611 286.98L69.8909 295.481L71.6711 294.89L68.6862 285.928C68.6419 285.794 68.5678 285.671 68.4693 285.57C68.3709 285.468 68.2506 285.39 68.1177 285.342L68.1166 285.345Z" fill="#E8EFF4"/>
<path fill-rule="evenodd" clip-rule="evenodd" d="M63.722 278.349L63.0602 280.1L71.3958 283.237L73.1618 289.509L74.9679 289L73.0721 282.273C73.0323 282.132 72.9598 282.002 72.8605 281.893C72.7613 281.785 72.6379 281.702 72.5005 281.65L63.722 278.349Z" fill="#E8EFF4"/>
<path fill-rule="evenodd" clip-rule="evenodd" d="M48.2671 271.481C48.2014 271.463 48.1324 271.459 48.0651 271.47C47.9977 271.481 47.9335 271.506 47.8771 271.545L39.8322 276.837C39.778 276.869 39.7309 276.912 39.6938 276.963C39.6566 277.014 39.6302 277.072 39.6159 277.134C39.6017 277.195 39.6001 277.259 39.6111 277.321C39.6222 277.383 39.6456 277.443 39.6801 277.496C39.7146 277.548 39.7595 277.594 39.8119 277.629C39.8644 277.664 39.9234 277.688 39.9854 277.7C40.0474 277.712 40.1111 277.711 40.1728 277.697C40.2345 277.684 40.2928 277.658 40.3443 277.621L48.3926 272.331C48.4696 272.282 48.5309 272.212 48.569 272.13C48.6071 272.047 48.6202 271.955 48.6069 271.865C48.5936 271.775 48.5543 271.691 48.4939 271.623C48.4335 271.555 48.3549 271.505 48.2671 271.481Z" fill="#E8EFF4"/>
<path fill-rule="evenodd" clip-rule="evenodd" d="M46.8799 275.562C46.8151 275.541 46.7463 275.534 46.6786 275.542C46.6109 275.55 46.5458 275.573 46.4879 275.609L38.7352 280.301C38.6825 280.333 38.6365 280.375 38.6 280.424C38.5636 280.474 38.5372 280.53 38.5225 280.59C38.5078 280.65 38.505 280.712 38.5144 280.773C38.5237 280.834 38.5449 280.893 38.5769 280.945C38.6088 280.998 38.6508 281.044 38.7005 281.08C38.7502 281.117 38.8066 281.143 38.8665 281.158C38.9263 281.173 38.9885 281.175 39.0494 281.166C39.1104 281.157 39.1688 281.136 39.2215 281.104L46.9742 276.412C47.052 276.366 47.1149 276.299 47.1553 276.218C47.1956 276.137 47.2117 276.046 47.2018 275.957C47.1918 275.867 47.1561 275.782 47.099 275.712C47.0419 275.642 46.9659 275.59 46.8799 275.562Z" fill="#E8EFF4"/>
<path fill-rule="evenodd" clip-rule="evenodd" d="M44.9339 280.151C44.8686 280.133 44.8 280.128 44.7329 280.139C44.6658 280.149 44.6017 280.174 44.5451 280.212L36.552 285.343C36.4471 285.41 36.3733 285.516 36.3467 285.637C36.32 285.759 36.3427 285.886 36.4098 285.991C36.477 286.096 36.583 286.169 36.7046 286.196C36.8261 286.223 36.9533 286.2 37.0581 286.133L45.0527 280.998C45.1291 280.95 45.19 280.881 45.228 280.799C45.266 280.717 45.2796 280.626 45.267 280.536C45.2545 280.447 45.2164 280.363 45.1573 280.295C45.0982 280.226 45.0206 280.177 44.9339 280.151Z" fill="#E8EFF4"/>
<path fill-rule="evenodd" clip-rule="evenodd" d="M43.7923 284.228C43.7266 284.208 43.6574 284.204 43.5896 284.214C43.5218 284.224 43.4571 284.249 43.4 284.287L36.6505 288.619C36.5986 288.653 36.5538 288.696 36.5185 288.746C36.4833 288.797 36.4584 288.854 36.4452 288.914C36.432 288.974 36.4308 289.036 36.4417 289.097C36.4525 289.158 36.4752 289.216 36.5084 289.268C36.5416 289.32 36.5848 289.364 36.6354 289.4C36.6859 289.435 36.743 289.46 36.8032 289.473C36.8634 289.486 36.9256 289.487 36.9862 289.476C37.0469 289.465 37.1048 289.443 37.1567 289.409L43.9074 285.074C43.9835 285.026 44.0442 284.957 44.0823 284.875C44.1203 284.794 44.134 284.703 44.1218 284.614C44.1097 284.525 44.0722 284.441 44.0137 284.373C43.9552 284.304 43.8785 284.254 43.7923 284.228Z" fill="#E8EFF4"/>
<path fill-rule="evenodd" clip-rule="evenodd" d="M41.9774 289.033C41.9125 289.012 41.8439 289.005 41.7762 289.013C41.7085 289.021 41.6434 289.044 41.5854 289.08L35.5196 292.687C35.4128 292.751 35.3358 292.855 35.3055 292.975C35.2751 293.096 35.294 293.224 35.3578 293.331C35.4217 293.437 35.5254 293.514 35.6461 293.545C35.7667 293.575 35.8945 293.556 36.0013 293.492L42.0637 289.884C42.142 289.839 42.2055 289.772 42.2467 289.692C42.2879 289.611 42.305 289.521 42.2959 289.431C42.2868 289.341 42.2519 289.255 42.1954 289.185C42.1389 289.114 42.0631 289.062 41.9774 289.033Z" fill="#E8EFF4"/>
<path fill-rule="evenodd" clip-rule="evenodd" d="M40.5126 293.788C40.3961 293.75 40.2693 293.759 40.1593 293.813L35.5533 295.995C35.4965 296.02 35.4453 296.057 35.4029 296.103C35.3604 296.148 35.3275 296.202 35.306 296.26C35.2845 296.319 35.2748 296.381 35.2777 296.443C35.2805 296.505 35.2957 296.566 35.3223 296.623C35.349 296.679 35.3867 296.729 35.433 296.771C35.4794 296.813 35.5336 296.845 35.5925 296.865C35.6514 296.885 35.7137 296.894 35.7759 296.89C35.8381 296.886 35.8988 296.87 35.9546 296.842L40.5606 294.66C40.6467 294.622 40.719 294.557 40.768 294.477C40.8171 294.396 40.8405 294.302 40.8353 294.208C40.8302 294.113 40.7966 294.023 40.7391 293.948C40.6815 293.873 40.6024 293.818 40.5126 293.788Z" fill="#E8EFF4"/>
<path fill-rule="evenodd" clip-rule="evenodd" d="M52.0988 409.001C48.9699 408.303 46.3805 407.937 46.3805 407.937C45.8717 407.865 45.3536 407.97 44.9138 408.236C44.4739 408.502 44.1394 408.911 43.9667 409.395C43.9667 409.395 43.2756 411.34 42.2026 413.609C41.1295 415.878 39.5367 418.459 38.5465 419.308C36.2946 421.24 32.6077 421.949 28.7897 422.822C26.013 423.458 18.9587 423.721 18.9587 423.721L18.9841 423.727C18.4943 423.734 18.0204 423.903 17.6359 424.207C17.2515 424.51 16.9778 424.932 16.8571 425.407C16.8571 425.407 13.2552 440.599 11.3558 448.121C7.86352 461.95 0.448697 489.605 0.448697 489.605C0.371846 489.893 0.353533 490.193 0.394697 490.488C0.43586 490.783 0.535675 491.067 0.688369 491.323C0.841065 491.578 1.04343 491.801 1.2836 491.977C1.52378 492.154 1.79686 492.28 2.08668 492.349L55.7733 505.067C56.3397 505.202 56.9363 505.11 57.4357 504.81C57.9351 504.511 58.2977 504.028 58.4458 503.465C58.4458 503.465 69.5922 460.972 73.3018 442.125C74.3897 436.598 74.812 430.298 72.5184 424.644C70.3725 419.353 66.1035 415.126 61.4828 412.241C58.8659 410.608 55.2354 409.667 52.1068 408.967L52.0988 409.001ZM51.1255 413.352C54.0635 414.009 57.5456 415.082 59.1076 416.056C63.0979 418.547 66.7094 422.231 68.3789 426.347C70.1519 430.718 69.917 436.208 68.9156 441.296C65.4141 459.085 55.3628 497.474 54.6376 500.249L5.32944 488.578C6.04696 485.9 12.3434 462.421 15.6696 449.25C17.4596 442.161 20.3768 429.85 20.8102 428.025C22.4386 427.979 26.4898 427.93 29.7777 427.177C33.3928 426.35 37.9164 425.736 41.4515 422.703C43.6083 420.852 45.0534 418.004 46.2287 415.519C46.9547 413.983 47.0934 413.509 47.422 412.663C48.3341 412.806 49.0981 412.899 51.1252 413.354L51.1255 413.352Z" fill="#E8EFF4"/>
<path fill-rule="evenodd" clip-rule="evenodd" d="M34.0004 497.526L25.8311 527.336L18.4197 526.123L25.0276 495.362L20.6683 494.421L13.5767 527.475C13.5129 527.77 13.5097 528.076 13.5675 528.372C13.6252 528.669 13.7426 528.95 13.9126 529.2C14.0825 529.45 14.3014 529.662 14.556 529.825C14.8106 529.988 15.0956 530.097 15.3937 530.146L27.0871 532.064C27.6314 532.154 28.1898 532.039 28.6542 531.741C29.1186 531.443 29.456 530.984 29.6011 530.451L38.3031 498.701L34.0004 497.526Z" fill="#E8EFF4"/>
<path fill-rule="evenodd" clip-rule="evenodd" d="M69.147 441.746C69.147 441.746 68.4047 442.619 67.4031 443.546C66.4014 444.473 64.9908 445.323 64.7849 445.367L64.7676 445.362C64.7058 445.393 63.7626 445.117 62.448 444.434C61.7909 444.091 61.0612 443.694 60.1327 443.451C59.1999 443.225 57.891 443.188 56.7798 443.866C53.1658 446.068 52.024 449.955 51.3805 453.471C50.7368 456.988 50.4155 460.449 49.2946 462.75C48.2503 464.894 47.5815 466.665 46.7236 467.261C45.4179 468.169 43.4523 468.607 42.731 468.283C41.8085 467.872 40.7355 465.851 40.4671 463.981C40.2719 462.62 40.7772 461.035 41.58 459.089C42.3829 457.144 43.4667 454.92 43.5717 452.235C43.6445 450.377 43.9521 447.646 42.1753 445.275C40.1464 442.558 36.775 440.593 33.1126 440.966C29.6801 441.314 27.8493 444.075 26.5136 445.684C25.2466 447.21 24.8774 448.874 24.483 450.111C24.0884 451.347 23.7385 452.044 23.3441 452.334C22.1492 453.216 19.9931 453.615 18.9172 453.189C18.7724 453.154 17.5122 451.886 16.7289 450.572C15.9457 449.258 15.4241 448.043 15.4241 448.043L11.3207 449.781C11.3207 449.781 11.9339 451.246 12.8956 452.86C13.8574 454.473 14.9478 456.396 17.2538 457.32L17.2625 457.322C20.3214 458.545 23.602 457.682 25.9874 455.922C27.7052 454.655 28.2937 452.842 28.734 451.463C29.1742 450.083 29.5367 449.024 29.9458 448.531C31.3527 446.836 32.7221 445.487 33.5615 445.402C35.1008 445.246 37.502 446.458 38.6089 447.942C39.0748 448.562 39.1923 450.17 39.1185 452.052C39.0603 453.543 38.3095 455.322 37.4618 457.376C36.614 459.43 35.6528 461.828 36.0514 464.605C36.4457 467.351 37.5697 470.856 40.9047 472.348C44.0145 473.741 47.1299 472.403 49.2703 470.915C51.8619 469.114 52.5078 466.329 53.3027 464.698C54.9774 461.261 55.1855 457.441 55.7667 454.265C56.3381 451.143 57.1428 448.995 59.0495 447.776C59.3014 447.837 59.7908 448.066 60.3903 448.381C61.6203 449.018 63.3316 450.243 65.7284 449.72C67.8275 449.267 69.2107 447.943 70.4274 446.817C71.6468 445.688 72.5442 444.624 72.5442 444.624L69.1482 441.74L69.147 441.746Z" fill="#E8EFF4"/>
<path fill-rule="evenodd" clip-rule="evenodd" d="M18.7377 461.146C18.4535 461.098 18.1618 461.162 17.9238 461.325L11.4337 465.63C11.1874 465.794 11.0162 466.049 10.9577 466.339C10.8992 466.629 10.9583 466.93 11.122 467.176C11.2857 467.423 11.5405 467.594 11.8304 467.653C12.1204 467.711 12.4217 467.652 12.6682 467.488L19.1582 463.183C19.3475 463.061 19.4954 462.884 19.5826 462.677C19.6697 462.469 19.692 462.24 19.6465 462.02C19.6009 461.799 19.4898 461.598 19.3276 461.442C19.1654 461.286 18.9597 461.183 18.7377 461.146Z" fill="#E8EFF4"/>
<path fill-rule="evenodd" clip-rule="evenodd" d="M19.1035 464.962C18.8174 464.916 18.5248 464.983 18.2875 465.149L8.87239 471.47C8.74042 471.547 8.62545 471.649 8.53472 471.772C8.444 471.895 8.37935 472.034 8.34482 472.183C8.31029 472.331 8.30655 472.486 8.33391 472.636C8.36126 472.786 8.41919 472.928 8.50392 473.055C8.58865 473.181 8.69851 473.289 8.82665 473.372C8.95479 473.455 9.09842 473.51 9.24884 473.535C9.39927 473.56 9.55325 473.554 9.70115 473.517C9.84905 473.48 9.98771 473.413 10.1087 473.32L19.5238 466.999C19.713 466.878 19.861 466.701 19.9481 466.493C20.0353 466.286 20.0576 466.057 20.012 465.836C19.9665 465.616 19.8553 465.415 19.6932 465.259C19.531 465.103 19.3255 464.999 19.1035 464.962Z" fill="#E8EFF4"/>
<path fill-rule="evenodd" clip-rule="evenodd" d="M19.5034 469.933C19.2203 469.878 18.9271 469.935 18.6853 470.092L6.64453 477.784C6.51815 477.861 6.40829 477.963 6.32151 478.083C6.23474 478.202 6.17272 478.338 6.13905 478.482C6.10537 478.627 6.10069 478.776 6.12535 478.922C6.15002 479.068 6.2035 479.208 6.28267 479.333C6.36184 479.458 6.46513 479.566 6.58648 479.65C6.70784 479.735 6.84488 479.795 6.98955 479.826C7.13422 479.857 7.28363 479.859 7.42911 479.832C7.57459 479.805 7.71322 479.749 7.83688 479.668L19.8777 471.976C20.0688 471.858 20.2199 471.685 20.3111 471.48C20.4024 471.275 20.4295 471.047 20.3891 470.826C20.3486 470.605 20.2425 470.402 20.0844 470.242C19.9264 470.083 19.7239 469.975 19.5034 469.933Z" fill="#E8EFF4"/>
<path fill-rule="evenodd" clip-rule="evenodd" d="M19.332 474.192C19.0489 474.137 18.7557 474.194 18.5139 474.351L3.95005 483.582C3.82571 483.66 3.71798 483.762 3.63307 483.882C3.54816 484.001 3.48773 484.137 3.45525 484.28C3.42276 484.423 3.41892 484.571 3.44383 484.716C3.46875 484.86 3.52198 484.998 3.60047 485.122C3.67897 485.247 3.78115 485.354 3.90121 485.438C4.02128 485.523 4.15685 485.583 4.30011 485.615C4.44337 485.646 4.59149 485.65 4.73602 485.624C4.88056 485.599 5.01871 485.545 5.1424 485.466L19.7062 476.235C19.8973 476.117 20.0484 475.944 20.1397 475.739C20.2309 475.534 20.2581 475.306 20.2176 475.085C20.1772 474.864 20.071 474.661 19.913 474.501C19.755 474.342 19.5525 474.234 19.332 474.192Z" fill="#E8EFF4"/>
<path fill-rule="evenodd" clip-rule="evenodd" d="M19.4528 479.094C19.169 479.035 18.8732 479.088 18.6282 479.243L3.32179 488.581C3.19349 488.655 3.08136 488.755 2.99199 488.873C2.90263 488.992 2.83783 489.127 2.80136 489.271C2.7649 489.415 2.75747 489.565 2.77961 489.711C2.80175 489.858 2.85291 489.999 2.93019 490.126C3.00748 490.252 3.10929 490.362 3.22963 490.449C3.34998 490.536 3.48652 490.597 3.6311 490.631C3.77569 490.664 3.9254 490.669 4.07162 490.643C4.21784 490.618 4.35761 490.564 4.4826 490.484L19.789 481.146C19.983 481.032 20.138 480.862 20.2335 480.658C20.3291 480.455 20.3608 480.227 20.3244 480.004C20.288 479.782 20.1853 479.577 20.0298 479.414C19.8742 479.251 19.673 479.14 19.4528 479.094Z" fill="#E8EFF4"/>
<path fill-rule="evenodd" clip-rule="evenodd" d="M20.0301 482.961C19.7447 482.92 19.4545 482.992 19.2204 483.16L8.89884 490.264C8.76385 490.34 8.64615 490.444 8.55329 490.567C8.46043 490.691 8.39432 490.834 8.35938 490.985C8.32444 491.136 8.32142 491.292 8.35034 491.444C8.37926 491.596 8.43956 491.741 8.52742 491.868C8.61529 491.996 8.7287 492.104 8.86056 492.185C8.99243 492.266 9.1398 492.319 9.29325 492.34C9.44669 492.361 9.60293 492.35 9.75186 492.307C9.90078 492.265 10.0392 492.192 10.1582 492.093L20.48 484.988C20.6658 484.863 20.8097 484.685 20.8928 484.477C20.9758 484.269 20.9943 484.04 20.9457 483.822C20.8972 483.603 20.7838 483.404 20.6204 483.251C20.4571 483.097 20.2514 482.996 20.0301 482.961Z" fill="#E8EFF4"/>
<path fill-rule="evenodd" clip-rule="evenodd" d="M21.8315 486.695C21.5443 486.656 21.2532 486.731 21.0198 486.903L14.4313 491.614C14.1901 491.786 14.0271 492.047 13.9782 492.34C13.9292 492.632 13.9984 492.932 14.1704 493.173C14.3425 493.414 14.6034 493.577 14.8957 493.626C15.1879 493.675 15.4876 493.606 15.7288 493.434L22.3173 488.722C22.5039 488.595 22.6474 488.413 22.7287 488.202C22.81 487.992 22.8252 487.761 22.7725 487.542C22.7198 487.322 22.6016 487.123 22.4335 486.972C22.2655 486.821 22.0556 486.724 21.8315 486.695Z" fill="#E8EFF4"/>
</svg>
