<svg width="19" height="40" viewBox="0 0 19 40" fill="none" xmlns="http://www.w3.org/2000/svg">
<path fill-rule="evenodd" clip-rule="evenodd" d="M4.345 39.4963C4.345 39.775 4.57 40 4.84875 40H12.03C12.3088 40 12.5338 39.775 12.5338 39.4963V19.8425H17.74C18.0025 19.8425 18.22 19.6425 18.2425 19.38L18.7425 13.46C18.7484 13.3906 18.7398 13.3207 18.7173 13.2547C18.6948 13.1888 18.6588 13.1282 18.6117 13.0769C18.5646 13.0256 18.5074 12.9846 18.4436 12.9565C18.3798 12.9284 18.3109 12.9138 18.2413 12.9138H12.5338V8.7125C12.5338 7.7275 13.3313 6.92875 14.3163 6.92875H18.3288C18.6075 6.92875 18.8325 6.70375 18.8325 6.425V0.50375C18.8325 0.370147 18.7794 0.242016 18.685 0.147545C18.5905 0.0530735 18.4624 0 18.3288 0L11.55 0C9.63945 0 7.80715 0.758964 6.45618 2.10993C5.10522 3.46089 4.34625 5.2932 4.34625 7.20375V12.9138H0.75375C0.620363 12.9137 0.492422 12.9667 0.397986 13.0609C0.303551 13.1551 0.250331 13.2829 0.25 13.4163V19.3387C0.25 19.6175 0.475 19.8425 0.75375 19.8425H4.345V39.4963Z" fill="#269BFF"/>
</svg>
