<svg width="25" height="25" viewBox="0 0 25 25" fill="none" xmlns="http://www.w3.org/2000/svg">
<path d="M19.0476 22.619H2.38095V5.95238H13.0952V3.57143H2.38095C1.07143 3.57143 0 4.64286 0 5.95238V22.619C0 23.9286 1.07143 25 2.38095 25H19.0476C20.3571 25 21.4286 23.9286 21.4286 22.619V11.9048H19.0476V22.619ZM9.77381 18.8452L7.44047 16.0357L4.16667 20.2381H17.2619L13.0476 14.631L9.77381 18.8452ZM21.4286 3.57143V0H19.0476V3.57143H15.4762C15.4881 3.58333 15.4762 5.95238 15.4762 5.95238H19.0476V9.5119C19.0595 9.52381 21.4286 9.5119 21.4286 9.5119V5.95238H25V3.57143H21.4286Z" fill="white"/>
</svg>
