<svg width="20" height="25" viewBox="0 0 20 25" fill="none" xmlns="http://www.w3.org/2000/svg">
<path d="M15.3571 12.125C17.0893 10.9286 18.3036 8.96429 18.3036 7.14286C18.3036 3.10714 15.1786 0 11.1607 0H0V25H12.5714C16.3036 25 19.1964 21.9643 19.1964 18.2321C19.1964 15.5179 17.6607 13.1964 15.3571 12.125ZM5.35714 4.46429H10.7143C12.1964 4.46429 13.3929 5.66071 13.3929 7.14286C13.3929 8.625 12.1964 9.82143 10.7143 9.82143H5.35714V4.46429ZM11.6071 20.5357H5.35714V15.1786H11.6071C13.0893 15.1786 14.2857 16.375 14.2857 17.8571C14.2857 19.3393 13.0893 20.5357 11.6071 20.5357Z" fill="white"/>
</svg>
