<svg width="273" height="38" viewBox="0 0 273 38" fill="none" xmlns="http://www.w3.org/2000/svg">
<path d="M38.265 31.2713C38.055 31.2713 37.8917 31.2013 37.775 31.0613C37.6817 30.898 37.635 30.7113 37.635 30.5013C37.6583 30.1513 37.7283 29.9413 37.845 29.8713C37.9617 29.8013 38.1833 29.7663 38.51 29.7663C39.1867 29.7663 39.6883 29.6496 40.015 29.4163C40.3417 29.1596 40.54 28.8563 40.61 28.5063C40.7033 28.133 40.7617 27.6547 40.785 27.0713V10.3763H38.37C37.5767 10.3996 36.9583 10.5746 36.515 10.9013C36.095 11.2046 35.7683 11.6713 35.535 12.3013C35.325 12.908 35.1383 13.783 34.975 14.9263C34.9517 15.113 34.8117 15.2647 34.555 15.3813C34.2983 15.498 34.03 15.5563 33.75 15.5563C33.54 15.5563 33.3417 15.498 33.155 15.3813C32.9917 15.2413 32.91 15.0663 32.91 14.8563L33.015 9.92131C33.015 9.36131 33.33 9.08132 33.96 9.08132H51.075C51.6817 9.08132 51.985 9.36131 51.985 9.92131L52.125 14.8563C52.125 15.0663 52.0317 15.2413 51.845 15.3813C51.6583 15.498 51.46 15.5563 51.25 15.5563C50.97 15.5563 50.7017 15.498 50.445 15.3813C50.2117 15.2647 50.0833 15.113 50.06 14.9263C49.8733 13.7597 49.675 12.873 49.465 12.2663C49.255 11.6596 48.9283 11.2046 48.485 10.9013C48.0417 10.5746 47.4233 10.3996 46.63 10.3763H44.25V27.0713C44.2733 27.6547 44.32 28.133 44.39 28.5063C44.4833 28.8563 44.6933 29.1596 45.02 29.4163C45.3467 29.6496 45.8483 29.7663 46.525 29.7663H46.735C46.945 29.7663 47.0967 29.813 47.19 29.9063C47.3067 29.9763 47.3767 30.1746 47.4 30.5013C47.4 30.7113 47.3417 30.898 47.225 31.0613C47.1317 31.2013 46.98 31.2713 46.77 31.2713C45.2767 31.2013 43.9 31.1663 42.64 31.1663C41.24 31.1663 39.7817 31.2013 38.265 31.2713Z" fill="white"/>
<path d="M56.7513 31.5863C55.3513 31.5863 54.2196 31.1897 53.3563 30.3963C52.493 29.603 52.0613 28.6113 52.0613 27.4213C52.0613 25.9513 52.5513 24.8546 53.5313 24.1313C54.5113 23.3846 55.678 22.9063 57.0313 22.6963C58.3846 22.463 60.1346 22.288 62.2813 22.1713V19.4063C62.2813 18.263 61.9896 17.3997 61.4063 16.8163C60.8463 16.2097 59.9363 15.9063 58.6763 15.9063C57.953 15.9063 57.323 16.128 56.7863 16.5713C56.2496 17.0146 55.9813 17.6096 55.9813 18.3563C55.9813 18.7296 56.063 19.0447 56.2263 19.3013C56.413 19.5347 56.5996 19.733 56.7863 19.8963C56.9963 20.0597 57.1013 20.153 57.1013 20.1763C57.1013 20.3163 56.9496 20.503 56.6463 20.7363C56.3663 20.9463 56.0163 21.0513 55.5963 21.0513C54.8963 21.0513 54.3363 20.7946 53.9163 20.2813C53.5196 19.768 53.3213 19.1613 53.3213 18.4613C53.3213 17.248 53.858 16.3496 54.9313 15.7663C56.028 15.183 57.3463 14.8913 58.8863 14.8913C60.7996 14.8913 62.3513 15.253 63.5413 15.9763C64.7546 16.6997 65.3613 18.0413 65.3613 20.0013V28.1563C65.3846 28.6463 65.5363 29.113 65.8163 29.5563C66.0963 29.9996 66.5513 30.2213 67.1813 30.2213C67.368 30.2213 67.4963 30.2563 67.5663 30.3263C67.6596 30.3963 67.7063 30.548 67.7063 30.7813C67.7063 31.0613 67.4846 31.2596 67.0413 31.3763C66.6213 31.5163 66.2013 31.5863 65.7813 31.5863C64.8946 31.5863 64.113 31.3297 63.4363 30.8163C62.7596 30.303 62.3746 29.6146 62.2813 28.7513C61.7913 29.6613 61.033 30.3613 60.0063 30.8513C59.003 31.3413 57.918 31.5863 56.7513 31.5863ZM57.8713 29.6963C58.6646 29.6963 59.3996 29.498 60.0763 29.1013C60.753 28.7047 61.2896 28.168 61.6863 27.4913C62.083 26.7913 62.2813 26.0213 62.2813 25.1813V23.1863C59.8313 23.373 58.1046 23.7696 57.1013 24.3763C56.098 24.983 55.5963 25.963 55.5963 27.3163C55.5963 28.903 56.3546 29.6963 57.8713 29.6963ZM57.9763 12.4063C57.8596 12.3596 57.7663 12.278 57.6963 12.1613C57.6263 12.0213 57.5913 11.8697 57.5913 11.7063C57.5913 11.5663 57.638 11.4146 57.7313 11.2513L60.3563 6.45631C60.613 5.91965 61.033 5.65131 61.6163 5.65131C61.7796 5.65131 62.0013 5.70964 62.2813 5.82631C62.538 5.96631 62.748 6.15297 62.9113 6.38631C63.0746 6.61964 63.1563 6.86464 63.1563 7.12131C63.1563 7.40131 63.0513 7.66965 62.8413 7.92632L59.2713 12.0913C59.0146 12.3713 58.7346 12.5113 58.4313 12.5113C58.268 12.5113 58.1163 12.4763 57.9763 12.4063Z" fill="white"/>
<path d="M78.6484 31.2713C78.4618 31.2713 78.3101 31.2013 78.1934 31.0613C78.1001 30.898 78.0534 30.7113 78.0534 30.5013C78.0768 30.1513 78.1468 29.9413 78.2634 29.8713C78.3801 29.8013 78.6018 29.7663 78.9284 29.7663C79.6051 29.7663 80.1068 29.6496 80.4334 29.4163C80.7601 29.1596 80.9584 28.8563 81.0284 28.5063C81.1218 28.133 81.1801 27.6547 81.2034 27.0713V13.1763C81.1801 12.593 81.1218 12.1263 81.0284 11.7763C80.9584 11.403 80.7601 11.0997 80.4334 10.8663C80.1068 10.6097 79.6051 10.4813 78.9284 10.4813H78.7184C78.4851 10.4813 78.3218 10.4463 78.2284 10.3763C78.1351 10.283 78.0768 10.073 78.0534 9.74631C78.0534 9.53631 78.1001 9.36132 78.1934 9.22132C78.3101 9.05798 78.4618 8.97632 78.6484 8.97632C80.1884 9.04632 81.5768 9.08132 82.8134 9.08132H88.2734C90.5134 9.08132 92.5434 9.53632 94.3634 10.4463C96.2068 11.333 97.6534 12.6163 98.7034 14.2963C99.7768 15.9763 100.313 17.9596 100.313 20.2463C100.313 22.6263 99.7068 24.6447 98.4934 26.3013C97.3034 27.9347 95.7401 29.1597 93.8034 29.9763C91.8901 30.7697 89.8368 31.1663 87.6434 31.1663H82.8134C81.5768 31.1663 80.1884 31.2013 78.6484 31.2713ZM88.1684 29.8713C90.8984 29.8713 92.8934 29.0313 94.1534 27.3513C95.4368 25.648 96.0784 23.2796 96.0784 20.2463C96.0784 18.333 95.7284 16.6296 95.0284 15.1363C94.3518 13.6196 93.3601 12.4413 92.0534 11.6013C90.7468 10.7613 89.1951 10.3413 87.3984 10.3413L84.6684 10.3763V27.4913C84.6684 28.4013 84.9368 29.0313 85.4734 29.3813C86.0334 29.708 86.9318 29.8713 88.1684 29.8713Z" fill="white"/>
<path d="M107.794 31.5863C106.394 31.5863 105.262 31.1897 104.399 30.3963C103.536 29.603 103.104 28.6113 103.104 27.4213C103.104 25.9513 103.594 24.8546 104.574 24.1313C105.554 23.3846 106.721 22.9063 108.074 22.6963C109.427 22.463 111.177 22.288 113.324 22.1713V19.4063C113.324 18.263 113.032 17.3997 112.449 16.8163C111.889 16.2097 110.979 15.9063 109.719 15.9063C108.996 15.9063 108.366 16.128 107.829 16.5713C107.292 17.0146 107.024 17.6096 107.024 18.3563C107.024 18.7296 107.106 19.0447 107.269 19.3013C107.456 19.5347 107.642 19.733 107.829 19.8963C108.039 20.0597 108.144 20.153 108.144 20.1763C108.144 20.3163 107.992 20.503 107.689 20.7363C107.409 20.9463 107.059 21.0513 106.639 21.0513C105.939 21.0513 105.379 20.7946 104.959 20.2813C104.562 19.768 104.364 19.1613 104.364 18.4613C104.364 17.248 104.901 16.3496 105.974 15.7663C107.071 15.183 108.389 14.8913 109.929 14.8913C111.842 14.8913 113.394 15.253 114.584 15.9763C115.797 16.6997 116.404 18.0413 116.404 20.0013V28.1563C116.427 28.6463 116.579 29.113 116.859 29.5563C117.139 29.9996 117.594 30.2213 118.224 30.2213C118.411 30.2213 118.539 30.2563 118.609 30.3263C118.702 30.3963 118.749 30.548 118.749 30.7813C118.749 31.0613 118.527 31.2596 118.084 31.3763C117.664 31.5163 117.244 31.5863 116.824 31.5863C115.937 31.5863 115.156 31.3297 114.479 30.8163C113.802 30.303 113.417 29.6146 113.324 28.7513C112.834 29.6613 112.076 30.3613 111.049 30.8513C110.046 31.3413 108.961 31.5863 107.794 31.5863ZM108.914 29.6963C109.707 29.6963 110.442 29.498 111.119 29.1013C111.796 28.7047 112.332 28.168 112.729 27.4913C113.126 26.7913 113.324 26.0213 113.324 25.1813V23.1863C110.874 23.373 109.147 23.7696 108.144 24.3763C107.141 24.983 106.639 25.963 106.639 27.3163C106.639 28.903 107.397 29.6963 108.914 29.6963Z" fill="white"/>
<path d="M121.167 31.2713C121.004 31.2713 120.864 31.2013 120.747 31.0613C120.654 30.9213 120.607 30.758 120.607 30.5713C120.63 30.268 120.7 30.093 120.817 30.0463C120.934 29.9763 121.144 29.9413 121.447 29.9413C122.054 29.9413 122.485 29.8363 122.742 29.6263C122.999 29.4163 123.139 29.1713 123.162 28.8913C123.209 28.6113 123.232 28.168 123.232 27.5613V19.5463C123.232 18.9396 123.209 18.4963 123.162 18.2163C123.139 17.9363 122.999 17.6913 122.742 17.4813C122.485 17.2713 122.054 17.1663 121.447 17.1663C121.167 17.1663 120.957 17.1313 120.817 17.0613C120.677 16.968 120.607 16.7696 120.607 16.4663C120.607 16.3263 120.654 16.198 120.747 16.0813C120.84 15.9413 120.98 15.8597 121.167 15.8363C122.684 15.603 123.932 15.2997 124.912 14.9263C125.309 14.8097 125.577 14.7396 125.717 14.7163H125.822C126.195 14.7163 126.382 14.938 126.382 15.3813V17.5863H126.487C127.164 16.9563 127.712 16.478 128.132 16.1513C128.552 15.8013 129.089 15.5096 129.742 15.2763C130.419 15.0196 131.212 14.8913 132.122 14.8913C133.709 14.8913 134.969 15.3696 135.902 16.3263C136.835 17.283 137.302 18.543 137.302 20.1063V27.5613C137.302 28.168 137.325 28.6113 137.372 28.8913C137.419 29.1713 137.57 29.4163 137.827 29.6263C138.084 29.8363 138.515 29.9413 139.122 29.9413H139.332C139.519 29.9413 139.659 29.9763 139.752 30.0463C139.845 30.1163 139.904 30.2913 139.927 30.5713C139.927 30.758 139.869 30.9213 139.752 31.0613C139.659 31.2013 139.53 31.2713 139.367 31.2713C138.014 31.2013 136.789 31.1663 135.692 31.1663C134.642 31.1663 133.429 31.2013 132.052 31.2713C131.889 31.2713 131.749 31.2013 131.632 31.0613C131.539 30.9213 131.492 30.758 131.492 30.5713C131.515 30.268 131.574 30.093 131.667 30.0463C131.784 29.9763 131.994 29.9413 132.297 29.9413C132.904 29.9413 133.335 29.8363 133.592 29.6263C133.849 29.4163 134 29.1713 134.047 28.8913C134.094 28.6113 134.117 28.168 134.117 27.5613V20.1413C134.117 19.068 133.779 18.2513 133.102 17.6913C132.425 17.108 131.644 16.8163 130.757 16.8163C129.684 16.8163 128.762 17.0846 127.992 17.6213C127.222 18.1346 126.697 18.6713 126.417 19.2313V27.5613C126.417 28.168 126.44 28.6113 126.487 28.8913C126.534 29.1713 126.685 29.4163 126.942 29.6263C127.199 29.8363 127.63 29.9413 128.237 29.9413H128.447C128.634 29.9413 128.774 29.9763 128.867 30.0463C128.96 30.1163 129.019 30.2913 129.042 30.5713C129.042 30.758 128.995 30.9213 128.902 31.0613C128.809 31.2013 128.669 31.2713 128.482 31.2713C127.129 31.2013 125.904 31.1663 124.807 31.1663C123.757 31.1663 122.544 31.2013 121.167 31.2713Z" fill="white"/>
<path d="M170.51 31.5863C168.924 31.5863 167.512 31.213 166.275 30.4663C165.039 29.6963 164.07 28.693 163.37 27.4563C162.694 26.1963 162.355 24.8663 162.355 23.4663C162.355 21.7163 162.764 20.1996 163.58 18.9163C164.397 17.6096 165.435 16.618 166.695 15.9413C167.955 15.2413 169.227 14.8913 170.51 14.8913C172.097 14.8913 173.509 15.2763 174.745 16.0463C175.982 16.793 176.939 17.7963 177.615 19.0563C178.315 20.293 178.665 21.6113 178.665 23.0113C178.665 24.7613 178.245 26.2897 177.405 27.5963C176.589 28.8797 175.55 29.8713 174.29 30.5713C173.03 31.248 171.77 31.5863 170.51 31.5863ZM170.51 30.2913C172.097 30.2913 173.252 29.6146 173.975 28.2613C174.722 26.908 175.095 25.158 175.095 23.0113C175.095 21.0046 174.71 19.3713 173.94 18.1113C173.194 16.828 172.05 16.1863 170.51 16.1863C168.9 16.1863 167.734 16.8513 167.01 18.1813C166.287 19.5113 165.925 21.2496 165.925 23.3963C165.925 25.403 166.299 27.0597 167.045 28.3663C167.792 29.6497 168.947 30.2913 170.51 30.2913Z" fill="white"/>
<path d="M201.048 31.8663C198.831 31.8663 196.871 31.3413 195.168 30.2913C193.488 29.218 192.181 27.8063 191.248 26.0563C190.338 24.3063 189.883 22.428 189.883 20.4213C189.883 17.9713 190.431 15.8363 191.528 14.0163C192.648 12.1963 194.071 10.808 195.798 9.85132C197.525 8.87132 199.275 8.38132 201.048 8.38132C203.288 8.38132 205.26 8.91799 206.963 9.99132C208.69 11.0413 210.008 12.4413 210.918 14.1913C211.851 15.918 212.318 17.7846 212.318 19.7913C212.318 22.2413 211.758 24.388 210.638 26.2313C209.518 28.0513 208.083 29.4513 206.333 30.4313C204.583 31.388 202.821 31.8663 201.048 31.8663ZM201.013 30.3263C202.6 30.3263 203.918 29.8597 204.968 28.9263C206.041 27.9697 206.835 26.698 207.348 25.1113C207.885 23.5013 208.153 21.728 208.153 19.7913C208.153 17.9946 207.885 16.3496 207.348 14.8563C206.811 13.3396 206.006 12.138 204.933 11.2513C203.86 10.3413 202.553 9.88631 201.013 9.88631C198.68 9.88631 196.918 10.878 195.728 12.8613C194.561 14.8213 193.978 17.3063 193.978 20.3163C193.978 22.1363 194.235 23.8046 194.748 25.3213C195.285 26.838 196.078 28.0513 197.128 28.9613C198.178 29.8713 199.473 30.3263 201.013 30.3263Z" fill="white"/>
<path d="M215.694 31.2713C215.531 31.2713 215.391 31.2013 215.274 31.0613C215.181 30.9213 215.134 30.758 215.134 30.5713C215.158 30.268 215.228 30.093 215.344 30.0463C215.461 29.9763 215.671 29.9413 215.974 29.9413C216.581 29.9413 217.013 29.8363 217.269 29.6263C217.526 29.4163 217.666 29.1713 217.689 28.8913C217.736 28.6113 217.759 28.168 217.759 27.5613V19.5463C217.759 18.9396 217.736 18.4963 217.689 18.2163C217.666 17.9363 217.526 17.6913 217.269 17.4813C217.013 17.2713 216.581 17.1663 215.974 17.1663C215.694 17.1663 215.484 17.1313 215.344 17.0613C215.204 16.968 215.134 16.7696 215.134 16.4663C215.134 16.3263 215.181 16.198 215.274 16.0813C215.368 15.9413 215.508 15.8597 215.694 15.8363C217.211 15.603 218.459 15.2997 219.439 14.9263C219.836 14.8097 220.104 14.7396 220.244 14.7163H220.349C220.723 14.7163 220.91 14.938 220.91 15.3813V17.5863H221.014C221.691 16.9563 222.239 16.478 222.66 16.1513C223.079 15.8013 223.616 15.5096 224.269 15.2763C224.946 15.0196 225.739 14.8913 226.649 14.8913C228.236 14.8913 229.496 15.3696 230.429 16.3263C231.363 17.283 231.829 18.543 231.829 20.1063V27.5613C231.829 28.168 231.853 28.6113 231.899 28.8913C231.946 29.1713 232.098 29.4163 232.354 29.6263C232.611 29.8363 233.043 29.9413 233.649 29.9413H233.859C234.046 29.9413 234.186 29.9763 234.279 30.0463C234.373 30.1163 234.431 30.2913 234.454 30.5713C234.454 30.758 234.396 30.9213 234.279 31.0613C234.186 31.2013 234.058 31.2713 233.894 31.2713C232.541 31.2013 231.316 31.1663 230.219 31.1663C229.169 31.1663 227.956 31.2013 226.579 31.2713C226.416 31.2713 226.276 31.2013 226.16 31.0613C226.066 30.9213 226.019 30.758 226.019 30.5713C226.043 30.268 226.101 30.093 226.194 30.0463C226.311 29.9763 226.521 29.9413 226.824 29.9413C227.431 29.9413 227.863 29.8363 228.119 29.6263C228.376 29.4163 228.528 29.1713 228.574 28.8913C228.621 28.6113 228.645 28.168 228.645 27.5613V20.1413C228.645 19.068 228.306 18.2513 227.629 17.6913C226.953 17.108 226.171 16.8163 225.285 16.8163C224.211 16.8163 223.289 17.0846 222.519 17.6213C221.749 18.1346 221.224 18.6713 220.944 19.2313V27.5613C220.944 28.168 220.968 28.6113 221.014 28.8913C221.061 29.1713 221.213 29.4163 221.469 29.6263C221.726 29.8363 222.158 29.9413 222.764 29.9413H222.974C223.161 29.9413 223.301 29.9763 223.394 30.0463C223.488 30.1163 223.546 30.2913 223.569 30.5713C223.569 30.758 223.523 30.9213 223.429 31.0613C223.336 31.2013 223.196 31.2713 223.009 31.2713C221.656 31.2013 220.431 31.1663 219.334 31.1663C218.284 31.1663 217.071 31.2013 215.694 31.2713Z" fill="white"/>
<path d="M261.328 31.5863C259.928 31.5863 258.796 31.1897 257.933 30.3963C257.069 29.603 256.638 28.6113 256.638 27.4213C256.638 25.9513 257.128 24.8546 258.108 24.1313C259.088 23.3846 260.254 22.9063 261.608 22.6963C262.961 22.463 264.711 22.288 266.858 22.1713V19.4063C266.858 18.263 266.566 17.3997 265.983 16.8163C265.423 16.2097 264.513 15.9063 263.253 15.9063C262.529 15.9063 261.899 16.128 261.363 16.5713C260.826 17.0146 260.558 17.6096 260.558 18.3563C260.558 18.7296 260.639 19.0447 260.803 19.3013C260.989 19.5347 261.176 19.733 261.363 19.8963C261.573 20.0597 261.678 20.153 261.678 20.1763C261.678 20.3163 261.526 20.503 261.223 20.7363C260.943 20.9463 260.593 21.0513 260.173 21.0513C259.473 21.0513 258.913 20.7946 258.493 20.2813C258.096 19.768 257.898 19.1613 257.898 18.4613C257.898 17.248 258.434 16.3496 259.508 15.7663C260.604 15.183 261.923 14.8913 263.463 14.8913C265.376 14.8913 266.928 15.253 268.118 15.9763C269.331 16.6997 269.938 18.0413 269.938 20.0013V28.1563C269.961 28.6463 270.113 29.113 270.393 29.5563C270.673 29.9996 271.128 30.2213 271.758 30.2213C271.944 30.2213 272.073 30.2563 272.143 30.3263C272.236 30.3963 272.283 30.548 272.283 30.7813C272.283 31.0613 272.061 31.2596 271.618 31.3763C271.198 31.5163 270.778 31.5863 270.358 31.5863C269.471 31.5863 268.689 31.3297 268.013 30.8163C267.336 30.303 266.951 29.6146 266.858 28.7513C266.368 29.6613 265.609 30.3613 264.583 30.8513C263.579 31.3413 262.494 31.5863 261.328 31.5863ZM262.448 29.6963C263.241 29.6963 263.976 29.498 264.653 29.1013C265.329 28.7047 265.866 28.168 266.263 27.4913C266.659 26.7913 266.858 26.0213 266.858 25.1813V23.1863C264.408 23.373 262.681 23.7696 261.678 24.3763C260.674 24.983 260.173 25.963 260.173 27.3163C260.173 28.903 260.931 29.6963 262.448 29.6963Z" fill="white"/>
<path fill-rule="evenodd" clip-rule="evenodd" d="M152.07 6.16626C152.07 8.3754 153.845 10.1663 156.035 10.1663C158.225 10.1663 160 8.3754 160 6.16626C160 3.95712 158.225 2.16626 156.035 2.16626C153.845 2.16626 152.07 3.95712 152.07 6.16626ZM156.035 8.16626C154.94 8.16626 154.053 7.27083 154.053 6.16626C154.053 5.06169 154.94 4.16626 156.035 4.16626C157.129 4.16626 158.018 5.06169 158.018 6.16626C158.018 7.27083 157.129 8.16626 156.035 8.16626Z" fill="white"/>
<path fill-rule="evenodd" clip-rule="evenodd" d="M157.773 11.9061V31.1942C157.773 31.4102 157.713 31.5782 157.594 31.6982C157.475 31.8422 157.309 31.9142 157.095 31.9142C156.881 31.9142 156.702 31.8182 156.559 31.6262C156.417 31.4582 156.286 31.2062 156.167 30.8702C156.048 30.5342 155.941 30.2702 155.846 30.0782H155.667C154.121 31.2542 152.289 31.8422 150.172 31.8422C148.744 31.8422 147.4 31.4582 146.139 30.6902C144.879 29.9222 143.879 28.8782 143.142 27.5582C142.381 26.2142 142 24.7382 142 23.1302C142 21.4982 142.333 20.0462 142.999 18.7742C143.641 17.4782 144.534 16.4702 145.676 15.7502C146.817 15.0302 148.09 14.6702 149.494 14.6702C150.35 14.6702 151.219 14.8502 152.099 15.2102C152.955 15.5462 153.728 16.0622 154.418 16.7582H154.525V11.9712C155.586 12.2514 156.723 12.229 157.773 11.9061ZM146.996 28.6382C147.876 29.9582 149.042 30.6182 150.493 30.6182C151.254 30.6182 151.932 30.4502 152.527 30.1142C153.098 29.7782 153.562 29.3822 153.919 28.9262C154.252 28.4462 154.454 28.0142 154.525 27.6302V18.1262C153.502 17.0222 152.242 16.4702 150.743 16.4702C149.054 16.4702 147.781 17.1422 146.924 18.4862C146.068 19.8062 145.64 21.4022 145.64 23.2742C145.64 25.5062 146.092 27.2942 146.996 28.6382Z" fill="white"/>
<path fill-rule="evenodd" clip-rule="evenodd" d="M247.07 6.16626C247.07 8.3754 248.845 10.1663 251.035 10.1663C253.225 10.1663 255 8.3754 255 6.16626C255 3.95712 253.225 2.16626 251.035 2.16626C248.845 2.16626 247.07 3.95712 247.07 6.16626ZM251.035 8.16626C249.94 8.16626 249.053 7.27083 249.053 6.16626C249.053 5.06169 249.94 4.16626 251.035 4.16626C252.129 4.16626 253.018 5.06169 253.018 6.16626C253.018 7.27083 252.129 8.16626 251.035 8.16626Z" fill="white"/>
<path fill-rule="evenodd" clip-rule="evenodd" d="M252.773 11.9061V31.1942C252.773 31.4102 252.713 31.5782 252.594 31.6982C252.475 31.8422 252.309 31.9142 252.095 31.9142C251.881 31.9142 251.702 31.8182 251.559 31.6262C251.417 31.4582 251.286 31.2062 251.167 30.8702C251.048 30.5342 250.941 30.2702 250.846 30.0782H250.667C249.121 31.2542 247.289 31.8422 245.172 31.8422C243.744 31.8422 242.4 31.4582 241.139 30.6902C239.879 29.9222 238.879 28.8782 238.142 27.5582C237.381 26.2142 237 24.7382 237 23.1302C237 21.4982 237.333 20.0462 237.999 18.7742C238.641 17.4782 239.534 16.4702 240.676 15.7502C241.817 15.0302 243.09 14.6702 244.494 14.6702C245.35 14.6702 246.219 14.8502 247.099 15.2102C247.955 15.5462 248.728 16.0622 249.418 16.7582H249.525V11.9712C250.586 12.2514 251.723 12.229 252.773 11.9061ZM241.996 28.6382C242.876 29.9582 244.042 30.6182 245.493 30.6182C246.254 30.6182 246.932 30.4502 247.527 30.1142C248.098 29.7782 248.562 29.3822 248.919 28.9262C249.252 28.4462 249.454 28.0142 249.525 27.6302V18.1262C248.502 17.0222 247.242 16.4702 245.743 16.4702C244.054 16.4702 242.781 17.1422 241.924 18.4862C241.068 19.8062 240.64 21.4022 240.64 23.2742C240.64 25.5062 241.092 27.2942 241.996 28.6382Z" fill="white"/>
<path fill-rule="evenodd" clip-rule="evenodd" d="M9.63967 0.445721C10.1612 0.0731874 10.8618 0.0731875 11.3834 0.445721C17.8802 5.08634 20.8255 10.6496 21.0111 18.6314C21.0968 22.4428 20.7299 25.9326 19.6133 28.9473C18.4681 31.9638 16.4315 34.7508 13.4332 37.1043C13.0549 37.3989 12.5585 37.4949 12.0976 37.3626C11.1793 37.099 11.023 36.0105 10.5115 35.332C9.99974 36.0109 9.84439 37.0988 8.9254 37.3626C8.46452 37.4949 7.96817 37.3989 7.58987 37.1043C4.5915 34.7508 2.55499 31.9638 1.40971 28.9473C0.293102 25.9326 -0.0737632 22.4428 0.0119281 18.6314C0.197553 10.6496 3.1428 5.08634 9.63967 0.445721ZM12.9984 33.6663C14.8746 31.9413 16.0052 30.0589 16.8041 27.8946C17.8092 25.2478 18.0991 22.3246 18.0119 18.7012C17.8672 12.4773 16.4108 8.42696 11.9984 4.66632V15.6663C13.7236 16.1103 14.4984 17.8025 14.4984 19.6663C14.4984 21.5301 13.7236 23.2223 11.9984 23.6663V32.6663C11.9984 32.6663 12.8001 33.4054 12.9984 33.6663ZM7.99835 33.6663C6.12206 31.9413 5.01787 30.0589 4.21893 27.8946C3.21389 25.2478 2.92391 22.3246 3.01112 18.7012C3.15557 12.4897 4.60442 8.42195 8.99835 4.66632V15.6663C7.27312 16.1103 6.49835 17.8025 6.49835 19.6663C6.49835 21.5301 7.27312 23.2223 8.99835 23.6663V32.6663C8.99835 32.6663 8.18923 33.415 7.99835 33.6663ZM10.4984 17.6663C9.39378 17.6663 8.49835 18.5617 8.49835 19.6663C8.49835 20.7709 9.39378 21.6663 10.4984 21.6663C11.6029 21.6663 12.4984 20.7709 12.4984 19.6663C12.4984 18.5617 11.6029 17.6663 10.4984 17.6663Z" fill="white"/>
</svg>
