<svg width="76" height="30" viewBox="0 0 76 30" fill="none" xmlns="http://www.w3.org/2000/svg">
<path fill-rule="evenodd" clip-rule="evenodd" d="M9.63969 0.331972C10.1612 0.041361 10.8618 0.041361 11.3834 0.331972C17.8802 3.95209 20.8255 8.29196 21.0111 14.5185C21.0968 17.4918 20.7299 20.2141 19.6133 22.5659C18.4681 24.919 16.4315 27.0931 13.4332 28.9291C13.0549 29.1589 12.5585 29.2338 12.0976 29.1306C11.1793 28.925 11.023 28.0758 10.5115 27.5465C9.99976 28.0761 9.84441 28.9248 8.92542 29.1306C8.46454 29.2338 7.96819 29.1589 7.58989 28.9291C4.59151 27.0931 2.555 24.919 1.40971 22.5659C0.293103 20.2141 -0.0737634 17.4918 0.0119281 14.5185C0.197553 8.29196 3.14281 3.95209 9.63969 0.331972ZM12.9984 26.2471C14.8746 24.9015 16.0052 23.433 16.8041 21.7447C17.8092 19.6799 18.0991 17.3996 18.0119 14.573C17.8672 9.71774 16.4108 6.55808 11.9984 3.62443V12.2055C13.7236 12.5518 14.4984 13.8719 14.4984 15.3258C14.4984 16.7798 13.7236 18.0998 11.9984 18.4462V25.467C11.9984 25.467 12.8001 26.0436 12.9984 26.2471ZM7.99837 26.2471C6.12207 24.9015 5.01788 23.433 4.21894 21.7447C3.2139 19.6799 2.92392 17.3996 3.01113 14.573C3.15558 9.72741 4.60443 6.55417 8.99837 3.62443V12.2055C7.27313 12.5518 6.49836 13.8719 6.49836 15.3258C6.49836 16.7798 7.27313 18.0998 8.99837 18.4462V25.467C8.99837 25.467 8.18925 26.0511 7.99837 26.2471ZM10.4984 13.7656C9.3938 13.7656 8.49837 14.4641 8.49837 15.3258C8.49837 16.1875 9.3938 16.886 10.4984 16.886C11.6029 16.886 12.4984 16.1875 12.4984 15.3258C12.4984 14.4641 11.6029 13.7656 10.4984 13.7656Z" fill="#1188EE"/>
<path fill-rule="evenodd" clip-rule="evenodd" d="M63.6397 0.331972C64.1612 0.041361 64.8618 0.041361 65.3834 0.331972C71.8802 3.95209 74.8255 8.29196 75.0111 14.5185C75.0968 17.4918 74.7299 20.2141 73.6133 22.5659C72.4681 24.919 70.4315 27.0931 67.4332 28.9291C67.0549 29.1589 66.5585 29.2338 66.0976 29.1306C65.1793 28.925 65.023 28.0758 64.5115 27.5465C63.9998 28.0761 63.8444 28.9248 62.9254 29.1306C62.4645 29.2338 61.9682 29.1589 61.5899 28.9291C58.5915 27.0931 56.555 24.919 55.4097 22.5659C54.2931 20.2141 53.9262 17.4918 54.0119 14.5185C54.1976 8.29196 57.1428 3.95209 63.6397 0.331972ZM66.9984 26.2471C68.8746 24.9015 70.0052 23.433 70.8041 21.7447C71.8092 19.6799 72.0991 17.3996 72.0119 14.573C71.8672 9.71774 70.4108 6.55808 65.9984 3.62443V12.2055C67.7236 12.5518 68.4984 13.8719 68.4984 15.3258C68.4984 16.7798 67.7236 18.0998 65.9984 18.4462V25.467C65.9984 25.467 66.8001 26.0436 66.9984 26.2471ZM61.9984 26.2471C60.1221 24.9015 59.0179 23.433 58.2189 21.7447C57.2139 19.6799 56.9239 17.3996 57.0111 14.573C57.1556 9.72741 58.6044 6.55417 62.9984 3.62443V12.2055C61.2731 12.5518 60.4984 13.8719 60.4984 15.3258C60.4984 16.7798 61.2731 18.0998 62.9984 18.4462V25.467C62.9984 25.467 62.1892 26.0511 61.9984 26.2471ZM64.4984 13.7656C63.3938 13.7656 62.4984 14.4641 62.4984 15.3258C62.4984 16.1875 63.3938 16.886 64.4984 16.886C65.6029 16.886 66.4984 16.1875 66.4984 15.3258C66.4984 14.4641 65.6029 13.7656 64.4984 13.7656Z" fill="#1188EE"/>
<path fill-rule="evenodd" clip-rule="evenodd" d="M37.6397 0.331972C38.1612 0.041361 38.8618 0.041361 39.3834 0.331972C45.8802 3.95209 48.8255 8.29196 49.0111 14.5185C49.0968 17.4918 48.7299 20.2141 47.6133 22.5659C46.4681 24.919 44.4315 27.0931 41.4332 28.9291C41.0549 29.1589 40.5585 29.2338 40.0976 29.1306C39.1793 28.925 39.023 28.0758 38.5115 27.5465C37.9998 28.0761 37.8444 28.9248 36.9254 29.1306C36.4645 29.2338 35.9682 29.1589 35.5899 28.9291C32.5915 27.0931 30.555 24.919 29.4097 22.5659C28.2931 20.2141 27.9262 17.4918 28.0119 14.5185C28.1976 8.29196 31.1428 3.95209 37.6397 0.331972ZM40.9984 26.2471C42.8746 24.9015 44.0052 23.433 44.8041 21.7447C45.8092 19.6799 46.0991 17.3996 46.0119 14.573C45.8672 9.71774 44.4108 6.55808 39.9984 3.62443V12.2055C41.7236 12.5518 42.4984 13.8719 42.4984 15.3258C42.4984 16.7798 41.7236 18.0998 39.9984 18.4462V25.467C39.9984 25.467 40.8001 26.0436 40.9984 26.2471ZM35.9984 26.2471C34.1221 24.9015 33.0179 23.433 32.2189 21.7447C31.2139 19.6799 30.9239 17.3996 31.0111 14.573C31.1556 9.72741 32.6044 6.55417 36.9984 3.62443V12.2055C35.2731 12.5518 34.4984 13.8719 34.4984 15.3258C34.4984 16.7798 35.2731 18.0998 36.9984 18.4462V25.467C36.9984 25.467 36.1892 26.0511 35.9984 26.2471ZM38.4984 13.7656C37.3938 13.7656 36.4984 14.4641 36.4984 15.3258C36.4984 16.1875 37.3938 16.886 38.4984 16.886C39.6029 16.886 40.4984 16.1875 40.4984 15.3258C40.4984 14.4641 39.6029 13.7656 38.4984 13.7656Z" fill="#1188EE"/>
</svg>
