<svg width="20" height="19" viewBox="0 0 20 19" fill="none" xmlns="http://www.w3.org/2000/svg">
<path d="M9.23865 2.73834L10 3.6324L10.7614 2.73834C11.6678 1.67394 13.0628 1 14.5 1C17.0277 1 19 2.97229 19 5.5C19 7.06152 18.3068 8.55647 16.8822 10.2981C15.4462 12.0538 13.3734 13.936 10.7783 16.2892L10.7768 16.2905L9.99745 17L9.22253 16.2999C9.22217 16.2996 9.22181 16.2993 9.22145 16.2989C6.62661 13.9409 4.55409 12.0566 3.11801 10.2996C1.69325 8.55653 1 7.06153 1 5.5C1 2.97229 2.97228 1 5.5 1C6.93721 1 8.33224 1.67394 9.23865 2.73834Z" fill="#1188EE" stroke="#FF3726" stroke-width="2"/>
</svg>
