<svg width="64" height="65" viewBox="0 0 64 65" fill="none" xmlns="http://www.w3.org/2000/svg">
<path fill-rule="evenodd" clip-rule="evenodd" d="M32.7906 14.7262C29.8987 14.5032 26.9024 15.1343 24.3327 16.4453C21.2891 17.9983 18.4727 20.3985 16.7369 23.4397C14.995 26.4921 14.1564 30.2019 14.5589 33.7227C15.0402 37.9318 16.792 42.3563 20.0039 45.3302C23.4586 48.5288 28.4306 50.613 33.2172 50.2834C38.0753 49.949 42.7315 47.1281 45.7861 43.484C48.3758 40.3945 49.5185 36.193 49.5431 32.2939C49.5592 27.8829 48.5552 22.826 45.3006 19.4387C42.0605 16.0668 37.0801 15.061 32.7906 14.7307V14.7262ZM32.6091 17.044C36.6562 17.3557 41.0696 18.3886 43.6217 21.0447C46.2201 23.7487 47.2346 28.2456 47.2199 32.2803C47.1981 35.7251 46.1361 39.4522 44.0074 41.9917C41.3311 45.1846 37.0978 47.6871 33.0538 47.9655C29.0693 48.2398 24.5785 46.4028 21.583 43.6292C18.9172 41.1609 17.2924 37.2073 16.8639 33.4596C16.5249 30.4939 17.2572 27.2058 18.7515 24.5873C20.2069 22.0371 22.693 19.8876 25.3854 18.5137C27.5671 17.4008 30.1823 16.8571 32.6091 17.044Z" fill="#1188EE"/>
<path fill-rule="evenodd" clip-rule="evenodd" d="M34.2154 0.061177C25.5583 -0.534519 16.4134 3.27467 10.1121 9.10598C4.30629 14.4789 1.06225 22.5944 0.179506 30.3115C-0.550376 36.6921 0.979536 43.4928 4.14983 49.0449C7.29424 54.5513 12.4506 58.9524 18.0256 61.7955C22.6922 64.1752 28.1686 65.3239 33.4077 64.9207C41.3762 64.3076 50.4985 62.4042 56.295 56.375C62.1332 50.3029 64.0292 41.0312 63.9997 32.897C63.9565 25.76 61.8427 18.0651 57.1707 12.4943C51.5867 5.83624 43.0021 0.67084 34.2154 0.0658547V0.061177ZM34.0566 2.37465C42.0296 2.92366 50.182 7.77527 55.3875 13.9821C59.5985 19.0031 61.636 26.224 61.6765 32.9061C61.7046 40.664 59.8023 49.3754 54.6206 54.7648C49.5124 60.0782 40.9524 62.0129 33.2262 62.6074C28.4519 62.9748 23.3614 61.909 19.0828 59.7271C13.859 57.0633 9.03289 52.908 6.16902 47.8928C3.24647 42.7745 1.82273 36.3999 2.4891 30.5746C3.31902 23.3192 6.43157 15.679 11.6912 10.8115C17.5333 5.40518 26.2013 1.83399 34.0566 2.37465Z" fill="#1188EE"/>
<path fill-rule="evenodd" clip-rule="evenodd" d="M18.6018 4.26619L16.5962 5.441L24.1467 18.3594L26.1522 17.1846L18.6018 4.26619Z" fill="#1188EE"/>
<path fill-rule="evenodd" clip-rule="evenodd" d="M46.8342 4.93751L38.8482 16.985L40.7812 18.2686L48.7672 6.22118L46.8342 4.93751Z" fill="#1188EE"/>
<path fill-rule="evenodd" clip-rule="evenodd" d="M57.511 15.47L45.895 22.4372L47.0929 24.4284L58.7089 17.4612L57.511 15.47Z" fill="#1188EE"/>
<path fill-rule="evenodd" clip-rule="evenodd" d="M47.5239 38.254L46.3351 40.2498L59.984 48.3782L61.1728 46.3824L47.5239 38.254Z" fill="#1188EE"/>
<path fill-rule="evenodd" clip-rule="evenodd" d="M42.2151 45.6839L40.028 46.4686L45.2552 60.9836L47.4423 60.1989L42.2151 45.6839Z" fill="#1188EE"/>
<path fill-rule="evenodd" clip-rule="evenodd" d="M22.8399 46.5094L15.5798 58.9923L17.5854 60.158L24.8454 47.6751L22.8399 46.5094Z" fill="#1188EE"/>
<path fill-rule="evenodd" clip-rule="evenodd" d="M17.4674 38.9661L4.5446 46.2236L5.67897 48.2512L18.6018 40.9937L17.4674 38.9661Z" fill="#1188EE"/>
<path fill-rule="evenodd" clip-rule="evenodd" d="M5.72435 16.1186L4.6172 18.1598L16.6688 24.6915L17.776 22.6504L5.72435 16.1186Z" fill="#1188EE"/>
<path fill-rule="evenodd" clip-rule="evenodd" d="M7.53482 20.2328C7.40293 20.2279 7.2733 20.2682 7.16728 20.3468L2.30306 23.8304C2.17789 23.9206 2.0937 24.0569 2.06901 24.2091C2.04432 24.3614 2.08116 24.5172 2.17142 24.6423C2.26167 24.7674 2.39796 24.8515 2.55029 24.8762C2.70262 24.9009 2.85852 24.8641 2.98369 24.7739L7.84791 21.2903C7.94829 21.2206 8.02414 21.1211 8.06467 21.0059C8.1052 20.8907 8.10835 20.7655 8.07367 20.6484C8.03899 20.5313 7.96825 20.4282 7.87151 20.3536C7.77476 20.279 7.65695 20.2366 7.53482 20.2328Z" fill="#1188EE"/>
<path fill-rule="evenodd" clip-rule="evenodd" d="M8.31981 22.0471C8.16829 22.0445 8.02174 22.1011 7.91143 22.205L1.45001 28.1561C1.39369 28.208 1.34813 28.2704 1.31594 28.3398C1.28375 28.4093 1.26555 28.4842 1.26239 28.5607C1.25923 28.6371 1.27116 28.7134 1.29751 28.7852C1.32386 28.8571 1.36411 28.9231 1.41595 28.9794C1.4678 29.0357 1.53023 29.0813 1.59968 29.1135C1.66913 29.1457 1.74424 29.1637 1.82072 29.1668C1.8972 29.17 1.97355 29.158 2.04541 29.1316C2.11727 29.1053 2.18324 29.065 2.23954 29.0131L8.70096 23.062C8.78922 22.9841 8.85174 22.8816 8.88023 22.7674C8.90873 22.6533 8.90186 22.5329 8.86053 22.4227C8.8192 22.3125 8.74536 22.2176 8.6488 22.1503C8.55224 22.083 8.43751 22.0477 8.31981 22.0471Z" fill="#1188EE"/>
<path fill-rule="evenodd" clip-rule="evenodd" d="M9.21824 24.5873C9.08841 24.5963 8.96537 24.6486 8.86885 24.7359L0.519819 32.0662C0.459123 32.1153 0.408941 32.176 0.372272 32.2448C0.335603 32.3137 0.313198 32.3894 0.306396 32.4671C0.299594 32.5448 0.308534 32.6231 0.332683 32.6973C0.356832 32.7715 0.395695 32.84 0.446948 32.8989C0.498202 32.9577 0.560796 33.0056 0.630991 33.0398C0.701186 33.0739 0.777542 33.0936 0.855497 33.0976C0.933453 33.1016 1.01141 33.0898 1.08471 33.063C1.15801 33.0362 1.22515 32.9947 1.28212 32.9414L9.63569 25.6116C9.73046 25.5327 9.79766 25.4256 9.82757 25.306C9.85748 25.1864 9.84854 25.0604 9.80204 24.9462C9.75555 24.8321 9.67391 24.7357 9.56896 24.671C9.464 24.6062 9.34117 24.5776 9.21824 24.5873Z" fill="#1188EE"/>
<path fill-rule="evenodd" clip-rule="evenodd" d="M9.70375 27.4176C9.55287 27.4137 9.40641 27.4685 9.29537 27.5707L1.09155 34.9734C0.977254 35.0768 0.908753 35.2217 0.901109 35.3757C0.893466 35.5296 0.947305 35.6801 1.05079 35.7944C1.15427 35.9086 1.29892 35.9772 1.45292 35.9849C1.60692 35.9926 1.75767 35.9386 1.872 35.8352L10.0758 28.4325C10.1636 28.3552 10.2259 28.2533 10.2547 28.14C10.2834 28.0267 10.2773 27.9073 10.2371 27.7975C10.1969 27.6877 10.1245 27.5928 10.0293 27.5248C9.93416 27.4568 9.82068 27.4201 9.70375 27.4176Z" fill="#1188EE"/>
<path fill-rule="evenodd" clip-rule="evenodd" d="M10.5296 30.248C10.4003 30.2558 10.2773 30.3065 10.1802 30.3921L1.32296 38.0124C1.26344 38.0616 1.21434 38.1221 1.17853 38.1905C1.14272 38.2589 1.12091 38.3338 1.1144 38.4107C1.10788 38.4877 1.11678 38.5652 1.14057 38.6387C1.16437 38.7121 1.20258 38.78 1.25297 38.8385C1.30336 38.8971 1.36492 38.945 1.43405 38.9794C1.50318 39.0139 1.57849 39.0343 1.65557 39.0393C1.73264 39.0443 1.80995 39.0339 1.88295 39.0086C1.95595 38.9834 2.02319 38.9439 2.08072 38.8924L10.938 31.272C11.0319 31.1936 11.0986 31.0876 11.1286 30.969C11.1586 30.8504 11.1504 30.7254 11.1051 30.6118C11.0599 30.4981 10.9798 30.4014 10.8765 30.3359C10.7731 30.2704 10.6517 30.2405 10.5296 30.248Z" fill="#1188EE"/>
<path fill-rule="evenodd" clip-rule="evenodd" d="M11.546 33.5139C11.4151 33.5206 11.2904 33.5714 11.1921 33.6579L2.26223 41.3509C2.14552 41.4519 2.07376 41.5952 2.06271 41.7492C2.05166 41.9031 2.10224 42.0549 2.20332 42.1716C2.30439 42.2883 2.44769 42.3601 2.6017 42.3712C2.7557 42.3823 2.90779 42.3319 3.02453 42.2309L11.9544 34.5379C12.0483 34.4595 12.115 34.3532 12.145 34.2346C12.175 34.116 12.1668 33.991 12.1215 33.8774C12.0763 33.7637 11.9962 33.6673 11.8929 33.6018C11.7895 33.5363 11.6681 33.5064 11.546 33.5139Z" fill="#1188EE"/>
<path fill-rule="evenodd" clip-rule="evenodd" d="M12.2085 37.1427C12.0779 37.1488 11.9532 37.1985 11.8545 37.2842L3.3603 44.3965C3.30161 44.4453 3.25311 44.5055 3.21758 44.5731C3.18205 44.6407 3.16019 44.7145 3.15324 44.7906C3.14629 44.8666 3.15439 44.943 3.17707 45.0159C3.19976 45.0888 3.23658 45.1566 3.28545 45.2152C3.33431 45.2739 3.39426 45.3226 3.46187 45.3581C3.52948 45.3936 3.60342 45.4153 3.67947 45.4222C3.75553 45.4291 3.8322 45.4211 3.90512 45.3984C3.97804 45.3757 4.04577 45.3389 4.10446 45.2901L12.5987 38.1777C12.6948 38.1012 12.7642 37.9962 12.7968 37.8778C12.8294 37.7594 12.8237 37.6335 12.7803 37.5186C12.7369 37.4037 12.6582 37.3053 12.5554 37.2379C12.4527 37.1706 12.3312 37.1367 12.2085 37.1427Z" fill="#1188EE"/>
</svg>
