<svg width="40" height="40" viewBox="0 0 40 40" fill="none" xmlns="http://www.w3.org/2000/svg">
<g clip-path="url(#clip0)">
<path fill-rule="evenodd" clip-rule="evenodd" d="M39.85 7.69994C38.5788 8.27494 37.18 8.62369 35.81 8.85369C36.46 8.74369 37.42 7.56619 37.8038 7.08869C38.3888 6.36244 38.875 5.53244 39.1488 4.63869C39.1838 4.56869 39.2113 4.48119 39.1413 4.42744C39.0538 4.39369 38.9963 4.41119 38.9263 4.44619C37.4094 5.25613 35.7974 5.87341 34.1275 6.28369C34.0697 6.30169 34.0079 6.30304 33.9493 6.28756C33.8907 6.27209 33.8377 6.24042 33.7963 6.19619C33.668 6.04225 33.528 5.89848 33.3775 5.76619C32.6843 5.16906 31.8992 4.68786 31.0525 4.34119C29.9222 3.88339 28.7031 3.68683 27.4863 3.76619C26.3042 3.84655 25.1518 4.17221 24.1025 4.72244C23.0514 5.27189 22.1234 6.02982 21.375 6.94994C20.5984 7.90529 20.0419 9.02006 19.745 10.2149C19.465 11.3649 19.4875 12.4999 19.6575 13.6612C19.685 13.8537 19.6675 13.8799 19.4938 13.8537C12.8988 12.8749 7.43626 10.5149 3.00001 5.46244C2.80751 5.24244 2.70251 5.24244 2.54501 5.47869C0.603765 8.38869 1.54501 13.0624 3.97001 15.3599C4.29376 15.6662 4.62501 15.9724 4.98376 16.2512C4.85376 16.2787 3.24001 16.1037 1.80126 15.3599C1.60876 15.2387 1.51251 15.3087 1.49501 15.5262C1.48252 15.8421 1.5001 16.1586 1.54751 16.4712C1.92001 19.4212 3.96251 22.1487 6.76001 23.2137C7.09251 23.3524 7.45877 23.4762 7.81751 23.5362C7.18002 23.6762 6.52376 23.7762 4.69626 23.6337C4.46876 23.5887 4.38126 23.7024 4.46876 23.9212C5.84126 27.6649 8.80626 28.7787 11.0263 29.4124C11.3238 29.4649 11.6213 29.4649 11.9188 29.5349C11.9013 29.5612 11.8838 29.5612 11.8663 29.5874C11.1288 30.7099 8.57626 31.5462 7.38751 31.9624C5.22501 32.7174 2.87126 33.0574 0.585015 32.8324C0.220015 32.7787 0.142515 32.7824 0.0437646 32.8324C-0.0562354 32.8949 0.0312646 32.9824 0.148765 33.0762C0.611265 33.3824 1.08376 33.6537 1.56501 33.9162C3.00994 34.6866 4.53486 35.2964 6.11251 35.7349C14.2838 37.9912 23.4875 36.3337 29.625 30.2374C34.4413 25.4499 36.13 18.8487 36.13 12.2374C36.13 11.9799 36.435 11.8374 36.6175 11.6999C37.8713 10.7587 38.8675 9.63119 39.8025 8.37244C40.0125 8.08994 40 7.83869 40 7.73494V7.69994C40 7.59494 40.0125 7.62619 39.85 7.69994Z" fill="#FF3726"/>
</g>
<defs>
<clipPath id="clip0">
<rect width="40" height="40" fill="white"/>
</clipPath>
</defs>
</svg>
