<svg width="53" height="56" viewBox="0 0 53 56" fill="none" xmlns="http://www.w3.org/2000/svg">
<path fill-rule="evenodd" clip-rule="evenodd" d="M12.2481 9.85067C12.0919 9.84522 11.9363 9.87234 11.7908 9.93004C11.6453 9.98773 11.5129 10.0749 11.4019 10.1863C11.4019 10.1863 7.02763 14.5454 4.94979 17.0386C3.71135 18.5242 2.18737 20.0615 1.23793 22.1178C0.513237 23.6872 -0.0467539 25.4849 0.0200491 27.3693C0.0833721 29.1428 0.79322 30.6997 1.45285 32.0494C2.46772 34.1262 4.93636 37.0969 4.93636 37.0969C5.03189 37.2148 5.14942 37.3123 5.28225 37.3843C5.41507 37.4562 5.56058 37.5011 5.71048 37.5161C5.86037 37.531 6.0117 37.5158 6.15584 37.4716C6.29998 37.4273 6.43409 37.3546 6.55053 37.2579C6.66696 37.1611 6.76343 37.0421 6.83443 36.9075C6.90543 36.773 6.94957 36.6257 6.96433 36.4739C6.97909 36.3221 6.96418 36.1686 6.92044 36.0226C6.87671 35.8767 6.80502 35.7409 6.70945 35.623C6.70945 35.623 4.2139 32.4642 3.50803 31.02C2.87883 29.7325 2.34973 28.4549 2.30806 27.2877C2.26024 25.9387 2.68671 24.4637 3.3155 23.1019C4.04278 21.5267 5.38557 20.1127 6.7005 18.5352C8.33675 16.572 11.2062 13.7037 12.1407 12.7621C12.9844 13.7283 15.2813 16.32 16.4704 18.1225C17.6281 19.8776 18.7628 21.57 19.2599 23.3377C19.7359 25.0295 19.8758 26.8741 19.5868 28.5666C19.4035 29.6351 18.9018 30.7266 18.248 31.7048C17.9679 32.1239 17.23 32.9003 16.5958 33.4961C15.9616 34.0917 15.4272 34.5391 15.4272 34.5391C15.311 34.6365 15.2149 34.7562 15.1444 34.8912C15.0739 35.0261 15.0303 35.1739 15.0162 35.326C15.0021 35.478 15.0176 35.6312 15.062 35.7772C15.1064 35.9231 15.1787 36.0586 15.2748 36.1763C15.371 36.2939 15.4891 36.3914 15.6223 36.4628C15.7556 36.5342 15.9014 36.5783 16.0516 36.5926C16.2017 36.607 16.3531 36.5911 16.4972 36.5462C16.6413 36.5012 16.7752 36.4278 16.8913 36.3305C16.8913 36.3305 17.4693 35.8396 18.154 35.1967C18.8386 34.5535 19.6233 33.789 20.1465 33.0063C20.9346 31.8275 21.591 30.4637 21.8479 28.9656C22.2049 26.8759 22.0254 24.707 21.4629 22.7074C20.8257 20.4419 19.5199 18.5705 18.3778 16.8391C16.7287 14.3393 13.0586 10.2407 13.0586 10.2407C12.9559 10.1247 12.8313 10.0308 12.692 9.96462C12.5528 9.8984 12.4018 9.86138 12.2481 9.85549V9.85067Z" fill="#1188EE"/>
<path fill-rule="evenodd" clip-rule="evenodd" d="M15.36 0.123023C12.4109 -0.447471 9.67244 1.08383 7.49749 2.29982C5.46714 3.435 3.51363 5.01568 2.21851 7.11144C0.768416 9.45796 0.193122 12.2291 0.0200492 14.8345C-0.0819733 16.3795 0.22328 18.3279 0.530486 19.9772C0.83769 21.6264 1.16629 22.9431 1.16629 22.9431L3.38714 22.3762C3.38714 22.3762 3.07576 21.1197 2.78267 19.5464C2.48959 17.9728 2.23814 16.0475 2.30806 14.9887C2.4651 12.6245 3.00299 10.2201 4.16175 8.34495C5.17607 6.70382 6.8277 5.32689 8.60792 4.33149C10.7378 3.14058 13.0495 2.04051 14.9302 2.40412C16.626 2.73221 18.3286 4.3119 19.4614 6.0185C20.6411 7.7957 21.1914 10.1839 21.1942 12.4491C21.196 13.9611 20.1971 15.6746 19.7032 17.8321C19.4 19.157 18.9778 21.6415 18.9778 21.6415L21.239 22.0361C21.239 22.0361 21.674 19.5051 21.9375 18.3537H21.9329C22.3087 16.7121 23.4894 14.837 23.4866 12.4491C23.4834 9.81839 22.8815 7.00719 21.3642 4.7215C20.0248 2.70352 18.0167 0.636862 15.36 0.123023Z" fill="#1188EE"/>
<path fill-rule="evenodd" clip-rule="evenodd" d="M1.85583 31.8498C1.85583 31.8498 0.519084 39.4146 0.624514 43.5727C0.681906 45.8733 0.387048 48.7818 1.91851 51.2414H1.91404C3.36342 53.5698 5.83926 55.3773 8.55867 55.8716C11.1274 56.3383 13.7647 55.4333 15.7854 54.0485C18.0866 52.4717 19.7369 49.9896 20.5897 47.4002C21.4829 44.6882 20.8309 41.9778 20.7465 39.7044C20.6568 37.2513 20.133 32.6391 20.133 32.6391L17.854 32.9022C17.854 32.9022 18.3779 37.5762 18.4585 39.7908C18.5535 42.3709 19.0376 44.7711 18.4137 46.6656C17.7063 48.8138 16.2878 50.8994 14.5048 52.1214C12.8891 53.2285 10.7188 53.9048 8.96613 53.5862C7.00154 53.2294 4.94615 51.7524 3.85729 50.0033C2.87115 48.4195 2.97883 45.992 2.91701 43.514C2.82712 39.9689 4.11699 32.2491 4.11699 32.2491L1.85583 31.8498Z" fill="#1188EE"/>
<path fill-rule="evenodd" clip-rule="evenodd" d="M12.1093 7.27016C11.8053 7.26898 11.5133 7.38999 11.2975 7.60688C11.0817 7.82377 10.9598 8.11866 10.9586 8.42658L10.9094 11.0932C10.9063 11.2456 10.933 11.397 10.9878 11.539C11.0427 11.681 11.1246 11.8108 11.2289 11.9208C11.3332 12.0307 11.4579 12.119 11.5958 12.1801C11.7337 12.2413 11.8822 12.2743 12.0327 12.2773C12.1832 12.2804 12.3328 12.2532 12.4731 12.1977C12.6133 12.1422 12.7413 12.0593 12.8499 11.9537C12.9585 11.848 13.0454 11.7218 13.1058 11.5821C13.1662 11.4424 13.1988 11.2921 13.2018 11.1396L13.2511 8.46853C13.2559 8.31341 13.2299 8.15868 13.1748 8.0139C13.1196 7.86911 13.0363 7.73722 12.9299 7.62559C12.8234 7.51396 12.696 7.42486 12.555 7.36398C12.4141 7.30309 12.2626 7.2707 12.1093 7.27016Z" fill="#1188EE"/>
<path fill-rule="evenodd" clip-rule="evenodd" d="M40.7699 9.85049C40.6131 9.85394 40.4587 9.88991 40.3163 9.95621C40.1738 10.0225 40.0462 10.1178 39.9415 10.236C39.9415 10.236 36.2714 14.3346 34.6223 16.8344C33.4802 18.5658 32.1744 20.4371 31.5373 22.7026C30.9747 24.7023 30.7952 26.8712 31.1522 28.9609C31.4091 30.459 32.0655 31.8225 32.8536 33.0013C33.3768 33.784 34.1615 34.5488 34.8461 35.192C35.5308 35.8349 36.1088 36.3257 36.1088 36.3257C36.2249 36.4231 36.3589 36.4965 36.5029 36.5414C36.647 36.5864 36.7984 36.6019 36.9485 36.5876C37.0987 36.5733 37.2445 36.5292 37.3778 36.4578C37.511 36.3864 37.6291 36.2892 37.7253 36.1715C37.8214 36.0539 37.8937 35.9181 37.9381 35.7722C37.9825 35.6262 37.998 35.473 37.9839 35.321C37.9698 35.1689 37.9262 35.0211 37.8557 34.8862C37.7852 34.7512 37.6891 34.6318 37.5729 34.5344C37.5729 34.5344 37.0385 34.0869 36.4043 33.4914C35.7701 32.8956 35.0322 32.1192 34.7521 31.7001C34.0983 30.7218 33.5966 29.6301 33.4133 28.5616C33.1243 26.8691 33.2642 25.0247 33.7402 23.333C34.2373 21.5653 35.372 19.8729 36.5297 18.1178C37.7188 16.3153 40.0157 13.7236 40.8594 12.7574C41.7939 13.6989 44.6634 16.5673 46.2996 18.5305C47.6145 20.108 48.9573 21.522 49.6846 23.0972C50.3134 24.459 50.7399 25.9337 50.692 27.2827C50.6504 28.4499 50.1213 29.7278 49.4921 31.0153C48.7862 32.4595 46.2907 35.6183 46.2907 35.6183C46.1951 35.7362 46.1234 35.8719 46.0797 36.0179C46.036 36.1639 46.0211 36.3171 46.0358 36.4689C46.0506 36.6207 46.0947 36.7683 46.1657 36.9028C46.2367 37.0373 46.3332 37.1564 46.4496 37.2531C46.5661 37.3499 46.7002 37.4223 46.8443 37.4666C46.9884 37.5108 47.1398 37.526 47.2896 37.5111C47.4395 37.4961 47.585 37.4515 47.7179 37.3796C47.8507 37.3076 47.9682 37.2098 48.0637 37.0919C48.0637 37.0919 50.5324 34.1211 51.5473 32.0444C52.2069 30.6947 52.9167 29.1381 52.9801 27.3646C53.0469 25.4801 52.4869 23.6825 51.7622 22.1131C50.8127 20.0568 49.2888 18.5195 48.0503 17.0339C45.9725 14.5406 41.5982 10.1815 41.5982 10.1815C41.4893 10.0724 41.3599 9.98634 41.2176 9.92872C41.0753 9.87109 40.9231 9.84297 40.7699 9.84595V9.85049Z" fill="#1188EE"/>
<path fill-rule="evenodd" clip-rule="evenodd" d="M37.6401 0.123023C34.9834 0.636862 32.9752 2.70352 31.6358 4.7215C30.1185 7.00719 29.5166 9.81839 29.5134 12.4491C29.5107 14.837 30.6913 16.7121 31.0671 18.3537H31.0625C31.326 19.5051 31.761 22.0361 31.761 22.0361L34.0222 21.6415C34.0222 21.6415 33.6 19.157 33.2968 17.8321C32.8029 15.6746 31.804 13.9611 31.8058 12.4491C31.8085 10.1839 32.3589 7.7957 33.5386 6.0185C34.6714 4.3119 36.374 2.73221 38.0698 2.40412C39.9506 2.04051 42.2622 3.14058 44.3921 4.33149C46.1723 5.32689 47.8239 6.70382 48.8383 8.34495C49.997 10.2201 50.5349 12.6245 50.6919 14.9887C50.7619 16.0475 50.5104 17.9728 50.2173 19.5464C49.9242 21.1197 49.6129 22.3762 49.6129 22.3762L51.8337 22.9431C51.8337 22.9431 52.1623 21.6264 52.4695 19.9772C52.7767 18.3279 53.082 16.3795 52.9799 14.8345C52.8069 12.2291 52.2316 9.45796 50.7815 7.11144C49.4864 5.01568 47.5329 3.435 45.5025 2.29982C43.3276 1.08383 40.5892 -0.447471 37.6401 0.123023Z" fill="#1188EE"/>
<path fill-rule="evenodd" clip-rule="evenodd" d="M51.1443 31.8498L48.8831 32.2489C48.8831 32.2489 50.173 39.9687 50.0831 43.5138C50.0213 45.9917 50.129 48.4195 49.1428 50.0033C48.054 51.7524 45.9986 53.2291 44.034 53.586C42.2813 53.9045 40.111 53.2282 38.4953 52.1212C36.7123 50.8991 35.2939 48.8138 34.5864 46.6656C33.9625 44.7711 34.4466 42.3706 34.5417 39.7905C34.6222 37.5759 35.1461 32.9019 35.1461 32.9019L32.8671 32.6389C32.8671 32.6389 32.3428 37.2567 32.2537 39.7089C32.1693 41.9823 31.5173 44.6928 32.4104 47.4048C33.2632 49.9942 34.9135 52.476 37.2147 54.0528C39.2354 55.4376 41.8728 56.3428 44.4414 55.8761C47.1609 55.3818 49.6367 53.574 51.0861 51.2456H51.0815C52.613 48.786 52.3181 45.8775 52.3755 43.577C52.4809 39.4189 51.1442 31.8543 51.1442 31.8543L51.1443 31.8498Z" fill="#1188EE"/>
<path fill-rule="evenodd" clip-rule="evenodd" d="M40.855 7.27001C40.5517 7.28069 40.2649 7.4126 40.0576 7.63706C39.8503 7.86152 39.7393 8.16004 39.749 8.46724L39.7983 11.1384C39.8043 11.4463 39.9309 11.7393 40.1502 11.9527C40.3694 12.166 40.6634 12.2822 40.9674 12.2761C41.2714 12.2699 41.5606 12.1419 41.7712 11.9198C41.9819 11.6977 42.0968 11.3998 42.0907 11.0919L42.0415 8.42558C42.041 8.27 42.0096 8.11599 41.9492 7.97293C41.8889 7.82987 41.8007 7.70072 41.69 7.59284C41.5794 7.48496 41.4484 7.40074 41.305 7.34512C41.1615 7.2895 41.0085 7.26455 40.855 7.27001Z" fill="#1188EE"/>
<path fill-rule="evenodd" clip-rule="evenodd" d="M5.9035 37.6228C5.77467 37.6289 5.65162 37.6789 5.55425 37.7645L1.50211 41.2516C1.38632 41.3515 1.31443 41.4938 1.30225 41.6473C1.29007 41.8008 1.3386 41.9529 1.43716 42.0702C1.53572 42.1875 1.67624 42.2605 1.82781 42.2729C1.97937 42.2852 2.12958 42.2361 2.24537 42.1363L6.29752 38.6486C6.38939 38.5706 6.45481 38.4654 6.48458 38.3478C6.51435 38.2302 6.50697 38.1061 6.46348 37.993C6.41998 37.8798 6.34257 37.7834 6.24212 37.7172C6.14167 37.6509 6.02324 37.6173 5.9035 37.6228Z" fill="#1188EE"/>
<path fill-rule="evenodd" clip-rule="evenodd" d="M6.71841 39.4686C6.56941 39.4732 6.42807 39.5364 6.32439 39.6449L1.26032 44.8782C1.20612 44.9324 1.16312 44.997 1.13383 45.0681C1.10453 45.1393 1.08952 45.2158 1.08969 45.2929C1.08985 45.37 1.10518 45.4463 1.13478 45.5174C1.16438 45.5884 1.20765 45.6528 1.26208 45.7067C1.3165 45.7606 1.38099 45.803 1.45177 45.8314C1.52255 45.8598 1.5982 45.8735 1.67432 45.8719C1.75043 45.8704 1.82548 45.8536 1.89509 45.8223C1.96469 45.7911 2.02745 45.7461 2.0797 45.69L7.14377 40.4566C7.22443 40.3741 7.2788 40.2689 7.29986 40.1548C7.32091 40.0406 7.30769 39.9228 7.26189 39.8163C7.21608 39.7099 7.13981 39.6199 7.04293 39.5578C6.94605 39.4957 6.833 39.4649 6.71841 39.4686Z" fill="#1188EE"/>
<path fill-rule="evenodd" clip-rule="evenodd" d="M7.50197 41.931C7.35506 41.944 7.21875 42.0139 7.12138 42.126L1.85135 48.0805C1.74985 48.1953 1.69755 48.3463 1.70595 48.5002C1.71436 48.6542 1.78278 48.7985 1.89618 48.9013C2.00957 49.0041 2.15865 49.0569 2.31062 49.0484C2.46259 49.0399 2.60501 48.9708 2.70656 48.856L7.97211 42.9015C8.04985 42.8154 8.10017 42.7075 8.1165 42.592C8.13284 42.4765 8.11443 42.3586 8.06367 42.2539C8.01292 42.1491 7.93218 42.0623 7.83199 42.0047C7.73179 41.9471 7.61678 41.9214 7.50197 41.931Z" fill="#1188EE"/>
<path fill-rule="evenodd" clip-rule="evenodd" d="M8.30792 44.3935C8.15966 44.4089 8.02314 44.4822 7.92733 44.5978L2.96177 50.3436C2.90959 50.4007 2.86925 50.4675 2.84314 50.5406C2.81704 50.6138 2.8057 50.6914 2.80981 50.7691C2.81391 50.8467 2.83338 50.9228 2.86704 50.9927C2.90071 51.0626 2.94789 51.125 3.00579 51.1761C3.06369 51.2271 3.13112 51.2659 3.20409 51.29C3.27706 51.3142 3.35408 51.3232 3.43058 51.3167C3.50707 51.3101 3.58148 51.288 3.6494 51.2518C3.71731 51.2155 3.77735 51.1657 3.82593 51.1055L8.78702 45.3594C8.86399 45.2726 8.91334 45.1644 8.92862 45.0488C8.9439 44.9331 8.92441 44.8155 8.87269 44.7112C8.82096 44.6069 8.73941 44.5207 8.63866 44.464C8.53792 44.4074 8.42266 44.3827 8.30792 44.3935Z" fill="#1188EE"/>
<path fill-rule="evenodd" clip-rule="evenodd" d="M9.23477 46.0351C9.15117 46.0405 9.06976 46.0644 8.99627 46.1051C8.92278 46.1459 8.859 46.2026 8.80941 46.271L4.55577 52.0168C4.51049 52.0778 4.47753 52.1472 4.45876 52.2211C4.43999 52.2951 4.43579 52.372 4.44639 52.4476C4.45699 52.5232 4.48218 52.5959 4.52054 52.6616C4.55889 52.7273 4.60965 52.785 4.66992 52.8308C4.73019 52.8767 4.79879 52.9099 4.8718 52.9289C4.94481 52.9479 5.0208 52.9524 5.09543 52.9416C5.17007 52.9309 5.24188 52.9054 5.30678 52.8665C5.37168 52.8277 5.42838 52.7762 5.47366 52.7152L9.72729 46.9693C9.79482 46.8808 9.83565 46.7744 9.84488 46.6629C9.85411 46.5515 9.83133 46.4396 9.7793 46.341C9.72727 46.2423 9.64819 46.1608 9.55159 46.1066C9.45498 46.0523 9.34497 46.0275 9.23477 46.0351Z" fill="#1188EE"/>
<path fill-rule="evenodd" clip-rule="evenodd" d="M10.3452 48.3934C10.262 48.4 10.1812 48.425 10.1085 48.4665C10.0358 48.508 9.97296 48.5651 9.9243 48.6338L6.47662 53.3547C6.43113 53.416 6.39808 53.4859 6.37937 53.5602C6.36066 53.6345 6.35667 53.7116 6.36763 53.7875C6.37858 53.8634 6.40426 53.9363 6.44319 54.0021C6.48212 54.0678 6.53353 54.1252 6.59444 54.1707C6.65535 54.2162 6.72456 54.2491 6.79808 54.2673C6.8716 54.2856 6.94796 54.289 7.02276 54.2773C7.09757 54.2655 7.16933 54.2388 7.2339 54.1988C7.29848 54.1587 7.35458 54.1061 7.39899 54.044L10.8422 49.3231C10.9087 49.2342 10.9485 49.1279 10.9569 49.0167C10.9652 48.9055 10.9418 48.7942 10.8894 48.6961C10.837 48.5981 10.7578 48.5174 10.6612 48.4637C10.5647 48.41 10.455 48.3856 10.3452 48.3934Z" fill="#1188EE"/>
<path fill-rule="evenodd" clip-rule="evenodd" d="M11.3616 50.6517C11.2586 50.6584 11.1593 50.6929 11.0742 50.752C10.9891 50.8111 10.9213 50.8924 10.878 50.9873L9.56163 53.7582C9.49575 53.8971 9.48705 54.0566 9.53744 54.202C9.58783 54.3474 9.69318 54.4666 9.83032 54.5334C9.96746 54.6001 10.1252 54.609 10.2687 54.558C10.4123 54.507 10.53 54.4004 10.5959 54.2615L11.9123 51.4907C11.9575 51.3992 11.9781 51.2974 11.9719 51.1953C11.9657 51.0933 11.933 50.9945 11.8771 50.9093C11.8212 50.8242 11.7441 50.7557 11.6536 50.7104C11.5631 50.6651 11.4623 50.6449 11.3616 50.6517Z" fill="#1188EE"/>
<path fill-rule="evenodd" clip-rule="evenodd" d="M7.48406 5.96396C7.33506 5.96865 7.19373 6.03178 7.09004 6.14026L1.28719 11.945C1.23217 11.9983 1.18817 12.062 1.15776 12.1327C1.12734 12.2033 1.11113 12.2795 1.11005 12.3566C1.10897 12.4337 1.12306 12.5101 1.15149 12.5816C1.17991 12.6531 1.22211 12.7182 1.27562 12.773C1.32913 12.8278 1.39288 12.8712 1.46315 12.9008C1.53342 12.9304 1.6088 12.9455 1.68489 12.9453C1.76099 12.9451 1.83628 12.9297 1.90638 12.8997C1.97647 12.8696 2.03995 12.8255 2.09314 12.7704L7.89152 6.96562C7.97579 6.88499 8.03394 6.78055 8.05829 6.66575C8.08264 6.55095 8.07205 6.43137 8.02792 6.32279C7.98378 6.21421 7.90817 6.12165 7.81108 6.05749C7.71398 5.99334 7.59996 5.96112 7.48406 5.96396Z" fill="#1188EE"/>
<path fill-rule="evenodd" clip-rule="evenodd" d="M7.44376 8.86649C7.36066 8.86376 7.27797 8.87924 7.20143 8.91212C7.12489 8.945 7.05632 8.99427 7.00049 9.05667L0.982714 15.5871C0.931255 15.6427 0.891128 15.7081 0.864625 15.7795C0.838123 15.8509 0.825765 15.9269 0.828255 16.0031C0.830746 16.0794 0.848036 16.1545 0.87914 16.2239C0.910244 16.2934 0.954552 16.3561 1.00953 16.4082C1.06451 16.4603 1.12909 16.5007 1.19958 16.5275C1.27007 16.5543 1.34508 16.5669 1.42034 16.5643C1.4956 16.5618 1.56964 16.5443 1.63821 16.5128C1.70679 16.4812 1.76856 16.4364 1.82001 16.3807L7.83778 9.8503C7.91502 9.76948 7.96742 9.66792 7.9886 9.55751C8.00979 9.44709 7.99884 9.33267 7.95711 9.22844C7.91537 9.1242 7.84464 9.0345 7.7535 8.97022C7.66237 8.90595 7.55476 8.86998 7.44376 8.86649Z" fill="#1188EE"/>
<path fill-rule="evenodd" clip-rule="evenodd" d="M7.42585 12.1317C7.2766 12.1327 7.13363 12.1927 7.02736 12.2989L1.79762 17.3052C1.73667 17.3556 1.68662 17.4184 1.65057 17.4892C1.61452 17.56 1.59325 17.6375 1.58809 17.7171C1.58292 17.7966 1.59397 17.8762 1.62055 17.9512C1.64712 18.0262 1.68866 18.0949 1.74256 18.153C1.79647 18.211 1.86159 18.257 1.93388 18.2885C2.00617 18.3199 2.08407 18.3359 2.16274 18.3355C2.2414 18.3351 2.31915 18.3186 2.39114 18.2865C2.46313 18.2544 2.52782 18.2076 2.58119 18.149L7.81092 13.1421C7.89689 13.0634 7.95728 12.9601 7.98413 12.8459C8.01098 12.7317 8.00303 12.6122 7.96133 12.5027C7.91963 12.3932 7.84613 12.2989 7.75054 12.2326C7.65494 12.1662 7.54174 12.1315 7.42585 12.1317Z" fill="#1188EE"/>
<path fill-rule="evenodd" clip-rule="evenodd" d="M37.2819 37.6228C37.1531 37.6289 37.03 37.6789 36.9327 37.7645L32.8805 41.2516C32.7647 41.3515 32.6928 41.4938 32.6806 41.6473C32.6684 41.8008 32.717 41.9529 32.8155 42.0702C32.9141 42.1875 33.0546 42.2605 33.2062 42.2729C33.3578 42.2852 33.508 42.2361 33.6238 42.1363L37.6759 38.6486C37.7678 38.5706 37.8332 38.4654 37.863 38.3478C37.8927 38.2302 37.8854 38.1061 37.8419 37.993C37.7984 37.8798 37.721 37.7834 37.6205 37.7172C37.5201 37.6509 37.4016 37.6173 37.2819 37.6228Z" fill="#1188EE"/>
<path fill-rule="evenodd" clip-rule="evenodd" d="M38.0968 39.4686C37.9478 39.4732 37.8065 39.5364 37.7028 39.6449L32.6387 44.8782C32.5845 44.9324 32.5415 44.997 32.5122 45.0681C32.4829 45.1393 32.4679 45.2158 32.4681 45.2929C32.4683 45.37 32.4836 45.4463 32.5132 45.5174C32.5428 45.5884 32.5861 45.6528 32.6405 45.7067C32.6949 45.7606 32.7594 45.803 32.8302 45.8314C32.901 45.8598 32.9766 45.8735 33.0527 45.8719C33.1288 45.8704 33.2039 45.8536 33.2735 45.8223C33.3431 45.7911 33.4059 45.7461 33.4581 45.69L38.5222 40.4566C38.6028 40.3741 38.6572 40.2689 38.6783 40.1548C38.6993 40.0406 38.6861 39.9228 38.6403 39.8163C38.5945 39.7099 38.5182 39.6199 38.4213 39.5578C38.3244 39.4957 38.2114 39.4649 38.0968 39.4686Z" fill="#1188EE"/>
<path fill-rule="evenodd" clip-rule="evenodd" d="M38.8804 41.931C38.7335 41.944 38.5971 42.0139 38.4998 42.126L33.2298 48.0805C33.1795 48.1373 33.1408 48.2037 33.1158 48.2758C33.0908 48.3478 33.0801 48.424 33.0843 48.5002C33.0927 48.6542 33.1611 48.7985 33.2745 48.9013C33.3879 49.0041 33.537 49.0572 33.689 49.0487C33.841 49.0402 33.9834 48.9708 34.085 48.856L39.3505 42.9015C39.4283 42.8154 39.4786 42.7075 39.4949 42.592C39.5112 42.4765 39.4928 42.3586 39.4421 42.2539C39.3913 42.1491 39.3106 42.0623 39.2104 42.0047C39.1102 41.9471 38.9952 41.9214 38.8804 41.931Z" fill="#1188EE"/>
<path fill-rule="evenodd" clip-rule="evenodd" d="M39.6863 44.3935C39.5381 44.4089 39.4015 44.4822 39.3057 44.5978L34.3402 50.3436C34.288 50.4007 34.2476 50.4675 34.2215 50.5406C34.1954 50.6138 34.1841 50.6914 34.1882 50.7691C34.1923 50.8467 34.2118 50.9228 34.2454 50.9927C34.2791 51.0626 34.3263 51.125 34.3842 51.1761C34.4421 51.2271 34.5095 51.2659 34.5825 51.29C34.6555 51.3142 34.7325 51.3232 34.809 51.3167C34.8855 51.3101 34.9599 51.288 35.0278 51.2518C35.0957 51.2155 35.1557 51.1657 35.2043 51.1055L40.1654 45.3594C40.2424 45.2726 40.2917 45.1644 40.307 45.0488C40.3223 44.9331 40.3028 44.8155 40.2511 44.7112C40.1994 44.6069 40.1178 44.5207 40.0171 44.464C39.9163 44.4074 39.8011 44.3827 39.6863 44.3935Z" fill="#1188EE"/>
<path fill-rule="evenodd" clip-rule="evenodd" d="M40.6132 46.0351C40.5296 46.0405 40.4482 46.0644 40.3747 46.1051C40.3012 46.1459 40.2374 46.2026 40.1878 46.271L35.9342 52.0168C35.8889 52.0778 35.8559 52.1472 35.8372 52.2211C35.8184 52.2951 35.8142 52.372 35.8248 52.4476C35.8354 52.5232 35.8606 52.5959 35.8989 52.6616C35.9373 52.7273 35.9881 52.785 36.0483 52.8308C36.1086 52.8767 36.1772 52.9099 36.2502 52.9289C36.3232 52.9479 36.3992 52.9524 36.4738 52.9416C36.5485 52.9309 36.6203 52.9054 36.6852 52.8665C36.7501 52.8277 36.8068 52.7762 36.8521 52.7152L41.1057 46.9693C41.1732 46.8808 41.2141 46.7744 41.2233 46.6629C41.2325 46.5515 41.2097 46.4396 41.1577 46.341C41.1057 46.2423 41.0266 46.1608 40.93 46.1066C40.8334 46.0523 40.7234 46.0275 40.6132 46.0351Z" fill="#1188EE"/>
<path fill-rule="evenodd" clip-rule="evenodd" d="M41.7236 48.3934C41.6404 48.4 41.5596 48.425 41.4869 48.4665C41.4142 48.508 41.3514 48.5651 41.3027 48.6338L37.855 53.3547C37.8095 53.416 37.7765 53.4859 37.7578 53.5602C37.7391 53.6345 37.7351 53.7116 37.746 53.7875C37.757 53.8634 37.7827 53.9363 37.8216 54.0021C37.8605 54.0678 37.9119 54.1252 37.9729 54.1707C38.0338 54.2162 38.103 54.2491 38.1765 54.2673C38.25 54.2856 38.3264 54.289 38.4012 54.2773C38.476 54.2655 38.5477 54.2388 38.6123 54.1988C38.6769 54.1587 38.733 54.1061 38.7774 54.044L42.2206 49.3231C42.2871 49.2342 42.3269 49.1279 42.3353 49.0167C42.3436 48.9055 42.3202 48.7942 42.2678 48.6961C42.2153 48.5981 42.1362 48.5174 42.0396 48.4637C41.9431 48.41 41.8334 48.3856 41.7236 48.3934Z" fill="#1188EE"/>
<path fill-rule="evenodd" clip-rule="evenodd" d="M42.74 50.6517C42.637 50.6584 42.5377 50.6929 42.4526 50.752C42.3675 50.8111 42.2997 50.8924 42.2564 50.9873L40.94 53.7582C40.9074 53.827 40.8885 53.9016 40.8843 53.9778C40.8801 54.054 40.8908 54.1303 40.9158 54.2023C40.9662 54.3477 41.0715 54.4669 41.2087 54.5336C41.3458 54.6004 41.5036 54.6091 41.6471 54.558C41.7907 54.507 41.9084 54.4005 41.9743 54.2615L43.2907 51.4907C43.3359 51.3992 43.3565 51.2974 43.3503 51.1953C43.3441 51.0933 43.3114 50.9945 43.2555 50.9093C43.1996 50.8242 43.1225 50.7557 43.032 50.7104C42.9415 50.6651 42.8407 50.6449 42.74 50.6517Z" fill="#1188EE"/>
</svg>
