<svg width="22" height="30" viewBox="0 0 22 30" fill="none" xmlns="http://www.w3.org/2000/svg">
<path fill-rule="evenodd" clip-rule="evenodd" d="M9.63967 0.331972C10.1612 0.041361 10.8618 0.041361 11.3834 0.331972C17.8802 3.95209 20.8255 8.29196 21.0111 14.5185C21.0968 17.4918 20.7299 20.2141 19.6133 22.5659C18.4681 24.919 16.4315 27.0931 13.4332 28.9291C13.0549 29.1589 12.5585 29.2338 12.0976 29.1306C11.1793 28.925 11.023 28.0758 10.5115 27.5465C9.99974 28.0761 9.84439 28.9248 8.9254 29.1306C8.46452 29.2338 7.96817 29.1589 7.58987 28.9291C4.5915 27.0931 2.55499 24.919 1.40971 22.5659C0.293102 20.2141 -0.0737632 17.4918 0.0119281 14.5185C0.197553 8.29196 3.1428 3.95209 9.63967 0.331972ZM12.9984 26.2471C14.8746 24.9015 16.0052 23.433 16.8041 21.7447C17.8092 19.6799 18.0991 17.3996 18.0119 14.573C17.8672 9.71774 16.4108 6.55808 11.9984 3.62443V12.2055C13.7236 12.5518 14.4984 13.8719 14.4984 15.3258C14.4984 16.7798 13.7236 18.0998 11.9984 18.4462V25.467C11.9984 25.467 12.8001 26.0436 12.9984 26.2471ZM7.99835 26.2471C6.12206 24.9015 5.01787 23.433 4.21893 21.7447C3.21389 19.6799 2.92391 17.3996 3.01112 14.573C3.15557 9.72741 4.60442 6.55417 8.99835 3.62443V12.2055C7.27312 12.5518 6.49835 13.8719 6.49835 15.3258C6.49835 16.7798 7.27312 18.0998 8.99835 18.4462V25.467C8.99835 25.467 8.18923 26.0511 7.99835 26.2471ZM10.4984 13.7656C9.39378 13.7656 8.49835 14.4641 8.49835 15.3258C8.49835 16.1875 9.39378 16.886 10.4984 16.886C11.6029 16.886 12.4984 16.1875 12.4984 15.3258C12.4984 14.4641 11.6029 13.7656 10.4984 13.7656Z" fill="#1188EE"/>
</svg>
