<svg width="59" height="69" viewBox="0 0 59 69" fill="none" xmlns="http://www.w3.org/2000/svg">
<path fill-rule="evenodd" clip-rule="evenodd" d="M29.3641 15.331C26.167 15.296 22.9657 15.5226 19.8232 16.0521C16.0271 16.6903 11.9679 17.6771 8.63115 20.0456C5.96755 21.9365 4.04663 24.6978 2.62345 27.4757C1.15277 30.3461 0.176475 33.587 0.0357923 36.8682C-0.164913 41.5127 0.449185 46.4837 2.62345 50.7426C6.02322 57.402 11.3269 63.8173 18.2218 67.0404C23.3763 69.45 29.5285 69.4119 34.8967 68.1403C41.3039 66.6226 47.6091 63.1618 52.006 58.1362C55.8214 53.7751 57.8127 47.939 58.6516 42.3495C59.33 37.8293 59.0932 32.8913 57.2673 28.5756C55.7891 25.0817 53.102 22.1167 50.0472 20.0319C46.6809 17.7349 42.6404 16.8371 38.8778 16.1982C35.7515 15.6673 32.5611 15.3668 29.3641 15.331ZM29.3369 17.6678C32.4073 17.7028 35.4808 17.9915 38.4932 18.503C42.1643 19.1264 45.8711 20.0034 48.7488 21.967C51.4772 23.8291 53.8737 26.5082 55.1366 29.4929C56.7373 33.2766 56.9909 37.8155 56.3625 42.0027C55.5699 47.2839 53.6653 52.7113 50.2689 56.5935C46.2533 61.1833 40.3368 64.4533 34.3675 65.8674C29.3798 67.0489 23.6916 67.0248 19.1944 64.9227C12.9604 62.0086 7.90736 55.9927 4.6818 49.6746C2.76515 45.9202 2.16359 41.3287 2.35201 36.9686C2.47538 34.0912 3.34661 31.1541 4.6818 28.5482C5.99917 25.9766 7.74808 23.5324 9.96569 21.9579C12.8197 19.9322 16.5328 18.9741 20.2032 18.3569C23.201 17.8531 26.2665 17.6337 29.3369 17.6678Z" fill="#1188EE"/>
<path fill-rule="evenodd" clip-rule="evenodd" d="M3.86299 26.9781C3.63303 26.9915 3.41226 27.0739 3.22889 27.2145C3.04553 27.3552 2.9079 27.5477 2.8336 27.7676C2.7593 27.9876 2.7517 28.225 2.81177 28.4494C2.87184 28.6737 2.99686 28.875 3.17084 29.0273C3.17084 29.0273 4.25539 30.0046 5.66801 31.1084C7.08064 32.2121 8.77897 33.4543 10.3231 34.0659C16.8649 36.6561 24.0643 36.9805 30.8796 36.9183C45.2975 36.7875 56.4485 30.6749 56.4485 30.6749C56.5861 30.604 56.7083 30.506 56.8079 30.3868C56.9074 30.2675 56.9823 30.1295 57.0281 29.9806C57.0739 29.8317 57.0898 29.6751 57.0746 29.5199C57.0595 29.3648 57.0138 29.2143 56.9401 29.0772C56.8665 28.9402 56.7664 28.8192 56.6457 28.7218C56.5251 28.6244 56.3864 28.5523 56.2377 28.5099C56.089 28.4674 55.9334 28.4554 55.78 28.4745C55.6266 28.4936 55.4786 28.5434 55.3447 28.6211C55.3447 28.6211 44.6372 34.4559 30.8569 34.5816C24.1334 34.6423 17.2307 34.2892 11.169 31.8889C10.1336 31.479 8.43294 30.3106 7.08851 29.26C5.74408 28.2097 4.71348 27.2839 4.71348 27.2839C4.59922 27.1781 4.46506 27.0965 4.31897 27.044C4.17287 26.9915 4.01781 26.969 3.86299 26.9781Z" fill="#1188EE"/>
<path fill-rule="evenodd" clip-rule="evenodd" d="M57.1813 35.3027C56.8811 35.3147 56.5972 35.444 56.3897 35.6633C56.3897 35.6633 55.8675 36.1983 55.1863 36.8271C54.5052 37.4561 53.6331 38.1841 53.1551 38.461C50.3362 40.0946 47.0969 41.1195 43.8223 41.7607C41.0245 42.3089 34.5213 42.176 34.5213 42.176C34.3691 42.1717 34.2177 42.1976 34.0755 42.2524C33.9333 42.3073 33.8033 42.3899 33.6927 42.4955C33.5822 42.601 33.4934 42.7275 33.4313 42.8677C33.3692 43.0079 33.3351 43.1589 33.3309 43.3124C33.3268 43.4659 33.3526 43.6189 33.407 43.7622C33.4614 43.9056 33.5433 44.0367 33.6479 44.1482C33.7526 44.2597 33.878 44.3492 34.017 44.4118C34.156 44.4743 34.3058 44.5086 34.4579 44.5127C34.4579 44.5127 40.8042 44.7347 44.2657 44.0563C47.7124 43.3815 51.1907 42.2943 54.3087 40.4873C55.1528 39.998 56.021 39.2314 56.7516 38.5568C57.4822 37.8822 58.0409 37.306 58.0409 37.306C58.207 37.1404 58.3197 36.9281 58.364 36.6967C58.4084 36.4654 58.3824 36.226 58.2895 36.0098C58.1965 35.7937 58.0409 35.6109 57.8432 35.4856C57.6454 35.3602 57.4147 35.298 57.1814 35.3073L57.1813 35.3027Z" fill="#1188EE"/>
<path fill-rule="evenodd" clip-rule="evenodd" d="M56.2404 45.4073C56.0583 45.4128 55.88 45.4618 55.7201 45.5499C55.7201 45.5499 49.6743 48.6827 46.7629 49.5251C44.8114 50.0896 40.0449 50.5063 40.0449 50.5063C39.7383 50.5305 39.4539 50.6764 39.2541 50.9122C39.0543 51.148 38.9555 51.4544 38.9795 51.7637C39.0035 52.073 39.1483 52.3599 39.382 52.5615C39.6158 52.7631 39.9193 52.8627 40.2259 52.8385C40.2259 52.8385 44.8522 52.5078 47.4007 51.7705C50.9094 50.7552 56.7923 47.6219 56.7923 47.6219C57.0286 47.503 57.2175 47.3065 57.3277 47.0645C57.438 46.8225 57.463 46.5495 57.3986 46.2912C57.3342 46.0329 57.1842 45.8046 56.9736 45.644C56.763 45.4834 56.5043 45.3992 56.2404 45.4073Z" fill="#1188EE"/>
<path fill-rule="evenodd" clip-rule="evenodd" d="M29.9883 20.3421C27.8597 20.3655 25.1361 20.4098 22.5421 20.6068C19.9464 20.8031 17.5128 21.1193 15.7562 21.8117C12.4094 23.1315 10.789 25.6226 10.789 25.6226C10.7055 25.7523 10.6483 25.8977 10.6208 26.0499C10.5933 26.2021 10.596 26.3583 10.6288 26.5094C10.6617 26.6606 10.7239 26.8035 10.812 26.9301C10.9001 27.0568 11.0122 27.1647 11.1419 27.2473C11.1419 27.2473 16.3558 30.6188 21.1487 31.6378C25.8494 32.6377 33.5925 32.6779 38.3349 31.7103C43.1732 30.7237 48.5588 27.3241 48.5588 27.3241C48.7148 27.2269 48.8457 27.094 48.9407 26.9359C49.0358 26.7777 49.0922 26.5989 49.1055 26.4144C49.1187 26.23 49.0884 26.0451 49.0169 25.8747C48.9455 25.7044 48.835 25.5534 48.6945 25.4346C48.6945 25.4346 45.2794 22.4469 41.8635 21.3453C38.5441 20.2751 34.24 20.3036 29.9929 20.3413L29.9883 20.3421ZM30.011 22.6788C34.2421 22.6415 38.4313 22.7022 41.1579 23.5734C43.1007 24.1999 44.5147 25.428 45.6229 26.2707C43.8644 27.2498 40.8856 28.8066 37.8781 29.4198C33.6608 30.2797 25.8066 30.2398 21.6283 29.3519C18.4987 28.6864 15.4141 26.9938 13.8246 26.0753C14.3229 25.4761 14.6736 24.7483 16.5978 23.9895C17.8562 23.4935 20.211 23.1298 22.714 22.9398C25.2171 22.7506 27.9004 22.6975 30.011 22.6788Z" fill="#1188EE"/>
<path fill-rule="evenodd" clip-rule="evenodd" d="M18.9456 10.3608L16.7334 11.05L22.7411 30.7662L24.9533 30.077L18.9456 10.3608Z" fill="#1188EE"/>
<path fill-rule="evenodd" clip-rule="evenodd" d="M49.8889 4.7835C49.7457 4.78767 49.6046 4.81857 49.4727 4.87464L39.6287 8.8909C39.4461 8.96572 39.2855 9.08625 39.162 9.24118C39.0385 9.39611 38.9563 9.58034 38.923 9.7763L35.3718 30.4418C35.3459 30.5931 35.3499 30.7481 35.3834 30.8979C35.4169 31.0477 35.4794 31.1895 35.5672 31.3149C35.7445 31.5683 36.0143 31.7401 36.3173 31.7927C36.4673 31.8188 36.6209 31.8148 36.7694 31.781C36.9179 31.7472 37.0583 31.6842 37.1826 31.5956C37.4337 31.4167 37.6041 31.1445 37.6563 30.8388L41.0945 10.8123L50.3412 7.04251C50.5971 6.94372 50.81 6.75668 50.9421 6.51452C51.0742 6.27235 51.1169 5.99075 51.0626 5.71982C51.0084 5.44889 50.8607 5.20611 50.6458 5.03466C50.4309 4.86321 50.1627 4.77432 49.8889 4.7835Z" fill="#1188EE"/>
<path fill-rule="evenodd" clip-rule="evenodd" d="M16.4258 3.03576C16.2624 3.04191 16.1021 3.08299 15.9555 3.15613C15.8089 3.22927 15.6793 3.3329 15.5753 3.4602L8.11995 12.515C7.96427 12.7052 7.87223 12.9401 7.85702 13.1862C7.8418 13.4324 7.90419 13.6771 8.03524 13.8854C8.16629 14.0936 8.35929 14.2547 8.5866 14.3455C8.81391 14.4363 9.06386 14.4521 9.30068 14.3908L27.7581 9.57131C27.9958 9.50909 28.2077 9.37248 28.3633 9.1808C28.5189 8.98913 28.6101 8.75242 28.6236 8.50506C28.6372 8.2577 28.5726 8.01234 28.4389 7.80449C28.3053 7.59664 28.1096 7.43701 27.8802 7.34867L16.8782 3.11334C16.734 3.05746 16.5802 3.03077 16.4258 3.03576ZM16.8284 5.59142L23.664 8.22495L12.196 11.2189L16.8284 5.59142Z" fill="#1188EE"/>
<path fill-rule="evenodd" clip-rule="evenodd" d="M15.5436 0.000910931C15.362 0.00814457 15.1846 0.0583206 15.0258 0.147527C14.867 0.236734 14.7313 0.362408 14.6295 0.514353C14.5278 0.666298 14.4629 0.840311 14.4402 1.02223C14.4174 1.20416 14.4375 1.38896 14.4986 1.56163L15.4396 4.36374C15.4863 4.51154 15.5618 4.64844 15.6615 4.76651C15.7613 4.88458 15.8833 4.9815 16.0206 5.05147C16.1578 5.12145 16.3075 5.16313 16.4609 5.17413C16.6143 5.18512 16.7683 5.1652 16.914 5.11551C17.0597 5.06581 17.1941 4.9874 17.3094 4.88474C17.4247 4.78209 17.5186 4.65728 17.5855 4.51763C17.6525 4.37799 17.6913 4.22628 17.6996 4.07137C17.7078 3.91645 17.6854 3.76135 17.6337 3.61526L16.6927 0.813148C16.6156 0.569579 16.4615 0.358138 16.2539 0.211422C16.0464 0.0647064 15.7969 -0.00917427 15.5436 0.000910931Z" fill="#1188EE"/>
<path fill-rule="evenodd" clip-rule="evenodd" d="M8.13352 36.4118C8.02376 36.4201 7.91862 36.46 7.83042 36.5265L1.07176 41.3779C1.00968 41.4226 0.956922 41.479 0.916503 41.5442C0.876085 41.6094 0.848795 41.682 0.836193 41.7579C0.823591 41.8337 0.825923 41.9114 0.843056 41.9864C0.860189 42.0613 0.891787 42.1322 0.936046 42.1949C0.980305 42.2575 1.03636 42.3107 1.10101 42.3515C1.16565 42.3922 1.23763 42.4198 1.31282 42.4325C1.38802 42.4452 1.46496 42.4429 1.53925 42.4256C1.61354 42.4083 1.68373 42.3764 1.74582 42.3318L8.49996 37.4758C8.60404 37.4031 8.68165 37.2979 8.72091 37.1765C8.76017 37.0551 8.75893 36.9241 8.71737 36.8034C8.67581 36.6828 8.59621 36.5794 8.49077 36.5088C8.38533 36.4381 8.25985 36.4037 8.13352 36.4118Z" fill="#1188EE"/>
<path fill-rule="evenodd" clip-rule="evenodd" d="M10.3593 38.9949C10.2496 39.0082 10.146 39.0529 10.0607 39.1236L2.38368 45.2167C2.31918 45.2623 2.26458 45.3205 2.2232 45.3881C2.18182 45.4557 2.15454 45.5312 2.14302 45.6098C2.13151 45.6884 2.136 45.7683 2.15622 45.8451C2.17645 45.9219 2.21198 45.9937 2.26065 46.0562C2.30932 46.1186 2.37011 46.1706 2.43929 46.2085C2.50847 46.2464 2.5846 46.2697 2.66301 46.277C2.74143 46.2842 2.82049 46.2753 2.89536 46.2507C2.97023 46.2261 3.03933 46.1862 3.09845 46.1338L10.7755 40.0409C10.8762 39.9634 10.9489 39.8547 10.9825 39.7314C11.0161 39.6082 11.0087 39.4772 10.9615 39.3586C10.9142 39.24 10.8298 39.1403 10.721 39.0748C10.6122 39.0093 10.4852 38.9806 10.3593 38.9949Z" fill="#1188EE"/>
<path fill-rule="evenodd" clip-rule="evenodd" d="M13.4626 41.1628C13.3322 41.1695 13.2078 41.2206 13.1098 41.3077L3.79513 49.363C3.73579 49.4125 3.68684 49.4736 3.65113 49.5424C3.61543 49.6113 3.59369 49.6867 3.58719 49.7641C3.58069 49.8415 3.58956 49.9192 3.61329 49.9931C3.63701 50.067 3.67511 50.1356 3.72535 50.1945C3.77559 50.2534 3.83696 50.3016 3.90589 50.3363C3.97481 50.3709 4.04989 50.3912 4.12673 50.3962C4.20358 50.4012 4.28065 50.3908 4.35344 50.3654C4.42622 50.34 4.49325 50.3003 4.55062 50.2484L13.8653 42.1942C13.9585 42.1155 14.0248 42.0093 14.0548 41.8904C14.0848 41.7716 14.077 41.6463 14.0324 41.5322C13.9879 41.4181 13.9089 41.3209 13.8066 41.2546C13.7044 41.1883 13.584 41.1562 13.4626 41.1628Z" fill="#1188EE"/>
<path fill-rule="evenodd" clip-rule="evenodd" d="M15.8151 44.3621C15.684 44.3702 15.5596 44.4228 15.4622 44.5116L5.83992 52.9777C5.77978 53.0271 5.73012 53.0881 5.69388 53.1574C5.65764 53.2266 5.63556 53.3027 5.62896 53.3807C5.62236 53.4587 5.63137 53.537 5.65545 53.6115C5.67953 53.6859 5.71819 53.7547 5.76914 53.8137C5.8201 53.8728 5.88229 53.9212 5.95204 53.9555C6.02179 53.9898 6.09766 54.0095 6.17516 54.0137C6.25266 54.0178 6.33019 54.0064 6.40316 53.9797C6.47613 53.9531 6.54305 53.9118 6.59993 53.8585L16.2222 45.3924C16.3158 45.3135 16.3823 45.2065 16.4123 45.0872C16.4422 44.9679 16.434 44.8421 16.3889 44.7278C16.3437 44.6134 16.264 44.5164 16.1609 44.4505C16.0579 44.3846 15.9368 44.3545 15.8151 44.3621Z" fill="#1188EE"/>
<path fill-rule="evenodd" clip-rule="evenodd" d="M18.3891 47.2557C18.258 47.2594 18.132 47.3079 18.0318 47.3934L7.49113 56.1702C7.37236 56.2688 7.29729 56.411 7.28245 56.5655C7.26761 56.72 7.3142 56.8738 7.41199 56.9937C7.50977 57.1135 7.65073 57.1895 7.80386 57.2045C7.95699 57.2194 8.10975 57.1722 8.22852 57.0735L18.7691 48.2971C18.8642 48.2205 18.933 48.1158 18.9657 47.9976C18.9984 47.8794 18.9933 47.7536 18.9513 47.6385C18.9092 47.5233 18.8323 47.4243 18.7314 47.3558C18.6305 47.2872 18.5107 47.2517 18.3891 47.2557Z" fill="#1188EE"/>
<path fill-rule="evenodd" clip-rule="evenodd" d="M20.832 50.8703C20.7212 50.8764 20.6144 50.9145 20.5244 50.9801L9.67164 58.7251C9.60955 58.7695 9.55672 58.8256 9.51618 58.8906C9.47564 58.9555 9.44817 59.028 9.43535 59.1036C9.42253 59.1793 9.42461 59.2567 9.44147 59.3316C9.45833 59.4064 9.48963 59.4772 9.5336 59.5398C9.57756 59.6024 9.63333 59.6558 9.69771 59.6967C9.76209 59.7376 9.83383 59.765 9.90882 59.778C9.98381 59.7909 10.0606 59.789 10.1348 59.772C10.209 59.755 10.2791 59.7234 10.3412 59.679L21.1939 51.934C21.2976 51.8615 21.3749 51.7568 21.4142 51.6359C21.4535 51.515 21.4526 51.3846 21.4117 51.2642C21.3707 51.1439 21.2919 51.0403 21.1873 50.9693C21.0827 50.8983 20.9579 50.8633 20.832 50.8703Z" fill="#1188EE"/>
<path fill-rule="evenodd" clip-rule="evenodd" d="M23.9399 52.9332C23.8089 52.932 23.6813 52.9756 23.578 53.057L13.4445 60.8023C13.3222 60.8961 13.2418 61.0349 13.221 61.1885C13.2002 61.3421 13.2408 61.4978 13.3338 61.6212C13.4268 61.7447 13.5645 61.8259 13.7168 61.8469C13.8691 61.8678 14.0234 61.8268 14.1457 61.733L24.2792 53.9883C24.377 53.9155 24.4496 53.8136 24.4868 53.6968C24.5239 53.5801 24.5237 53.4543 24.4862 53.3377C24.4487 53.2211 24.3757 53.1192 24.2777 53.0467C24.1796 52.9743 24.0615 52.9342 23.9399 52.9332Z" fill="#1188EE"/>
<path fill-rule="evenodd" clip-rule="evenodd" d="M27.0207 55.1011C26.8896 55.0999 26.7621 55.1435 26.6588 55.2249L15.702 63.3806C15.6394 63.4256 15.5863 63.4827 15.5458 63.5486C15.5053 63.6145 15.4782 63.6877 15.4661 63.7643C15.454 63.8409 15.4571 63.9191 15.4753 63.9945C15.4935 64.0698 15.5264 64.1409 15.572 64.2033C15.6177 64.2657 15.6751 64.3181 15.7411 64.3579C15.8071 64.3976 15.8803 64.424 15.9564 64.4349C16.0325 64.4458 16.11 64.4411 16.1844 64.4215C16.2588 64.4019 16.3285 64.3676 16.3896 64.3205L27.3464 56.1605C27.4453 56.089 27.5193 55.9878 27.558 55.8715C27.5968 55.7552 27.5982 55.6296 27.5622 55.5124C27.5261 55.3952 27.4544 55.2924 27.3572 55.2186C27.26 55.1448 27.1423 55.1035 27.0207 55.1011Z" fill="#1188EE"/>
<path fill-rule="evenodd" clip-rule="evenodd" d="M30.1014 57.5793C29.9501 57.5729 29.8023 57.6265 29.6898 57.7287L20.7868 65.579C20.7267 65.6285 20.677 65.6895 20.6408 65.7587C20.6045 65.8279 20.5824 65.904 20.5758 65.982C20.5692 66.06 20.5782 66.1384 20.6023 66.2128C20.6264 66.2872 20.6651 66.356 20.716 66.415C20.767 66.4741 20.8292 66.5225 20.8989 66.5568C20.9687 66.5911 21.0445 66.6108 21.122 66.615C21.1995 66.6192 21.2771 66.6077 21.35 66.581C21.423 66.5544 21.4899 66.5131 21.5468 66.4598L30.4543 58.6099C30.5441 58.5339 30.6089 58.432 30.6401 58.3181C30.6714 58.2041 30.6677 58.0835 30.6294 57.9718C30.5912 57.86 30.5203 57.7624 30.426 57.6922C30.3317 57.622 30.2186 57.5832 30.1014 57.5793Z" fill="#1188EE"/>
<path fill-rule="evenodd" clip-rule="evenodd" d="M33.8336 60.3679C33.6833 60.3762 33.5422 60.4432 33.4401 60.5547L26.8895 67.4739C26.8369 67.5294 26.7957 67.5947 26.7681 67.6662C26.7406 67.7377 26.7273 67.814 26.729 67.8907C26.7306 67.9674 26.7473 68.0429 26.7779 68.1132C26.8086 68.1834 26.8526 68.247 26.9076 68.3C26.9625 68.353 27.0273 68.3946 27.0982 68.4224C27.1691 68.4502 27.2447 68.4634 27.3208 68.4617C27.3968 68.46 27.4717 68.4433 27.5413 68.4124C27.611 68.3815 27.6738 68.3372 27.7264 68.2817L34.277 61.3625C34.3595 61.2787 34.4149 61.1716 34.4358 61.0553C34.4568 60.9391 34.4423 60.8191 34.3942 60.7113C34.3462 60.6035 34.2669 60.5131 34.1668 60.4517C34.0668 60.3904 33.9506 60.3613 33.8336 60.3679Z" fill="#1188EE"/>
</svg>
