<svg width="252" height="70" viewBox="0 0 252 70" fill="none" xmlns="http://www.w3.org/2000/svg">
<path d="M11.4167 17.889C11.4167 17.889 65.9039 -20.1112 83.1314 17.889C100.359 55.8891 138.821 -18.6115 166.465 17.889C194.109 54.3894 251 17.889 251 17.889" stroke="#269BFF" stroke-width="2"/>
<path d="M7.41025 35.0004C7.41025 35.0004 61.8974 -2.99976 79.125 35.0004C96.3526 73.0006 134.814 -1.50004 162.458 35.0004C190.103 71.5009 246.994 35.0004 246.994 35.0004" stroke="#269BFF" stroke-width="2"/>
<path d="M1 52.1119C1 52.1119 55.4872 14.1117 72.7147 52.1119C89.9423 90.112 128.404 15.6114 156.048 52.1119C183.692 88.6123 240.583 52.1119 240.583 52.1119" stroke="#269BFF" stroke-width="2"/>
</svg>
