<svg width="52" height="30" viewBox="0 0 52 30" fill="none" xmlns="http://www.w3.org/2000/svg">
<path fill-rule="evenodd" clip-rule="evenodd" d="M9.63966 0.331972C10.1612 0.041361 10.8618 0.041361 11.3834 0.331972C17.8802 3.95209 20.8255 8.29196 21.0111 14.5185C21.0968 17.4918 20.7299 20.2141 19.6133 22.5659C18.4681 24.919 16.4315 27.0931 13.4332 28.9291C13.0549 29.1589 12.5585 29.2338 12.0976 29.1306C11.1793 28.925 11.023 28.0758 10.5115 27.5465C9.99973 28.0761 9.84438 28.9248 8.92539 29.1306C8.46451 29.2338 7.96816 29.1589 7.58986 28.9291C4.5915 27.0931 2.55499 24.919 1.40971 22.5659C0.293102 20.2141 -0.0737632 17.4918 0.0119281 14.5185C0.197553 8.29196 3.1428 3.95209 9.63966 0.331972ZM12.9984 26.2471C14.8746 24.9015 16.0052 23.433 16.8041 21.7447C17.8092 19.6799 18.0991 17.3996 18.0119 14.573C17.8672 9.71774 16.4108 6.55808 11.9984 3.62443V12.2055C13.7236 12.5518 14.4984 13.8719 14.4984 15.3258C14.4984 16.7798 13.7236 18.0998 11.9984 18.4462V25.467C11.9984 25.467 12.8001 26.0436 12.9984 26.2471ZM7.99834 26.2471C6.12205 24.9015 5.01787 23.433 4.21893 21.7447C3.21389 19.6799 2.92391 17.3996 3.01112 14.573C3.15557 9.72741 4.60442 6.55417 8.99834 3.62443V12.2055C7.27311 12.5518 6.49834 13.8719 6.49834 15.3258C6.49834 16.7798 7.27311 18.0998 8.99834 18.4462V25.467C8.99834 25.467 8.18922 26.0511 7.99834 26.2471ZM10.4984 13.7656C9.39377 13.7656 8.49834 14.4641 8.49834 15.3258C8.49834 16.1875 9.39377 16.886 10.4984 16.886C11.6029 16.886 12.4984 16.1875 12.4984 15.3258C12.4984 14.4641 11.6029 13.7656 10.4984 13.7656Z" fill="#1188EE"/>
<path fill-rule="evenodd" clip-rule="evenodd" d="M39.6397 0.331972C40.1612 0.041361 40.8618 0.041361 41.3834 0.331972C47.8802 3.95209 50.8255 8.29196 51.0111 14.5185C51.0968 17.4918 50.7299 20.2141 49.6133 22.5659C48.4681 24.919 46.4315 27.0931 43.4332 28.9291C43.0549 29.1589 42.5585 29.2338 42.0976 29.1306C41.1793 28.925 41.023 28.0758 40.5115 27.5465C39.9997 28.0761 39.8444 28.9248 38.9254 29.1306C38.4645 29.2338 37.9682 29.1589 37.5899 28.9291C34.5915 27.0931 32.555 24.919 31.4097 22.5659C30.2931 20.2141 29.9262 17.4918 30.0119 14.5185C30.1976 8.29196 33.1428 3.95209 39.6397 0.331972ZM42.9984 26.2471C44.8746 24.9015 46.0052 23.433 46.8041 21.7447C47.8092 19.6799 48.0991 17.3996 48.0119 14.573C47.8672 9.71774 46.4108 6.55808 41.9984 3.62443V12.2055C43.7236 12.5518 44.4984 13.8719 44.4984 15.3258C44.4984 16.7798 43.7236 18.0998 41.9984 18.4462V25.467C41.9984 25.467 42.8001 26.0436 42.9984 26.2471ZM37.9983 26.2471C36.1221 24.9015 35.0179 23.433 34.2189 21.7447C33.2139 19.6799 32.9239 17.3996 33.0111 14.573C33.1556 9.72741 34.6044 6.55417 38.9983 3.62443V12.2055C37.2731 12.5518 36.4983 13.8719 36.4983 15.3258C36.4983 16.7798 37.2731 18.0998 38.9983 18.4462V25.467C38.9983 25.467 38.1892 26.0511 37.9983 26.2471ZM40.4984 13.7656C39.3938 13.7656 38.4983 14.4641 38.4983 15.3258C38.4983 16.1875 39.3938 16.886 40.4984 16.886C41.6029 16.886 42.4984 16.1875 42.4984 15.3258C42.4984 14.4641 41.6029 13.7656 40.4984 13.7656Z" fill="#1188EE"/>
</svg>
