<svg width="40" height="34" viewBox="0 0 40 34" fill="none" xmlns="http://www.w3.org/2000/svg">
<path fill-rule="evenodd" clip-rule="evenodd" d="M39.85 4.69994C38.5788 5.27494 37.18 5.62369 35.81 5.85369C36.46 5.74369 37.42 4.56619 37.8038 4.08869C38.3888 3.36244 38.875 2.53244 39.1488 1.63869C39.1838 1.56869 39.2113 1.48119 39.1413 1.42744C39.0538 1.39369 38.9963 1.41119 38.9263 1.44619C37.4094 2.25613 35.7974 2.87341 34.1275 3.28369C34.0697 3.30169 34.0079 3.30304 33.9493 3.28756C33.8907 3.27209 33.8377 3.24042 33.7963 3.19619C33.668 3.04225 33.528 2.89848 33.3775 2.76619C32.6843 2.16906 31.8992 1.68786 31.0525 1.34119C29.9222 0.883388 28.7031 0.686829 27.4863 0.766185C26.3042 0.846548 25.1518 1.17221 24.1025 1.72244C23.0514 2.27189 22.1234 3.02982 21.375 3.94994C20.5984 4.90529 20.0419 6.02006 19.745 7.21494C19.465 8.36494 19.4875 9.49994 19.6575 10.6612C19.685 10.8537 19.6675 10.8799 19.4938 10.8537C12.8988 9.87494 7.43626 7.51494 3.00001 2.46244C2.80751 2.24244 2.70251 2.24244 2.54501 2.47869C0.603765 5.38869 1.54501 10.0624 3.97001 12.3599C4.29376 12.6662 4.62501 12.9724 4.98376 13.2512C4.85376 13.2787 3.24001 13.1037 1.80126 12.3599C1.60876 12.2387 1.51251 12.3087 1.49501 12.5262C1.48252 12.8421 1.5001 13.1586 1.54751 13.4712C1.92001 16.4212 3.96251 19.1487 6.76001 20.2137C7.09251 20.3524 7.45877 20.4762 7.81751 20.5362C7.18002 20.6762 6.52376 20.7762 4.69626 20.6337C4.46876 20.5887 4.38126 20.7024 4.46876 20.9212C5.84126 24.6649 8.80626 25.7787 11.0263 26.4124C11.3238 26.4649 11.6213 26.4649 11.9188 26.5349C11.9013 26.5612 11.8838 26.5612 11.8663 26.5874C11.1288 27.7099 8.57626 28.5462 7.38751 28.9624C5.22501 29.7174 2.87126 30.0574 0.585015 29.8324C0.220015 29.7787 0.142515 29.7824 0.0437646 29.8324C-0.0562354 29.8949 0.0312646 29.9824 0.148765 30.0762C0.611265 30.3824 1.08376 30.6537 1.56501 30.9162C3.00994 31.6866 4.53486 32.2964 6.11251 32.7349C14.2838 34.9912 23.4875 33.3337 29.625 27.2374C34.4413 22.4499 36.13 15.8487 36.13 9.23744C36.13 8.97994 36.435 8.83743 36.6175 8.69993C37.8713 7.75869 38.8675 6.63119 39.8025 5.37244C40.0125 5.08994 40 4.83869 40 4.73494V4.69994C40 4.59494 40.0125 4.62619 39.85 4.69994Z" fill="#269BFF"/>
</svg>
